<?xml version="1.0" encoding="utf-8" standalone="no"?>
<!DOCTYPE svg PUBLIC "-//W3C//DTD SVG 1.1//EN"
  "http://www.w3.org/Graphics/SVG/1.1/DTD/svg11.dtd">
<svg xmlns:xlink="http://www.w3.org/1999/xlink" width="360pt" height="360pt" viewBox="0 0 360 360" xmlns="http://www.w3.org/2000/svg" version="1.1">
 <metadata>
  <rdf:RDF xmlns:dc="http://purl.org/dc/elements/1.1/" xmlns:cc="http://creativecommons.org/ns#" xmlns:rdf="http://www.w3.org/1999/02/22-rdf-syntax-ns#">
   <cc:Work>
    <dc:type rdf:resource="http://purl.org/dc/dcmitype/StillImage"/>
    <dc:date>2025-02-20T11:59:20.919708</dc:date>
    <dc:format>image/svg+xml</dc:format>
    <dc:creator>
     <cc:Agent>
      <dc:title>Matplotlib v3.10.0, https://matplotlib.org/</dc:title>
     </cc:Agent>
    </dc:creator>
   </cc:Work>
  </rdf:RDF>
 </metadata>
 <defs>
  <style type="text/css">*{stroke-linejoin: round; stroke-linecap: butt}</style>
 </defs>
 <g id="figure_1">
  <g id="patch_1">
   <path d="M 0 360 
L 360 360 
L 360 0 
L 0 0 
z
" style="fill: #ffffff"/>
  </g>
  <g id="axes_1">
   <g id="line2d_1">
    <path d="M 199.106843 195.801977 
L 198.401909 195.857737 
M 199.798594 195.635393 
L 198.401909 195.857737 
M 199.798594 195.635393 
L 199.106843 195.801977 
M 200.464115 195.360062 
L 198.401909 195.857737 
M 200.464115 195.360062 
L 199.798594 195.635393 
M 201.090631 194.979423 
L 198.401909 195.857737 
M 201.090631 194.979423 
L 200.464115 195.360062 
M 201.665775 194.498247 
L 198.401909 195.857737 
M 201.665775 194.498247 
L 201.090631 194.979423 
M 202.177714 193.922592 
L 198.401909 195.857737 
M 202.177714 193.922592 
L 201.665775 194.498247 
M 202.615276 193.259743 
L 198.401909 195.857737 
M 202.615276 193.259743 
L 202.177714 193.922592 
M 202.968068 192.518149 
L 198.401909 195.857737 
M 202.968068 192.518149 
L 202.615276 193.259743 
M 203.226592 191.707339 
L 198.401909 195.857737 
M 203.226592 191.707339 
L 202.968068 192.518149 
M 203.382343 190.837834 
L 198.401909 195.857737 
M 203.382343 190.837834 
L 203.226592 191.707339 
M 203.427913 189.921045 
L 198.401909 195.857737 
M 203.427913 189.921045 
L 203.382343 190.837834 
M 203.35707 188.96917 
L 198.401909 195.857737 
M 203.35707 188.96917 
L 203.427913 189.921045 
M 203.164839 187.995071 
L 198.401909 195.857737 
M 203.164839 187.995071 
L 203.35707 188.96917 
M 202.847565 187.012157 
L 198.401909 195.857737 
M 202.847565 187.012157 
L 203.164839 187.995071 
M 202.402962 186.034249 
L 198.401909 195.857737 
M 202.402962 186.034249 
L 202.847565 187.012157 
M 201.830163 185.07545 
L 198.401909 195.857737 
M 201.830163 185.07545 
L 202.402962 186.034249 
M 201.129739 184.150007 
L 198.401909 195.857737 
M 201.129739 184.150007 
L 201.830163 185.07545 
M 200.303717 183.272167 
L 198.401909 195.857737 
M 200.303717 183.272167 
L 201.129739 184.150007 
M 199.355584 182.456039 
L 198.401909 195.857737 
M 199.355584 182.456039 
L 200.303717 183.272167 
M 198.290275 181.715455 
L 198.401909 195.857737 
M 198.290275 181.715455 
L 199.355584 182.456039 
M 197.114146 181.06382 
L 198.401909 195.857737 
M 197.114146 181.06382 
L 198.290275 181.715455 
M 195.834937 180.513984 
L 198.401909 195.857737 
M 195.834937 180.513984 
L 197.114146 181.06382 
M 194.461723 180.078101 
L 198.401909 195.857737 
M 194.461723 180.078101 
L 195.834937 180.513984 
M 193.00485 179.767502 
L 198.401909 195.857737 
M 193.00485 179.767502 
L 194.461723 180.078101 
M 191.475857 179.592567 
L 198.401909 195.857737 
M 191.475857 179.592567 
L 193.00485 179.767502 
M 189.887391 179.562613 
L 198.401909 195.857737 
M 189.887391 179.562613 
L 191.475857 179.592567 
M 188.253109 179.685782 
L 198.401909 195.857737 
M 188.253109 179.685782 
L 189.887391 179.562613 
M 186.587569 179.968938 
L 198.401909 195.857737 
M 186.587569 179.968938 
L 188.253109 179.685782 
M 184.906111 180.417583 
L 198.401909 195.857737 
M 184.906111 180.417583 
L 186.587569 179.968938 
M 183.224732 181.035771 
L 198.401909 195.857737 
M 183.224732 181.035771 
L 184.906111 180.417583 
M 181.55995 181.826047 
L 198.401909 195.857737 
M 181.55995 181.826047 
L 183.224732 181.035771 
M 179.928668 182.789382 
L 198.401909 195.857737 
M 179.928668 182.789382 
L 181.55995 181.826047 
M 178.348022 183.925142 
L 198.401909 195.857737 
M 178.348022 183.925142 
L 179.928668 182.789382 
M 176.835234 185.231047 
L 198.401909 195.857737 
M 176.835234 185.231047 
L 178.348022 183.925142 
M 175.407461 186.703163 
L 198.401909 195.857737 
M 175.407461 186.703163 
L 176.835234 185.231047 
M 174.081634 188.335898 
L 198.401909 195.857737 
M 174.081634 188.335898 
L 175.407461 186.703163 
M 172.874309 190.122015 
L 198.401909 195.857737 
M 172.874309 190.122015 
L 174.081634 188.335898 
M 171.801508 192.052657 
L 198.401909 195.857737 
M 171.801508 192.052657 
L 172.874309 190.122015 
M 170.878567 194.11739 
L 198.401909 195.857737 
M 170.878567 194.11739 
L 171.801508 192.052657 
M 170.119988 196.304258 
L 198.401909 195.857737 
M 170.119988 196.304258 
L 170.878567 194.11739 
M 169.539293 198.599849 
L 198.401909 195.857737 
M 169.539293 198.599849 
L 170.119988 196.304258 
M 169.148885 200.989384 
L 198.401909 195.857737 
M 169.148885 200.989384 
L 169.539293 198.599849 
M 168.959916 203.456804 
L 198.401909 195.857737 
M 168.959916 203.456804 
L 169.148885 200.989384 
M 168.982165 205.984881 
L 198.401909 195.857737 
M 168.982165 205.984881 
L 168.959916 203.456804 
M 169.223921 208.555338 
L 198.401909 195.857737 
M 169.223921 208.555338 
L 168.982165 205.984881 
M 169.69188 211.148979 
L 198.401909 195.857737 
M 169.69188 211.148979 
L 169.223921 208.555338 
M 170.391052 213.745823 
L 198.401909 195.857737 
M 170.391052 213.745823 
L 169.69188 211.148979 
M 171.324682 216.325258 
L 198.401909 195.857737 
M 171.324682 216.325258 
L 170.391052 213.745823 
M 172.49418 218.866197 
L 198.401909 195.857737 
M 172.49418 218.866197 
L 171.324682 216.325258 
M 173.899068 221.347236 
L 198.401909 195.857737 
M 173.899068 221.347236 
L 172.49418 218.866197 
M 175.536942 223.746825 
L 198.401909 195.857737 
M 175.536942 223.746825 
L 173.899068 221.347236 
M 177.403445 226.043442 
L 198.401909 195.857737 
M 177.403445 226.043442 
L 175.536942 223.746825 
M 179.492262 228.215763 
L 198.401909 195.857737 
M 179.492262 228.215763 
L 177.403445 226.043442 
M 181.795121 230.242845 
L 198.401909 195.857737 
M 181.795121 230.242845 
L 179.492262 228.215763 
M 184.301818 232.104295 
L 198.401909 195.857737 
M 184.301818 232.104295 
L 181.795121 230.242845 
M 187.000254 233.780454 
L 198.401909 195.857737 
M 187.000254 233.780454 
L 184.301818 232.104295 
M 189.876489 235.25256 
L 198.401909 195.857737 
M 189.876489 235.25256 
L 187.000254 233.780454 
M 192.914812 236.502926 
L 198.401909 195.857737 
M 192.914812 236.502926 
L 199.106843 195.801977 
M 192.914812 236.502926 
L 189.876489 235.25256 
M 196.097822 237.515097 
L 199.106843 195.801977 
M 196.097822 237.515097 
L 192.914812 236.502926 
M 199.406529 238.274009 
L 199.106843 195.801977 
M 199.406529 238.274009 
L 196.097822 237.515097 
M 202.820467 238.766137 
L 199.106843 195.801977 
M 202.820467 238.766137 
L 199.798594 195.635393 
M 202.820467 238.766137 
L 199.406529 238.274009 
M 206.317821 238.979632 
L 199.798594 195.635393 
M 206.317821 238.979632 
L 202.820467 238.766137 
M 209.875566 238.904455 
L 199.798594 195.635393 
M 209.875566 238.904455 
L 200.464115 195.360062 
M 209.875566 238.904455 
L 206.317821 238.979632 
M 213.469617 238.532486 
L 200.464115 195.360062 
M 213.469617 238.532486 
L 209.875566 238.904455 
M 217.074991 237.857634 
L 200.464115 195.360062 
M 217.074991 237.857634 
L 213.469617 238.532486 
M 220.665982 236.875926 
L 200.464115 195.360062 
M 220.665982 236.875926 
L 201.090631 194.979423 
M 220.665982 236.875926 
L 217.074991 237.857634 
M 224.216337 235.585582 
L 201.090631 194.979423 
M 224.216337 235.585582 
L 220.665982 236.875926 
M 227.699446 233.987073 
L 201.090631 194.979423 
M 227.699446 233.987073 
L 201.665775 194.498247 
M 227.699446 233.987073 
L 224.216337 235.585582 
M 231.088536 232.08317 
L 201.665775 194.498247 
M 231.088536 232.08317 
L 227.699446 233.987073 
M 234.356869 229.878968 
L 201.665775 194.498247 
M 234.356869 229.878968 
L 202.177714 193.922592 
M 234.356869 229.878968 
L 231.088536 232.08317 
M 237.477944 227.381898 
L 202.177714 193.922592 
M 237.477944 227.381898 
L 234.356869 229.878968 
M 240.425696 224.601718 
L 202.177714 193.922592 
M 240.425696 224.601718 
L 202.615276 193.259743 
M 240.425696 224.601718 
L 237.477944 227.381898 
M 243.174708 221.550491 
L 202.615276 193.259743 
M 243.174708 221.550491 
L 240.425696 224.601718 
M 245.700407 218.242539 
L 202.615276 193.259743 
M 245.700407 218.242539 
L 202.968068 192.518149 
M 245.700407 218.242539 
L 243.174708 221.550491 
M 247.979263 214.694388 
L 202.968068 192.518149 
M 247.979263 214.694388 
L 245.700407 218.242539 
M 249.988989 210.924684 
L 202.968068 192.518149 
M 249.988989 210.924684 
L 203.226592 191.707339 
M 249.988989 210.924684 
L 247.979263 214.694388 
M 251.708725 206.954106 
L 203.226592 191.707339 
M 251.708725 206.954106 
L 249.988989 210.924684 
M 253.119224 202.805248 
L 203.226592 191.707339 
M 253.119224 202.805248 
L 203.382343 190.837834 
M 253.119224 202.805248 
L 251.708725 206.954106 
M 254.203023 198.502494 
L 203.382343 190.837834 
M 254.203023 198.502494 
L 253.119224 202.805248 
M 254.944604 194.071876 
L 203.382343 190.837834 
M 254.944604 194.071876 
L 203.427913 189.921045 
M 254.944604 194.071876 
L 254.203023 198.502494 
M 255.330549 189.540916 
L 203.427913 189.921045 
M 255.330549 189.540916 
L 203.35707 188.96917 
M 255.330549 189.540916 
L 254.944604 194.071876 
M 255.349678 184.938454 
L 203.35707 188.96917 
M 255.349678 184.938454 
L 255.330549 189.540916 
M 254.993168 180.294468 
L 203.35707 188.96917 
M 254.993168 180.294468 
L 203.164839 187.995071 
M 254.993168 180.294468 
L 255.349678 184.938454 
M 254.25467 175.639874 
L 203.164839 187.995071 
M 254.25467 175.639874 
L 254.993168 180.294468 
M 253.130395 171.006324 
L 203.164839 187.995071 
M 253.130395 171.006324 
L 202.847565 187.012157 
M 253.130395 171.006324 
L 254.25467 175.639874 
M 251.619195 166.425994 
L 202.847565 187.012157 
M 251.619195 166.425994 
L 202.402962 186.034249 
M 251.619195 166.425994 
L 253.130395 171.006324 
M 249.722617 161.931359 
L 202.402962 186.034249 
M 249.722617 161.931359 
L 251.619195 166.425994 
M 247.444945 157.554969 
L 202.402962 186.034249 
M 247.444945 157.554969 
L 201.830163 185.07545 
M 247.444945 157.554969 
L 249.722617 161.931359 
M 244.793219 153.329216 
L 201.830163 185.07545 
M 244.793219 153.329216 
L 201.129739 184.150007 
M 244.793219 153.329216 
L 247.444945 157.554969 
M 241.777236 149.286102 
L 201.129739 184.150007 
M 241.777236 149.286102 
L 200.303717 183.272167 
M 241.777236 149.286102 
L 244.793219 153.329216 
M 238.40953 145.457003 
L 200.303717 183.272167 
M 238.40953 145.457003 
L 241.777236 149.286102 
M 234.705335 141.872437 
L 200.303717 183.272167 
M 234.705335 141.872437 
L 199.355584 182.456039 
M 234.705335 141.872437 
L 238.40953 145.457003 
M 230.682521 138.561829 
L 199.355584 182.456039 
M 230.682521 138.561829 
L 198.290275 181.715455 
M 230.682521 138.561829 
L 234.705335 141.872437 
M 226.361523 135.553286 
L 198.290275 181.715455 
M 226.361523 135.553286 
L 197.114146 181.06382 
M 226.361523 135.553286 
L 230.682521 138.561829 
M 221.765236 132.873377 
L 197.114146 181.06382 
M 221.765236 132.873377 
L 226.361523 135.553286 
M 216.918897 130.546913 
L 197.114146 181.06382 
M 216.918897 130.546913 
L 195.834937 180.513984 
M 216.918897 130.546913 
L 221.765236 132.873377 
M 211.849956 128.596748 
L 195.834937 180.513984 
M 211.849956 128.596748 
L 194.461723 180.078101 
M 211.849956 128.596748 
L 216.918897 130.546913 
M 206.587913 127.043581 
L 194.461723 180.078101 
M 206.587913 127.043581 
L 193.00485 179.767502 
M 206.587913 127.043581 
L 211.849956 128.596748 
M 201.164154 125.905776 
L 193.00485 179.767502 
M 201.164154 125.905776 
L 191.475857 179.592567 
M 201.164154 125.905776 
L 206.587913 127.043581 
M 195.611762 125.19919 
L 191.475857 179.592567 
M 195.611762 125.19919 
L 201.164154 125.905776 
M 189.965313 124.937025 
L 191.475857 179.592567 
M 189.965313 124.937025 
L 189.887391 179.562613 
M 189.965313 124.937025 
L 195.611762 125.19919 
M 184.260663 125.129687 
L 189.887391 179.562613 
M 184.260663 125.129687 
L 188.253109 179.685782 
M 184.260663 125.129687 
L 189.965313 124.937025 
M 178.534723 125.784665 
L 188.253109 179.685782 
M 178.534723 125.784665 
L 186.587569 179.968938 
M 178.534723 125.784665 
L 184.260663 125.129687 
M 172.825214 126.906437 
L 186.587569 179.968938 
M 172.825214 126.906437 
L 184.906111 180.417583 
M 172.825214 126.906437 
L 178.534723 125.784665 
M 167.170424 128.496383 
L 184.906111 180.417583 
M 167.170424 128.496383 
L 183.224732 181.035771 
M 167.170424 128.496383 
L 172.825214 126.906437 
M 161.608952 130.552723 
L 183.224732 181.035771 
M 161.608952 130.552723 
L 181.55995 181.826047 
M 161.608952 130.552723 
L 167.170424 128.496383 
M 156.179446 133.070486 
L 181.55995 181.826047 
M 156.179446 133.070486 
L 161.608952 130.552723 
M 150.920336 136.041481 
L 181.55995 181.826047 
M 150.920336 136.041481 
L 179.928668 182.789382 
M 150.920336 136.041481 
L 156.179446 133.070486 
M 145.869567 139.454312 
L 179.928668 182.789382 
M 145.869567 139.454312 
L 178.348022 183.925142 
M 145.869567 139.454312 
L 150.920336 136.041481 
M 141.064334 143.294396 
L 178.348022 183.925142 
M 141.064334 143.294396 
L 176.835234 185.231047 
M 141.064334 143.294396 
L 145.869567 139.454312 
M 136.540806 147.544018 
L 176.835234 185.231047 
M 136.540806 147.544018 
L 175.407461 186.703163 
M 136.540806 147.544018 
L 141.064334 143.294396 
M 132.33387 152.1824 
L 175.407461 186.703163 
M 132.33387 152.1824 
L 174.081634 188.335898 
M 132.33387 152.1824 
L 136.540806 147.544018 
M 128.47687 157.185796 
L 174.081634 188.335898 
M 128.47687 157.185796 
L 172.874309 190.122015 
M 128.47687 157.185796 
L 132.33387 152.1824 
M 125.001351 162.527607 
L 172.874309 190.122015 
M 125.001351 162.527607 
L 171.801508 192.052657 
M 125.001351 162.527607 
L 128.47687 157.185796 
M 121.936819 168.178519 
L 171.801508 192.052657 
M 121.936819 168.178519 
L 170.878567 194.11739 
M 121.936819 168.178519 
L 125.001351 162.527607 
M 119.31051 174.106662 
L 170.878567 194.11739 
M 119.31051 174.106662 
L 170.119988 196.304258 
M 119.31051 174.106662 
L 121.936819 168.178519 
M 117.147165 180.277785 
L 170.119988 196.304258 
M 117.147165 180.277785 
L 119.31051 174.106662 
M 115.468827 186.655454 
L 170.119988 196.304258 
M 115.468827 186.655454 
L 169.539293 198.599849 
M 115.468827 186.655454 
L 117.147165 180.277785 
M 114.29465 193.201269 
L 169.539293 198.599849 
M 114.29465 193.201269 
L 169.148885 200.989384 
M 114.29465 193.201269 
L 115.468827 186.655454 
M 113.640723 199.875089 
L 169.148885 200.989384 
M 113.640723 199.875089 
L 168.959916 203.456804 
M 113.640723 199.875089 
L 114.29465 193.201269 
M 113.519919 206.635286 
L 168.959916 203.456804 
M 113.519919 206.635286 
L 168.982165 205.984881 
M 113.519919 206.635286 
L 113.640723 199.875089 
M 113.941758 213.438998 
L 168.982165 205.984881 
M 113.941758 213.438998 
L 169.223921 208.555338 
M 113.941758 213.438998 
L 113.519919 206.635286 
M 114.912292 220.242402 
L 169.223921 208.555338 
M 114.912292 220.242402 
L 169.69188 211.148979 
M 114.912292 220.242402 
L 113.941758 213.438998 
M 116.434016 227.001 
L 169.69188 211.148979 
M 116.434016 227.001 
L 170.391052 213.745823 
M 116.434016 227.001 
L 114.912292 220.242402 
M 118.505797 233.669903 
L 170.391052 213.745823 
M 118.505797 233.669903 
L 171.324682 216.325258 
M 118.505797 233.669903 
L 116.434016 227.001 
M 121.12283 240.204134 
L 171.324682 216.325258 
M 121.12283 240.204134 
L 172.49418 218.866197 
M 121.12283 240.204134 
L 118.505797 233.669903 
M 124.276617 246.558926 
L 172.49418 218.866197 
M 124.276617 246.558926 
L 173.899068 221.347236 
M 124.276617 246.558926 
L 121.12283 240.204134 
M 127.954973 252.690028 
L 173.899068 221.347236 
M 127.954973 252.690028 
L 175.536942 223.746825 
M 127.954973 252.690028 
L 124.276617 246.558926 
M 132.142052 258.554006 
L 175.536942 223.746825 
M 132.142052 258.554006 
L 177.403445 226.043442 
M 132.142052 258.554006 
L 127.954973 252.690028 
M 136.818407 264.108553 
L 177.403445 226.043442 
M 136.818407 264.108553 
L 179.492262 228.215763 
M 136.818407 264.108553 
L 132.142052 258.554006 
M 141.961065 269.312781 
L 179.492262 228.215763 
M 141.961065 269.312781 
L 181.795121 230.242845 
M 141.961065 269.312781 
L 136.818407 264.108553 
M 147.543633 274.12752 
L 181.795121 230.242845 
M 147.543633 274.12752 
L 184.301818 232.104295 
M 147.543633 274.12752 
L 141.961065 269.312781 
M 153.536428 278.515603 
L 184.301818 232.104295 
M 153.536428 278.515603 
L 187.000254 233.780454 
M 153.536428 278.515603 
L 147.543633 274.12752 
M 159.906631 282.44214 
L 187.000254 233.780454 
M 159.906631 282.44214 
L 189.876489 235.25256 
M 159.906631 282.44214 
L 153.536428 278.515603 
M 166.618462 285.874785 
L 189.876489 235.25256 
M 166.618462 285.874785 
L 159.906631 282.44214 
M 173.633378 288.783985 
L 189.876489 235.25256 
M 173.633378 288.783985 
L 192.914812 236.502926 
M 173.633378 288.783985 
L 166.618462 285.874785 
M 180.910295 291.143216 
L 192.914812 236.502926 
M 180.910295 291.143216 
L 196.097822 237.515097 
M 180.910295 291.143216 
L 173.633378 288.783985 
M 188.405826 292.929199 
L 196.097822 237.515097 
M 188.405826 292.929199 
L 199.406529 238.274009 
M 188.405826 292.929199 
L 180.910295 291.143216 
M 196.074539 294.122101 
L 199.406529 238.274009 
M 196.074539 294.122101 
L 202.820467 238.766137 
M 196.074539 294.122101 
L 188.405826 292.929199 
M 203.869234 294.705711 
L 202.820467 238.766137 
M 203.869234 294.705711 
L 206.317821 238.979632 
M 203.869234 294.705711 
L 196.074539 294.122101 
M 211.74123 294.667593 
L 206.317821 238.979632 
M 211.74123 294.667593 
L 209.875566 238.904455 
M 211.74123 294.667593 
L 203.869234 294.705711 
M 219.640672 293.999226 
L 209.875566 238.904455 
M 219.640672 293.999226 
L 213.469617 238.532486 
M 219.640672 293.999226 
L 211.74123 294.667593 
M 227.516848 292.696103 
L 213.469617 238.532486 
M 227.516848 292.696103 
L 217.074991 237.857634 
M 227.516848 292.696103 
L 219.640672 293.999226 
M 235.31851 290.757818 
L 217.074991 237.857634 
M 235.31851 290.757818 
L 220.665982 236.875926 
M 235.31851 290.757818 
L 227.516848 292.696103 
M 242.994208 288.18812 
L 220.665982 236.875926 
M 242.994208 288.18812 
L 224.216337 235.585582 
M 242.994208 288.18812 
L 235.31851 290.757818 
M 250.492632 284.994942 
L 224.216337 235.585582 
M 250.492632 284.994942 
L 227.699446 233.987073 
M 250.492632 284.994942 
L 242.994208 288.18812 
M 257.762949 281.190403 
L 227.699446 233.987073 
M 257.762949 281.190403 
L 231.088536 232.08317 
M 257.762949 281.190403 
L 250.492632 284.994942 
M 264.755146 276.790777 
L 231.088536 232.08317 
M 264.755146 276.790777 
L 234.356869 229.878968 
M 264.755146 276.790777 
L 257.762949 281.190403 
M 271.420375 271.816444 
L 234.356869 229.878968 
M 271.420375 271.816444 
L 237.477944 227.381898 
M 271.420375 271.816444 
L 264.755146 276.790777 
M 277.711283 266.291799 
L 237.477944 227.381898 
M 277.711283 266.291799 
L 240.425696 224.601718 
M 277.711283 266.291799 
L 271.420375 271.816444 
M 283.582351 260.245148 
L 240.425696 224.601718 
M 283.582351 260.245148 
L 243.174708 221.550491 
M 283.582351 260.245148 
L 277.711283 266.291799 
M 288.990211 253.708568 
L 243.174708 221.550491 
M 288.990211 253.708568 
L 245.700407 218.242539 
M 288.990211 253.708568 
L 283.582351 260.245148 
M 293.893961 246.717737 
L 245.700407 218.242539 
M 293.893961 246.717737 
L 247.979263 214.694388 
M 293.893961 246.717737 
L 288.990211 253.708568 
M 298.255467 239.311751 
L 247.979263 214.694388 
M 298.255467 239.311751 
L 249.988989 210.924684 
M 298.255467 239.311751 
L 293.893961 246.717737 
M 302.039642 231.532903 
L 249.988989 210.924684 
M 302.039642 231.532903 
L 251.708725 206.954106 
M 302.039642 231.532903 
L 298.255467 239.311751 
M 305.21472 223.426445 
L 251.708725 206.954106 
M 305.21472 223.426445 
L 253.119224 202.805248 
M 305.21472 223.426445 
L 302.039642 231.532903 
M 307.752499 215.040324 
L 253.119224 202.805248 
M 307.752499 215.040324 
L 254.203023 198.502494 
M 307.752499 215.040324 
L 305.21472 223.426445 
M 309.628575 206.424903 
L 254.203023 198.502494 
M 309.628575 206.424903 
L 254.944604 194.071876 
M 309.628575 206.424903 
L 307.752499 215.040324 
M 310.822543 197.632657 
L 254.944604 194.071876 
M 310.822543 197.632657 
L 255.330549 189.540916 
M 310.822543 197.632657 
L 309.628575 206.424903 
M 311.318182 188.717853 
L 255.330549 189.540916 
M 311.318182 188.717853 
L 255.349678 184.938454 
M 311.318182 188.717853 
L 310.822543 197.632657 
M 311.103606 179.736215 
L 255.349678 184.938454 
M 311.103606 179.736215 
L 254.993168 180.294468 
M 311.103606 179.736215 
L 311.318182 188.717853 
M 310.171398 170.744578 
L 254.993168 180.294468 
M 310.171398 170.744578 
L 254.25467 175.639874 
M 310.171398 170.744578 
L 311.103606 179.736215 
M 308.518707 161.800524 
L 254.25467 175.639874 
M 308.518707 161.800524 
L 253.130395 171.006324 
M 308.518707 161.800524 
L 310.171398 170.744578 
M 306.147321 152.96202 
L 253.130395 171.006324 
M 306.147321 152.96202 
L 251.619195 166.425994 
M 306.147321 152.96202 
L 308.518707 161.800524 
M 303.063711 144.287035 
L 251.619195 166.425994 
M 303.063711 144.287035 
L 249.722617 161.931359 
M 303.063711 144.287035 
L 306.147321 152.96202 
M 299.279037 135.833168 
L 249.722617 161.931359 
M 299.279037 135.833168 
L 247.444945 157.554969 
M 299.279037 135.833168 
L 303.063711 144.287035 
M 294.809133 127.657262 
L 247.444945 157.554969 
M 294.809133 127.657262 
L 244.793219 153.329216 
M 294.809133 127.657262 
L 299.279037 135.833168 
M 289.674457 119.815028 
L 244.793219 153.329216 
M 289.674457 119.815028 
L 241.777236 149.286102 
M 289.674457 119.815028 
L 294.809133 127.657262 
M 283.900006 112.360665 
L 241.777236 149.286102 
M 283.900006 112.360665 
L 238.40953 145.457003 
M 283.900006 112.360665 
L 289.674457 119.815028 
M 277.515205 105.346489 
L 238.40953 145.457003 
M 277.515205 105.346489 
L 234.705335 141.872437 
M 277.515205 105.346489 
L 283.900006 112.360665 
M 270.553768 98.822573 
L 234.705335 141.872437 
M 270.553768 98.822573 
L 230.682521 138.561829 
M 270.553768 98.822573 
L 277.515205 105.346489 
M 263.05352 92.836393 
L 230.682521 138.561829 
M 263.05352 92.836393 
L 226.361523 135.553286 
M 263.05352 92.836393 
L 270.553768 98.822573 
M 255.0562 87.432492 
L 226.361523 135.553286 
M 255.0562 87.432492 
L 221.765236 132.873377 
M 255.0562 87.432492 
L 263.05352 92.836393 
M 246.60723 82.652155 
L 221.765236 132.873377 
M 246.60723 82.652155 
L 216.918897 130.546913 
M 246.60723 82.652155 
L 255.0562 87.432492 
M 237.755462 78.533105 
L 216.918897 130.546913 
M 237.755462 78.533105 
L 211.849956 128.596748 
M 237.755462 78.533105 
L 246.60723 82.652155 
M 228.552893 75.109221 
L 211.849956 128.596748 
M 228.552893 75.109221 
L 206.587913 127.043581 
M 228.552893 75.109221 
L 237.755462 78.533105 
M 219.054364 72.410272 
L 206.587913 127.043581 
M 219.054364 72.410272 
L 201.164154 125.905776 
M 219.054364 72.410272 
L 228.552893 75.109221 
M 209.317234 70.461681 
L 201.164154 125.905776 
M 209.317234 70.461681 
L 195.611762 125.19919 
M 209.317234 70.461681 
L 219.054364 72.410272 
M 199.40103 69.284312 
L 195.611762 125.19919 
M 199.40103 69.284312 
L 189.965313 124.937025 
M 199.40103 69.284312 
L 209.317234 70.461681 
M 189.367089 68.894289 
L 189.965313 124.937025 
M 189.367089 68.894289 
L 184.260663 125.129687 
M 189.367089 68.894289 
L 199.40103 69.284312 
M 179.278174 69.302837 
L 184.260663 125.129687 
M 179.278174 69.302837 
L 178.534723 125.784665 
M 179.278174 69.302837 
L 189.367089 68.894289 
M 169.198083 70.516157 
L 178.534723 125.784665 
M 169.198083 70.516157 
L 172.825214 126.906437 
M 169.198083 70.516157 
L 179.278174 69.302837 
M 159.191247 72.535337 
L 172.825214 126.906437 
M 159.191247 72.535337 
L 167.170424 128.496383 
M 159.191247 72.535337 
L 169.198083 70.516157 
M 149.322315 75.356289 
L 167.170424 128.496383 
M 149.322315 75.356289 
L 161.608952 130.552723 
M 149.322315 75.356289 
L 159.191247 72.535337 
M 139.655742 78.969719 
L 161.608952 130.552723 
M 139.655742 78.969719 
L 156.179446 133.070486 
M 139.655742 78.969719 
L 149.322315 75.356289 
M 130.255364 83.361139 
L 156.179446 133.070486 
M 130.255364 83.361139 
L 150.920336 136.041481 
M 130.255364 83.361139 
L 139.655742 78.969719 
M 121.183979 88.510902 
L 150.920336 136.041481 
M 121.183979 88.510902 
L 145.869567 139.454312 
M 121.183979 88.510902 
L 130.255364 83.361139 
M 112.502933 94.39428 
L 145.869567 139.454312 
M 112.502933 94.39428 
L 141.064334 143.294396 
M 112.502933 94.39428 
L 121.183979 88.510902 
M 104.271702 100.98157 
L 141.064334 143.294396 
M 104.271702 100.98157 
L 136.540806 147.544018 
M 104.271702 100.98157 
L 112.502933 94.39428 
M 96.547493 108.238238 
L 136.540806 147.544018 
M 96.547493 108.238238 
L 104.271702 100.98157 
M 89.384848 116.125091 
L 136.540806 147.544018 
M 89.384848 116.125091 
L 132.33387 152.1824 
M 89.384848 116.125091 
L 96.547493 108.238238 
M 82.835263 124.598486 
L 132.33387 152.1824 
M 82.835263 124.598486 
L 128.47687 157.185796 
M 82.835263 124.598486 
L 89.384848 116.125091 
M 76.94683 133.610567 
L 128.47687 157.185796 
M 76.94683 133.610567 
L 125.001351 162.527607 
M 76.94683 133.610567 
L 82.835263 124.598486 
M 71.763885 143.109531 
L 125.001351 162.527607 
M 71.763885 143.109531 
L 121.936819 168.178519 
M 71.763885 143.109531 
L 76.94683 133.610567 
M 67.326688 153.039925 
L 121.936819 168.178519 
M 67.326688 153.039925 
L 119.31051 174.106662 
M 67.326688 153.039925 
L 71.763885 143.109531 
M 63.671123 163.342971 
L 119.31051 174.106662 
M 63.671123 163.342971 
L 117.147165 180.277785 
M 63.671123 163.342971 
L 67.326688 153.039925 
M 60.828421 173.956906 
L 117.147165 180.277785 
M 60.828421 173.956906 
L 115.468827 186.655454 
M 60.828421 173.956906 
L 63.671123 163.342971 
M 58.824914 184.817359 
L 115.468827 186.655454 
M 58.824914 184.817359 
L 114.29465 193.201269 
M 58.824914 184.817359 
L 60.828421 173.956906 
M 57.681818 195.857737 
L 114.29465 193.201269 
M 57.681818 195.857737 
L 113.640723 199.875089 
M 57.681818 195.857737 
L 113.519919 206.635286 
M 57.681818 195.857737 
L 113.941758 213.438998 
M 57.681818 195.857737 
L 114.912292 220.242402 
M 57.681818 195.857737 
L 116.434016 227.001 
M 57.681818 195.857737 
L 118.505797 233.669903 
M 57.681818 195.857737 
L 121.12283 240.204134 
M 57.681818 195.857737 
L 124.276617 246.558926 
M 57.681818 195.857737 
L 127.954973 252.690028 
M 57.681818 195.857737 
L 132.142052 258.554006 
M 57.681818 195.857737 
L 136.818407 264.108553 
M 57.681818 195.857737 
L 141.961065 269.312781 
M 57.681818 195.857737 
L 58.824914 184.817359 
L 58.824914 184.817359 
" clip-path="url(#pef00a33c82)" style="fill: none; stroke: #0000ff; stroke-width: 0.5; stroke-linecap: square"/>
   </g>
   <g id="line2d_2"/>
   <g id="PathCollection_1">
    <defs>
     <path id="m3494793f85" d="M 0 0.707107 
C 0.187527 0.707107 0.367398 0.632602 0.5 0.5 
C 0.632602 0.367398 0.707107 0.187527 0.707107 0 
C 0.707107 -0.187527 0.632602 -0.367398 0.5 -0.5 
C 0.367398 -0.632602 0.187527 -0.707107 0 -0.707107 
C -0.187527 -0.707107 -0.367398 -0.632602 -0.5 -0.5 
C -0.632602 -0.367398 -0.707107 -0.187527 -0.707107 0 
C -0.707107 0.187527 -0.632602 0.367398 -0.5 0.5 
C -0.367398 0.632602 -0.187527 0.707107 0 0.707107 
z
" style="stroke: #000000"/>
    </defs>
    <g clip-path="url(#pef00a33c82)">
     <use xlink:href="#m3494793f85" x="198.401909" y="195.857737" style="stroke: #000000"/>
     <use xlink:href="#m3494793f85" x="199.106843" y="195.801977" style="stroke: #000000"/>
     <use xlink:href="#m3494793f85" x="199.798594" y="195.635393" style="stroke: #000000"/>
     <use xlink:href="#m3494793f85" x="200.464115" y="195.360062" style="stroke: #000000"/>
     <use xlink:href="#m3494793f85" x="201.090631" y="194.979423" style="stroke: #000000"/>
     <use xlink:href="#m3494793f85" x="201.665775" y="194.498247" style="stroke: #000000"/>
     <use xlink:href="#m3494793f85" x="202.177714" y="193.922592" style="stroke: #000000"/>
     <use xlink:href="#m3494793f85" x="202.615276" y="193.259743" style="stroke: #000000"/>
     <use xlink:href="#m3494793f85" x="202.968068" y="192.518149" style="stroke: #000000"/>
     <use xlink:href="#m3494793f85" x="203.226592" y="191.707339" style="stroke: #000000"/>
     <use xlink:href="#m3494793f85" x="203.382343" y="190.837834" style="stroke: #000000"/>
     <use xlink:href="#m3494793f85" x="203.427913" y="189.921045" style="stroke: #000000"/>
     <use xlink:href="#m3494793f85" x="203.35707" y="188.96917" style="stroke: #000000"/>
     <use xlink:href="#m3494793f85" x="203.164839" y="187.995071" style="stroke: #000000"/>
     <use xlink:href="#m3494793f85" x="202.847565" y="187.012157" style="stroke: #000000"/>
     <use xlink:href="#m3494793f85" x="202.402962" y="186.034249" style="stroke: #000000"/>
     <use xlink:href="#m3494793f85" x="201.830163" y="185.07545" style="stroke: #000000"/>
     <use xlink:href="#m3494793f85" x="201.129739" y="184.150007" style="stroke: #000000"/>
     <use xlink:href="#m3494793f85" x="200.303717" y="183.272167" style="stroke: #000000"/>
     <use xlink:href="#m3494793f85" x="199.355584" y="182.456039" style="stroke: #000000"/>
     <use xlink:href="#m3494793f85" x="198.290275" y="181.715455" style="stroke: #000000"/>
     <use xlink:href="#m3494793f85" x="197.114146" y="181.06382" style="stroke: #000000"/>
     <use xlink:href="#m3494793f85" x="195.834937" y="180.513984" style="stroke: #000000"/>
     <use xlink:href="#m3494793f85" x="194.461723" y="180.078101" style="stroke: #000000"/>
     <use xlink:href="#m3494793f85" x="193.00485" y="179.767502" style="stroke: #000000"/>
     <use xlink:href="#m3494793f85" x="191.475857" y="179.592567" style="stroke: #000000"/>
     <use xlink:href="#m3494793f85" x="189.887391" y="179.562613" style="stroke: #000000"/>
     <use xlink:href="#m3494793f85" x="188.253109" y="179.685782" style="stroke: #000000"/>
     <use xlink:href="#m3494793f85" x="186.587569" y="179.968938" style="stroke: #000000"/>
     <use xlink:href="#m3494793f85" x="184.906111" y="180.417583" style="stroke: #000000"/>
     <use xlink:href="#m3494793f85" x="183.224732" y="181.035771" style="stroke: #000000"/>
     <use xlink:href="#m3494793f85" x="181.55995" y="181.826047" style="stroke: #000000"/>
     <use xlink:href="#m3494793f85" x="179.928668" y="182.789382" style="stroke: #000000"/>
     <use xlink:href="#m3494793f85" x="178.348022" y="183.925142" style="stroke: #000000"/>
     <use xlink:href="#m3494793f85" x="176.835234" y="185.231047" style="stroke: #000000"/>
     <use xlink:href="#m3494793f85" x="175.407461" y="186.703163" style="stroke: #000000"/>
     <use xlink:href="#m3494793f85" x="174.081634" y="188.335898" style="stroke: #000000"/>
     <use xlink:href="#m3494793f85" x="172.874309" y="190.122015" style="stroke: #000000"/>
     <use xlink:href="#m3494793f85" x="171.801508" y="192.052657" style="stroke: #000000"/>
     <use xlink:href="#m3494793f85" x="170.878567" y="194.11739" style="stroke: #000000"/>
     <use xlink:href="#m3494793f85" x="170.119988" y="196.304258" style="stroke: #000000"/>
     <use xlink:href="#m3494793f85" x="169.539293" y="198.599849" style="stroke: #000000"/>
     <use xlink:href="#m3494793f85" x="169.148885" y="200.989384" style="stroke: #000000"/>
     <use xlink:href="#m3494793f85" x="168.959916" y="203.456804" style="stroke: #000000"/>
     <use xlink:href="#m3494793f85" x="168.982165" y="205.984881" style="stroke: #000000"/>
     <use xlink:href="#m3494793f85" x="169.223921" y="208.555338" style="stroke: #000000"/>
     <use xlink:href="#m3494793f85" x="169.69188" y="211.148979" style="stroke: #000000"/>
     <use xlink:href="#m3494793f85" x="170.391052" y="213.745823" style="stroke: #000000"/>
     <use xlink:href="#m3494793f85" x="171.324682" y="216.325258" style="stroke: #000000"/>
     <use xlink:href="#m3494793f85" x="172.49418" y="218.866197" style="stroke: #000000"/>
     <use xlink:href="#m3494793f85" x="173.899068" y="221.347236" style="stroke: #000000"/>
     <use xlink:href="#m3494793f85" x="175.536942" y="223.746825" style="stroke: #000000"/>
     <use xlink:href="#m3494793f85" x="177.403445" y="226.043442" style="stroke: #000000"/>
     <use xlink:href="#m3494793f85" x="179.492262" y="228.215763" style="stroke: #000000"/>
     <use xlink:href="#m3494793f85" x="181.795121" y="230.242845" style="stroke: #000000"/>
     <use xlink:href="#m3494793f85" x="184.301818" y="232.104295" style="stroke: #000000"/>
     <use xlink:href="#m3494793f85" x="187.000254" y="233.780454" style="stroke: #000000"/>
     <use xlink:href="#m3494793f85" x="189.876489" y="235.25256" style="stroke: #000000"/>
     <use xlink:href="#m3494793f85" x="192.914812" y="236.502926" style="stroke: #000000"/>
     <use xlink:href="#m3494793f85" x="196.097822" y="237.515097" style="stroke: #000000"/>
     <use xlink:href="#m3494793f85" x="199.406529" y="238.274009" style="stroke: #000000"/>
     <use xlink:href="#m3494793f85" x="202.820467" y="238.766137" style="stroke: #000000"/>
     <use xlink:href="#m3494793f85" x="206.317821" y="238.979632" style="stroke: #000000"/>
     <use xlink:href="#m3494793f85" x="209.875566" y="238.904455" style="stroke: #000000"/>
     <use xlink:href="#m3494793f85" x="213.469617" y="238.532486" style="stroke: #000000"/>
     <use xlink:href="#m3494793f85" x="217.074991" y="237.857634" style="stroke: #000000"/>
     <use xlink:href="#m3494793f85" x="220.665982" y="236.875926" style="stroke: #000000"/>
     <use xlink:href="#m3494793f85" x="224.216337" y="235.585582" style="stroke: #000000"/>
     <use xlink:href="#m3494793f85" x="227.699446" y="233.987073" style="stroke: #000000"/>
     <use xlink:href="#m3494793f85" x="231.088536" y="232.08317" style="stroke: #000000"/>
     <use xlink:href="#m3494793f85" x="234.356869" y="229.878968" style="stroke: #000000"/>
     <use xlink:href="#m3494793f85" x="237.477944" y="227.381898" style="stroke: #000000"/>
     <use xlink:href="#m3494793f85" x="240.425696" y="224.601718" style="stroke: #000000"/>
     <use xlink:href="#m3494793f85" x="243.174708" y="221.550491" style="stroke: #000000"/>
     <use xlink:href="#m3494793f85" x="245.700407" y="218.242539" style="stroke: #000000"/>
     <use xlink:href="#m3494793f85" x="247.979263" y="214.694388" style="stroke: #000000"/>
     <use xlink:href="#m3494793f85" x="249.988989" y="210.924684" style="stroke: #000000"/>
     <use xlink:href="#m3494793f85" x="251.708725" y="206.954106" style="stroke: #000000"/>
     <use xlink:href="#m3494793f85" x="253.119224" y="202.805248" style="stroke: #000000"/>
     <use xlink:href="#m3494793f85" x="254.203023" y="198.502494" style="stroke: #000000"/>
     <use xlink:href="#m3494793f85" x="254.944604" y="194.071876" style="stroke: #000000"/>
     <use xlink:href="#m3494793f85" x="255.330549" y="189.540916" style="stroke: #000000"/>
     <use xlink:href="#m3494793f85" x="255.349678" y="184.938454" style="stroke: #000000"/>
     <use xlink:href="#m3494793f85" x="254.993168" y="180.294468" style="stroke: #000000"/>
     <use xlink:href="#m3494793f85" x="254.25467" y="175.639874" style="stroke: #000000"/>
     <use xlink:href="#m3494793f85" x="253.130395" y="171.006324" style="stroke: #000000"/>
     <use xlink:href="#m3494793f85" x="251.619195" y="166.425994" style="stroke: #000000"/>
     <use xlink:href="#m3494793f85" x="249.722617" y="161.931359" style="stroke: #000000"/>
     <use xlink:href="#m3494793f85" x="247.444945" y="157.554969" style="stroke: #000000"/>
     <use xlink:href="#m3494793f85" x="244.793219" y="153.329216" style="stroke: #000000"/>
     <use xlink:href="#m3494793f85" x="241.777236" y="149.286102" style="stroke: #000000"/>
     <use xlink:href="#m3494793f85" x="238.40953" y="145.457003" style="stroke: #000000"/>
     <use xlink:href="#m3494793f85" x="234.705335" y="141.872437" style="stroke: #000000"/>
     <use xlink:href="#m3494793f85" x="230.682521" y="138.561829" style="stroke: #000000"/>
     <use xlink:href="#m3494793f85" x="226.361523" y="135.553286" style="stroke: #000000"/>
     <use xlink:href="#m3494793f85" x="221.765236" y="132.873377" style="stroke: #000000"/>
     <use xlink:href="#m3494793f85" x="216.918897" y="130.546913" style="stroke: #000000"/>
     <use xlink:href="#m3494793f85" x="211.849956" y="128.596748" style="stroke: #000000"/>
     <use xlink:href="#m3494793f85" x="206.587913" y="127.043581" style="stroke: #000000"/>
     <use xlink:href="#m3494793f85" x="201.164154" y="125.905776" style="stroke: #000000"/>
     <use xlink:href="#m3494793f85" x="195.611762" y="125.19919" style="stroke: #000000"/>
     <use xlink:href="#m3494793f85" x="189.965313" y="124.937025" style="stroke: #000000"/>
     <use xlink:href="#m3494793f85" x="184.260663" y="125.129687" style="stroke: #000000"/>
     <use xlink:href="#m3494793f85" x="178.534723" y="125.784665" style="stroke: #000000"/>
     <use xlink:href="#m3494793f85" x="172.825214" y="126.906437" style="stroke: #000000"/>
     <use xlink:href="#m3494793f85" x="167.170424" y="128.496383" style="stroke: #000000"/>
     <use xlink:href="#m3494793f85" x="161.608952" y="130.552723" style="stroke: #000000"/>
     <use xlink:href="#m3494793f85" x="156.179446" y="133.070486" style="stroke: #000000"/>
     <use xlink:href="#m3494793f85" x="150.920336" y="136.041481" style="stroke: #000000"/>
     <use xlink:href="#m3494793f85" x="145.869567" y="139.454312" style="stroke: #000000"/>
     <use xlink:href="#m3494793f85" x="141.064334" y="143.294396" style="stroke: #000000"/>
     <use xlink:href="#m3494793f85" x="136.540806" y="147.544018" style="stroke: #000000"/>
     <use xlink:href="#m3494793f85" x="132.33387" y="152.1824" style="stroke: #000000"/>
     <use xlink:href="#m3494793f85" x="128.47687" y="157.185796" style="stroke: #000000"/>
     <use xlink:href="#m3494793f85" x="125.001351" y="162.527607" style="stroke: #000000"/>
     <use xlink:href="#m3494793f85" x="121.936819" y="168.178519" style="stroke: #000000"/>
     <use xlink:href="#m3494793f85" x="119.31051" y="174.106662" style="stroke: #000000"/>
     <use xlink:href="#m3494793f85" x="117.147165" y="180.277785" style="stroke: #000000"/>
     <use xlink:href="#m3494793f85" x="115.468827" y="186.655454" style="stroke: #000000"/>
     <use xlink:href="#m3494793f85" x="114.29465" y="193.201269" style="stroke: #000000"/>
     <use xlink:href="#m3494793f85" x="113.640723" y="199.875089" style="stroke: #000000"/>
     <use xlink:href="#m3494793f85" x="113.519919" y="206.635286" style="stroke: #000000"/>
     <use xlink:href="#m3494793f85" x="113.941758" y="213.438998" style="stroke: #000000"/>
     <use xlink:href="#m3494793f85" x="114.912292" y="220.242402" style="stroke: #000000"/>
     <use xlink:href="#m3494793f85" x="116.434016" y="227.001" style="stroke: #000000"/>
     <use xlink:href="#m3494793f85" x="118.505797" y="233.669903" style="stroke: #000000"/>
     <use xlink:href="#m3494793f85" x="121.12283" y="240.204134" style="stroke: #000000"/>
     <use xlink:href="#m3494793f85" x="124.276617" y="246.558926" style="stroke: #000000"/>
     <use xlink:href="#m3494793f85" x="127.954973" y="252.690028" style="stroke: #000000"/>
     <use xlink:href="#m3494793f85" x="132.142052" y="258.554006" style="stroke: #000000"/>
     <use xlink:href="#m3494793f85" x="136.818407" y="264.108553" style="stroke: #000000"/>
     <use xlink:href="#m3494793f85" x="141.961065" y="269.312781" style="stroke: #000000"/>
     <use xlink:href="#m3494793f85" x="147.543633" y="274.12752" style="stroke: #000000"/>
     <use xlink:href="#m3494793f85" x="153.536428" y="278.515603" style="stroke: #000000"/>
     <use xlink:href="#m3494793f85" x="159.906631" y="282.44214" style="stroke: #000000"/>
     <use xlink:href="#m3494793f85" x="166.618462" y="285.874785" style="stroke: #000000"/>
     <use xlink:href="#m3494793f85" x="173.633378" y="288.783985" style="stroke: #000000"/>
     <use xlink:href="#m3494793f85" x="180.910295" y="291.143216" style="stroke: #000000"/>
     <use xlink:href="#m3494793f85" x="188.405826" y="292.929199" style="stroke: #000000"/>
     <use xlink:href="#m3494793f85" x="196.074539" y="294.122101" style="stroke: #000000"/>
     <use xlink:href="#m3494793f85" x="203.869234" y="294.705711" style="stroke: #000000"/>
     <use xlink:href="#m3494793f85" x="211.74123" y="294.667593" style="stroke: #000000"/>
     <use xlink:href="#m3494793f85" x="219.640672" y="293.999226" style="stroke: #000000"/>
     <use xlink:href="#m3494793f85" x="227.516848" y="292.696103" style="stroke: #000000"/>
     <use xlink:href="#m3494793f85" x="235.31851" y="290.757818" style="stroke: #000000"/>
     <use xlink:href="#m3494793f85" x="242.994208" y="288.18812" style="stroke: #000000"/>
     <use xlink:href="#m3494793f85" x="250.492632" y="284.994942" style="stroke: #000000"/>
     <use xlink:href="#m3494793f85" x="257.762949" y="281.190403" style="stroke: #000000"/>
     <use xlink:href="#m3494793f85" x="264.755146" y="276.790777" style="stroke: #000000"/>
     <use xlink:href="#m3494793f85" x="271.420375" y="271.816444" style="stroke: #000000"/>
     <use xlink:href="#m3494793f85" x="277.711283" y="266.291799" style="stroke: #000000"/>
     <use xlink:href="#m3494793f85" x="283.582351" y="260.245148" style="stroke: #000000"/>
     <use xlink:href="#m3494793f85" x="288.990211" y="253.708568" style="stroke: #000000"/>
     <use xlink:href="#m3494793f85" x="293.893961" y="246.717737" style="stroke: #000000"/>
     <use xlink:href="#m3494793f85" x="298.255467" y="239.311751" style="stroke: #000000"/>
     <use xlink:href="#m3494793f85" x="302.039642" y="231.532903" style="stroke: #000000"/>
     <use xlink:href="#m3494793f85" x="305.21472" y="223.426445" style="stroke: #000000"/>
     <use xlink:href="#m3494793f85" x="307.752499" y="215.040324" style="stroke: #000000"/>
     <use xlink:href="#m3494793f85" x="309.628575" y="206.424903" style="stroke: #000000"/>
     <use xlink:href="#m3494793f85" x="310.822543" y="197.632657" style="stroke: #000000"/>
     <use xlink:href="#m3494793f85" x="311.318182" y="188.717853" style="stroke: #000000"/>
     <use xlink:href="#m3494793f85" x="311.103606" y="179.736215" style="stroke: #000000"/>
     <use xlink:href="#m3494793f85" x="310.171398" y="170.744578" style="stroke: #000000"/>
     <use xlink:href="#m3494793f85" x="308.518707" y="161.800524" style="stroke: #000000"/>
     <use xlink:href="#m3494793f85" x="306.147321" y="152.96202" style="stroke: #000000"/>
     <use xlink:href="#m3494793f85" x="303.063711" y="144.287035" style="stroke: #000000"/>
     <use xlink:href="#m3494793f85" x="299.279037" y="135.833168" style="stroke: #000000"/>
     <use xlink:href="#m3494793f85" x="294.809133" y="127.657262" style="stroke: #000000"/>
     <use xlink:href="#m3494793f85" x="289.674457" y="119.815028" style="stroke: #000000"/>
     <use xlink:href="#m3494793f85" x="283.900006" y="112.360665" style="stroke: #000000"/>
     <use xlink:href="#m3494793f85" x="277.515205" y="105.346489" style="stroke: #000000"/>
     <use xlink:href="#m3494793f85" x="270.553768" y="98.822573" style="stroke: #000000"/>
     <use xlink:href="#m3494793f85" x="263.05352" y="92.836393" style="stroke: #000000"/>
     <use xlink:href="#m3494793f85" x="255.0562" y="87.432492" style="stroke: #000000"/>
     <use xlink:href="#m3494793f85" x="246.60723" y="82.652155" style="stroke: #000000"/>
     <use xlink:href="#m3494793f85" x="237.755462" y="78.533105" style="stroke: #000000"/>
     <use xlink:href="#m3494793f85" x="228.552893" y="75.109221" style="stroke: #000000"/>
     <use xlink:href="#m3494793f85" x="219.054364" y="72.410272" style="stroke: #000000"/>
     <use xlink:href="#m3494793f85" x="209.317234" y="70.461681" style="stroke: #000000"/>
     <use xlink:href="#m3494793f85" x="199.40103" y="69.284312" style="stroke: #000000"/>
     <use xlink:href="#m3494793f85" x="189.367089" y="68.894289" style="stroke: #000000"/>
     <use xlink:href="#m3494793f85" x="179.278174" y="69.302837" style="stroke: #000000"/>
     <use xlink:href="#m3494793f85" x="169.198083" y="70.516157" style="stroke: #000000"/>
     <use xlink:href="#m3494793f85" x="159.191247" y="72.535337" style="stroke: #000000"/>
     <use xlink:href="#m3494793f85" x="149.322315" y="75.356289" style="stroke: #000000"/>
     <use xlink:href="#m3494793f85" x="139.655742" y="78.969719" style="stroke: #000000"/>
     <use xlink:href="#m3494793f85" x="130.255364" y="83.361139" style="stroke: #000000"/>
     <use xlink:href="#m3494793f85" x="121.183979" y="88.510902" style="stroke: #000000"/>
     <use xlink:href="#m3494793f85" x="112.502933" y="94.39428" style="stroke: #000000"/>
     <use xlink:href="#m3494793f85" x="104.271702" y="100.98157" style="stroke: #000000"/>
     <use xlink:href="#m3494793f85" x="96.547493" y="108.238238" style="stroke: #000000"/>
     <use xlink:href="#m3494793f85" x="89.384848" y="116.125091" style="stroke: #000000"/>
     <use xlink:href="#m3494793f85" x="82.835263" y="124.598486" style="stroke: #000000"/>
     <use xlink:href="#m3494793f85" x="76.94683" y="133.610567" style="stroke: #000000"/>
     <use xlink:href="#m3494793f85" x="71.763885" y="143.109531" style="stroke: #000000"/>
     <use xlink:href="#m3494793f85" x="67.326688" y="153.039925" style="stroke: #000000"/>
     <use xlink:href="#m3494793f85" x="63.671123" y="163.342971" style="stroke: #000000"/>
     <use xlink:href="#m3494793f85" x="60.828421" y="173.956906" style="stroke: #000000"/>
     <use xlink:href="#m3494793f85" x="58.824914" y="184.817359" style="stroke: #000000"/>
     <use xlink:href="#m3494793f85" x="57.681818" y="195.857737" style="stroke: #000000"/>
    </g>
   </g>
  </g>
 </g>
 <defs>
  <clipPath id="pef00a33c82">
   <rect x="45" y="57.603718" width="279" height="248.392564"/>
  </clipPath>
 </defs>
</svg>
