<?xml version="1.0" encoding="utf-8" standalone="no"?>
<!DOCTYPE svg PUBLIC "-//W3C//DTD SVG 1.1//EN"
  "http://www.w3.org/Graphics/SVG/1.1/DTD/svg11.dtd">
<svg xmlns:xlink="http://www.w3.org/1999/xlink" width="360pt" height="360pt" viewBox="0 0 360 360" xmlns="http://www.w3.org/2000/svg" version="1.1">
 <metadata>
  <rdf:RDF xmlns:dc="http://purl.org/dc/elements/1.1/" xmlns:cc="http://creativecommons.org/ns#" xmlns:rdf="http://www.w3.org/1999/02/22-rdf-syntax-ns#">
   <cc:Work>
    <dc:type rdf:resource="http://purl.org/dc/dcmitype/StillImage"/>
    <dc:date>2025-02-20T11:59:21.137683</dc:date>
    <dc:format>image/svg+xml</dc:format>
    <dc:creator>
     <cc:Agent>
      <dc:title>Matplotlib v3.10.0, https://matplotlib.org/</dc:title>
     </cc:Agent>
    </dc:creator>
   </cc:Work>
  </rdf:RDF>
 </metadata>
 <defs>
  <style type="text/css">*{stroke-linejoin: round; stroke-linecap: butt}</style>
 </defs>
 <g id="figure_1">
  <g id="patch_1">
   <path d="M 0 360 
L 360 360 
L 360 0 
L 0 0 
z
" style="fill: #ffffff"/>
  </g>
  <g id="axes_1">
   <g id="line2d_1">
    <path d="M 199.945411 196.29725 
L 199.002885 195.599642 
M 200.590583 195.431548 
L 199.945411 196.29725 
M 199.945427 194.972466 
L 199.002885 195.599642 
M 199.945427 194.972466 
L 200.590583 195.431548 
M 202.143617 196.099035 
L 199.945411 196.29725 
M 202.143617 196.099035 
L 200.590583 195.431548 
M 202.124201 194.368368 
L 200.590583 195.431548 
M 202.124201 194.368368 
L 199.945427 194.972466 
M 202.124201 194.368368 
L 202.143617 196.099035 
M 202.284278 194.125712 
L 199.945427 194.972466 
M 202.284278 194.125712 
L 202.124201 194.368368 
M 203.904689 193.749482 
L 202.143617 196.099035 
M 203.904689 193.749482 
L 202.124201 194.368368 
M 203.904689 193.749482 
L 202.284278 194.125712 
M 202.528705 191.294429 
L 199.945427 194.972466 
M 202.528705 191.294429 
L 202.284278 194.125712 
M 203.713639 192.900089 
L 202.284278 194.125712 
M 203.713639 192.900089 
L 203.904689 193.749482 
M 203.713639 192.900089 
L 202.528705 191.294429 
M 203.649643 190.426804 
L 203.904689 193.749482 
M 203.649643 190.426804 
L 202.528705 191.294429 
M 203.649643 190.426804 
L 203.713639 192.900089 
M 203.52699 190.204525 
L 202.528705 191.294429 
M 203.52699 190.204525 
L 203.649643 190.426804 
M 203.780229 188.374286 
L 203.649643 190.426804 
M 203.780229 188.374286 
L 203.52699 190.204525 
M 204.36013 186.790236 
L 203.649643 190.426804 
M 204.36013 186.790236 
L 203.780229 188.374286 
M 203.97676 186.661905 
L 203.780229 188.374286 
M 203.97676 186.661905 
L 204.36013 186.790236 
M 201.41167 186.990931 
L 199.945427 194.972466 
M 201.41167 186.990931 
L 202.528705 191.294429 
M 201.41167 186.990931 
L 203.52699 190.204525 
M 201.41167 186.990931 
L 203.780229 188.374286 
M 201.41167 186.990931 
L 203.97676 186.661905 
M 201.907986 186.04682 
L 203.97676 186.661905 
M 201.907986 186.04682 
L 201.41167 186.990931 
M 200.745884 184.105048 
L 201.41167 186.990931 
M 201.336998 184.91008 
L 203.97676 186.661905 
M 201.336998 184.91008 
L 201.41167 186.990931 
M 201.336998 184.91008 
L 201.907986 186.04682 
M 201.336998 184.91008 
L 200.745884 184.105048 
M 201.023842 182.824879 
L 204.36013 186.790236 
M 201.023842 182.824879 
L 203.97676 186.661905 
M 201.023842 182.824879 
L 200.745884 184.105048 
M 201.023842 182.824879 
L 201.336998 184.91008 
M 198.244383 182.214181 
L 201.41167 186.990931 
M 198.244383 182.214181 
L 200.745884 184.105048 
M 198.244383 182.214181 
L 201.023842 182.824879 
M 197.160685 181.233263 
L 201.023842 182.824879 
M 197.160685 181.233263 
L 198.244383 182.214181 
M 196.504595 180.592563 
L 201.023842 182.824879 
M 196.504595 180.592563 
L 197.160685 181.233263 
M 194.710725 181.815579 
L 201.41167 186.990931 
M 194.710725 181.815579 
L 198.244383 182.214181 
M 194.710725 181.815579 
L 197.160685 181.233263 
M 194.710725 181.815579 
L 196.504595 180.592563 
M 193.406541 179.786849 
L 196.504595 180.592563 
M 193.406541 179.786849 
L 194.710725 181.815579 
M 191.277657 179.366585 
L 193.406541 179.786849 
M 190.955642 179.780744 
L 194.710725 181.815579 
M 190.955642 179.780744 
L 193.406541 179.786849 
M 190.955642 179.780744 
L 191.277657 179.366585 
M 188.438227 181.027119 
L 194.710725 181.815579 
M 188.438227 181.027119 
L 190.955642 179.780744 
M 187.499702 180.954872 
L 188.438227 181.027119 
M 186.365399 180.008595 
L 191.277657 179.366585 
M 186.365399 180.008595 
L 190.955642 179.780744 
M 186.365399 180.008595 
L 188.438227 181.027119 
M 186.365399 180.008595 
L 187.499702 180.954872 
M 183.49752 180.551198 
L 187.499702 180.954872 
M 183.49752 180.551198 
L 186.365399 180.008595 
M 181.581955 180.130673 
L 186.365399 180.008595 
M 181.581955 180.130673 
L 183.49752 180.551198 
M 179.533686 182.201291 
L 183.49752 180.551198 
M 179.533686 182.201291 
L 181.581955 180.130673 
M 177.364998 183.533797 
L 181.581955 180.130673 
M 177.364998 183.533797 
L 179.533686 182.201291 
M 178.698834 185.755207 
L 187.499702 180.954872 
M 178.698834 185.755207 
L 183.49752 180.551198 
M 178.698834 185.755207 
L 179.533686 182.201291 
M 178.698834 185.755207 
L 177.364998 183.533797 
M 175.162514 187.479716 
L 177.364998 183.533797 
M 175.162514 187.479716 
L 178.698834 185.755207 
M 174.965846 188.261392 
L 178.698834 185.755207 
M 174.965846 188.261392 
L 175.162514 187.479716 
M 172.023105 190.312731 
L 177.364998 183.533797 
M 172.023105 190.312731 
L 175.162514 187.479716 
M 172.023105 190.312731 
L 174.965846 188.261392 
M 172.309781 191.776009 
L 174.965846 188.261392 
M 172.309781 191.776009 
L 172.023105 190.312731 
M 170.735938 193.853375 
L 172.023105 190.312731 
M 170.735938 193.853375 
L 172.309781 191.776009 
M 169.460802 195.887425 
L 170.735938 193.853375 
M 170.315101 198.338214 
L 172.309781 191.776009 
M 170.315101 198.338214 
L 170.735938 193.853375 
M 170.315101 198.338214 
L 169.460802 195.887425 
M 168.502346 200.750565 
L 169.460802 195.887425 
M 168.502346 200.750565 
L 170.315101 198.338214 
M 170.65453 203.448033 
L 170.315101 198.338214 
M 170.65453 203.448033 
L 168.502346 200.750565 
M 171.156352 205.346644 
L 170.65453 203.448033 
M 169.428077 208.096871 
L 168.502346 200.750565 
M 169.428077 208.096871 
L 170.65453 203.448033 
M 169.428077 208.096871 
L 171.156352 205.346644 
M 170.233269 210.936486 
L 171.156352 205.346644 
M 170.233269 210.936486 
L 169.428077 208.096871 
M 170.60651 213.706873 
L 170.233269 210.936486 
M 172.383194 216.140996 
L 171.156352 205.346644 
M 172.383194 216.140996 
L 170.233269 210.936486 
M 172.383194 216.140996 
L 170.60651 213.706873 
M 173.584787 219.239051 
L 170.60651 213.706873 
M 173.584787 219.239051 
L 172.383194 216.140996 
M 176.372452 222.125359 
L 172.383194 216.140996 
M 176.372452 222.125359 
L 173.584787 219.239051 
M 176.08061 225.004129 
L 173.584787 219.239051 
M 176.08061 225.004129 
L 176.372452 222.125359 
M 177.688266 227.157954 
L 176.372452 222.125359 
M 177.688266 227.157954 
L 176.08061 225.004129 
M 179.659529 229.294691 
L 176.372452 222.125359 
M 179.659529 229.294691 
L 177.688266 227.157954 
M 181.025878 230.478358 
L 179.659529 229.294691 
M 183.980436 231.59859 
L 176.372452 222.125359 
M 183.980436 231.59859 
L 179.659529 229.294691 
M 183.980436 231.59859 
L 181.025878 230.478358 
M 186.10527 234.343254 
L 181.025878 230.478358 
M 186.10527 234.343254 
L 183.980436 231.59859 
M 192.062683 235.517235 
L 183.980436 231.59859 
M 192.062683 235.517235 
L 186.10527 234.343254 
M 191.699937 237.001063 
L 186.10527 234.343254 
M 191.699937 237.001063 
L 192.062683 235.517235 
M 195.209405 237.704151 
L 192.062683 235.517235 
M 195.209405 237.704151 
L 191.699937 237.001063 
M 199.928189 236.40705 
L 192.062683 235.517235 
M 199.928189 236.40705 
L 195.209405 237.704151 
M 202.683243 238.177645 
L 195.209405 237.704151 
M 202.683243 238.177645 
L 199.928189 236.40705 
M 206.227903 238.071616 
L 199.928189 236.40705 
M 206.227903 238.071616 
L 202.683243 238.177645 
M 210.451812 238.859419 
L 206.227903 238.071616 
M 214.079229 238.031715 
L 206.227903 238.071616 
M 214.079229 238.031715 
L 210.451812 238.859419 
M 217.667897 237.295011 
L 214.079229 238.031715 
M 220.803381 237.275145 
L 217.667897 237.295011 
M 223.547665 234.581022 
L 217.667897 237.295011 
M 223.547665 234.581022 
L 220.803381 237.275145 
M 228.572765 233.290328 
L 220.803381 237.275145 
M 228.572765 233.290328 
L 223.547665 234.581022 
M 230.696009 231.233577 
L 223.547665 234.581022 
M 230.696009 231.233577 
L 228.572765 233.290328 
M 234.636999 229.878983 
L 228.572765 233.290328 
M 234.636999 229.878983 
L 230.696009 231.233577 
M 238.255491 228.330711 
L 234.636999 229.878983 
M 241.292654 224.81808 
L 234.636999 229.878983 
M 241.292654 224.81808 
L 238.255491 228.330711 
M 243.374962 220.94771 
L 241.292654 224.81808 
M 246.17412 217.555947 
L 243.374962 220.94771 
M 247.951508 215.24146 
L 246.17412 217.555947 
M 249.556491 209.180427 
L 246.17412 217.555947 
M 249.556491 209.180427 
L 247.951508 215.24146 
M 252.729902 206.675762 
L 247.951508 215.24146 
M 252.729902 206.675762 
L 249.556491 209.180427 
M 252.659954 204.262 
L 249.556491 209.180427 
M 252.659954 204.262 
L 252.729902 206.675762 
M 254.167697 199.122315 
L 252.729902 206.675762 
M 254.167697 199.122315 
L 252.659954 204.262 
M 255.400306 193.153476 
L 254.167697 199.122315 
M 255.121052 190.502127 
L 255.400306 193.153476 
M 255.638261 186.459927 
L 255.121052 190.502127 
M 256.20522 180.67122 
L 255.638261 186.459927 
M 253.5921 174.63774 
L 255.638261 186.459927 
M 253.5921 174.63774 
L 256.20522 180.67122 
M 254.041731 171.11826 
L 256.20522 180.67122 
M 254.041731 171.11826 
L 253.5921 174.63774 
M 249.789423 167.324722 
L 253.5921 174.63774 
M 249.789423 167.324722 
L 254.041731 171.11826 
M 248.979094 162.878733 
L 254.041731 171.11826 
M 248.979094 162.878733 
L 249.789423 167.324722 
M 246.725717 157.386708 
L 248.979094 162.878733 
M 244.721084 154.578648 
L 246.725717 157.386708 
M 242.567741 148.644964 
L 244.721084 154.578648 
M 239.974832 144.539202 
L 242.567741 148.644964 
M 235.490623 142.278341 
L 242.567741 148.644964 
M 235.490623 142.278341 
L 239.974832 144.539202 
M 229.615661 138.048792 
L 235.490623 142.278341 
M 226.807648 136.50846 
L 229.615661 138.048792 
M 221.623685 133.865454 
L 226.807648 136.50846 
M 217.431449 129.66613 
L 221.623685 133.865454 
M 212.329722 130.698357 
L 221.623685 133.865454 
M 212.329722 130.698357 
L 217.431449 129.66613 
M 206.773034 127.893409 
L 217.431449 129.66613 
M 206.773034 127.893409 
L 212.329722 130.698357 
M 200.407502 126.631931 
L 206.773034 127.893409 
M 195.899383 125.633882 
L 200.407502 126.631931 
M 189.746242 125.652733 
L 195.899383 125.633882 
M 186.651071 125.615244 
L 189.746242 125.652733 
M 179.747132 125.67512 
L 186.651071 125.615244 
M 174.513196 127.108738 
L 179.747132 125.67512 
M 167.970142 130.180653 
L 174.513196 127.108738 
M 161.741518 131.927885 
L 167.970142 130.180653 
M 157.262985 134.363213 
L 161.741518 131.927885 
M 150.932157 136.204752 
L 157.262985 134.363213 
M 145.462014 139.323193 
L 150.932157 136.204752 
M 141.455579 144.268986 
L 145.462014 139.323193 
M 137.136885 147.255748 
L 141.455579 144.268986 
M 132.768109 151.899683 
L 137.136885 147.255748 
M 129.942676 157.930871 
L 132.768109 151.899683 
M 126.058897 162.808842 
L 129.942676 157.930871 
M 120.754698 169.044339 
L 126.058897 162.808842 
M 120.382281 174.860753 
L 126.058897 162.808842 
M 120.382281 174.860753 
L 120.754698 169.044339 
M 116.74387 181.097554 
L 120.754698 169.044339 
M 116.74387 181.097554 
L 120.382281 174.860753 
M 116.708611 185.871264 
L 120.382281 174.860753 
M 116.708611 185.871264 
L 116.74387 181.097554 
M 114.607768 192.2605 
L 116.708611 185.871264 
M 114.608334 200.045724 
L 114.607768 192.2605 
M 114.355118 205.748394 
L 114.608334 200.045724 
M 113.063126 214.421181 
L 114.355118 205.748394 
M 116.095034 220.86377 
L 114.355118 205.748394 
M 116.095034 220.86377 
L 113.063126 214.421181 
M 119.26368 225.729756 
L 116.095034 220.86377 
M 119.88056 233.902647 
L 116.095034 220.86377 
M 119.88056 233.902647 
L 119.26368 225.729756 
M 121.479293 239.10355 
L 119.88056 233.902647 
M 125.317578 246.561115 
L 121.479293 239.10355 
M 127.42128 252.39608 
L 121.479293 239.10355 
M 127.42128 252.39608 
L 125.317578 246.561115 
M 133.451436 259.84635 
L 127.42128 252.39608 
M 136.452455 263.057136 
L 133.451436 259.84635 
M 142.895205 268.614862 
L 136.452455 263.057136 
M 146.011661 272.236354 
L 136.452455 263.057136 
M 146.011661 272.236354 
L 142.895205 268.614862 
M 153.39949 278.969708 
L 146.011661 272.236354 
M 161.388796 281.570428 
L 153.39949 278.969708 
M 167.416758 284.76367 
L 153.39949 278.969708 
M 167.416758 284.76367 
L 161.388796 281.570428 
M 174.479357 289.191594 
L 153.39949 278.969708 
M 174.479357 289.191594 
L 167.416758 284.76367 
M 182.054802 290.226291 
L 174.479357 289.191594 
M 188.269022 294.021431 
L 174.479357 289.191594 
M 188.269022 294.021431 
L 182.054802 290.226291 
M 195.057131 294.063924 
L 182.054802 290.226291 
M 195.057131 294.063924 
L 188.269022 294.021431 
M 203.506161 293.191885 
L 195.057131 294.063924 
M 210.433692 295.02301 
L 188.269022 294.021431 
M 210.433692 295.02301 
L 195.057131 294.063924 
M 210.433692 295.02301 
L 203.506161 293.191885 
M 219.554774 293.151308 
L 210.433692 295.02301 
M 225.800228 293.72637 
L 210.433692 295.02301 
M 225.800228 293.72637 
L 219.554774 293.151308 
M 234.978473 289.801008 
L 225.800228 293.72637 
M 243.473268 289.170121 
L 225.800228 293.72637 
M 243.473268 289.170121 
L 234.978473 289.801008 
M 250.881765 285.21579 
L 243.473268 289.170121 
M 257.274978 281.643833 
L 250.881765 285.21579 
M 265.793365 275.678892 
L 257.274978 281.643833 
M 271.580677 270.318481 
L 265.793365 275.678892 
M 277.410666 266.579351 
L 265.793365 275.678892 
M 277.410666 266.579351 
L 271.580677 270.318481 
M 283.377929 259.320993 
L 277.410666 266.579351 
M 288.806135 253.534356 
L 277.410666 266.579351 
M 288.806135 253.534356 
L 283.377929 259.320993 
M 293.015602 246.300328 
L 288.806135 253.534356 
M 299.774507 239.130574 
L 288.806135 253.534356 
M 299.774507 239.130574 
L 293.015602 246.300328 
M 301.321953 231.478942 
L 299.774507 239.130574 
M 304.01469 223.135541 
L 299.774507 239.130574 
M 304.01469 223.135541 
L 301.321953 231.478942 
M 307.405476 214.485125 
L 299.774507 239.130574 
M 307.405476 214.485125 
L 304.01469 223.135541 
M 310.807899 207.085584 
L 299.774507 239.130574 
M 310.807899 207.085584 
L 307.405476 214.485125 
M 309.634837 197.207222 
L 310.807899 207.085584 
M 311.318182 190.661044 
L 310.807899 207.085584 
M 311.318182 190.661044 
L 309.634837 197.207222 
M 310.124217 179.280842 
L 311.318182 190.661044 
M 309.482667 170.697998 
L 311.318182 190.661044 
M 309.482667 170.697998 
L 310.124217 179.280842 
M 307.736314 161.552791 
L 309.482667 170.697998 
M 306.559064 151.966727 
L 309.482667 170.697998 
M 306.559064 151.966727 
L 307.736314 161.552791 
M 303.464714 145.700358 
L 306.559064 151.966727 
M 298.269242 134.317772 
L 306.559064 151.966727 
M 298.269242 134.317772 
L 303.464714 145.700358 
M 293.954371 127.154774 
L 298.269242 134.317772 
M 290.501128 121.177 
L 298.269242 134.317772 
M 290.501128 121.177 
L 293.954371 127.154774 
M 284.237041 112.44109 
L 290.501128 121.177 
M 277.666436 104.397898 
L 284.237041 112.44109 
M 271.996312 97.844713 
L 277.666436 104.397898 
M 261.567451 93.162664 
L 271.996312 97.844713 
M 255.399846 86.495169 
L 271.996312 97.844713 
M 255.399846 86.495169 
L 261.567451 93.162664 
M 246.405922 84.236656 
L 255.399846 86.495169 
M 238.279949 77.62512 
L 255.399846 86.495169 
M 238.279949 77.62512 
L 246.405922 84.236656 
M 228.142323 76.085766 
L 238.279949 77.62512 
M 219.255346 74.612657 
L 228.142323 76.085766 
M 210.419154 71.919711 
L 238.279949 77.62512 
M 210.419154 71.919711 
L 228.142323 76.085766 
M 210.419154 71.919711 
L 219.255346 74.612657 
M 200.731178 69.722703 
L 238.279949 77.62512 
M 200.731178 69.722703 
L 210.419154 71.919711 
M 189.144015 68.57699 
L 200.731178 69.722703 
M 180.652468 70.293676 
L 189.144015 68.57699 
M 169.022921 70.970799 
L 189.144015 68.57699 
M 169.022921 70.970799 
L 180.652468 70.293676 
M 159.811789 72.050452 
L 189.144015 68.57699 
M 159.811789 72.050452 
L 169.022921 70.970799 
M 149.36979 75.030223 
L 159.811789 72.050452 
M 140.262068 77.908725 
L 149.36979 75.030223 
M 130.7678 83.746637 
L 140.262068 77.908725 
M 121.897654 87.537156 
L 140.262068 77.908725 
M 121.897654 87.537156 
L 130.7678 83.746637 
M 112.941018 94.430274 
L 121.897654 87.537156 
M 103.836349 101.557514 
L 112.941018 94.430274 
M 96.115053 109.35478 
L 103.836349 101.557514 
M 90.232044 117.541786 
L 96.115053 109.35478 
M 83.25291 124.71494 
L 96.115053 109.35478 
M 83.25291 124.71494 
L 90.232044 117.541786 
M 77.001564 134.886673 
L 83.25291 124.71494 
M 72.284138 143.226495 
L 77.001564 134.886673 
M 67.953986 152.949144 
L 72.284138 143.226495 
M 65.009287 163.793964 
L 67.953986 152.949144 
M 62.441169 174.524272 
L 65.009287 163.793964 
M 57.681818 183.281152 
L 67.953986 152.949144 
M 57.681818 183.281152 
L 65.009287 163.793964 
M 57.681818 183.281152 
L 62.441169 174.524272 
M 59.277768 196.97013 
L 119.88056 233.902647 
M 59.277768 196.97013 
L 121.479293 239.10355 
M 59.277768 196.97013 
L 127.42128 252.39608 
M 59.277768 196.97013 
L 133.451436 259.84635 
M 59.277768 196.97013 
L 136.452455 263.057136 
M 59.277768 196.97013 
L 146.011661 272.236354 
M 59.277768 196.97013 
L 153.39949 278.969708 
M 59.277768 196.97013 
L 57.681818 183.281152 
M 199.455931 195.599642 
L 199.002885 195.599642 
M 199.455931 195.599642 
L 199.945411 196.29725 
M 199.455931 195.599642 
L 200.590583 195.431548 
M 199.455931 195.599642 
L 199.945427 194.972466 
M 198.237239 195.794278 
L 199.002885 195.599642 
M 198.237239 195.794278 
L 199.945411 196.29725 
M 198.237239 195.794278 
L 199.945427 194.972466 
M 197.145687 195.784966 
L 199.945427 194.972466 
M 197.145687 195.784966 
L 201.41167 186.990931 
M 197.145687 195.784966 
L 194.710725 181.815579 
M 197.145687 195.784966 
L 196.677907 196.388175 
M 197.145687 195.784966 
L 198.237239 195.794278 
M 197.129207 197.534445 
L 199.945411 196.29725 
M 197.129207 197.534445 
L 196.677907 196.388175 
M 197.129207 197.534445 
L 198.237239 195.794278 
M 197.129207 197.534445 
L 197.145687 195.784966 
M 196.210839 196.593128 
L 196.677907 196.388175 
M 196.210839 196.593128 
L 197.145687 195.784966 
M 196.210839 196.593128 
L 197.129207 197.534445 
M 195.67042 197.297744 
L 197.129207 197.534445 
M 195.67042 197.297744 
L 196.210839 196.593128 
M 195.789129 198.016444 
L 197.129207 197.534445 
M 195.789129 198.016444 
L 195.67042 197.297744 
M 192.998684 196.792054 
L 194.710725 181.815579 
M 192.998684 196.792054 
L 188.438227 181.027119 
M 192.998684 196.792054 
L 187.499702 180.954872 
M 192.998684 196.792054 
L 178.698834 185.755207 
M 192.998684 196.792054 
L 174.965846 188.261392 
M 192.998684 196.792054 
L 172.309781 191.776009 
M 192.998684 196.792054 
L 170.315101 198.338214 
M 192.998684 196.792054 
L 197.145687 195.784966 
M 192.998684 196.792054 
L 196.210839 196.593128 
M 192.998684 196.792054 
L 195.67042 197.297744 
M 195.166242 199.750625 
L 195.789129 198.016444 
M 194.831046 198.73757 
L 195.67042 197.297744 
M 194.831046 198.73757 
L 195.789129 198.016444 
M 194.831046 198.73757 
L 192.998684 196.792054 
M 194.831046 198.73757 
L 195.166242 199.750625 
M 195.428422 200.066587 
L 199.945411 196.29725 
M 195.428422 200.066587 
L 197.129207 197.534445 
M 195.428422 200.066587 
L 195.789129 198.016444 
M 195.428422 200.066587 
L 195.166242 199.750625 
M 193.082313 199.861276 
L 192.998684 196.792054 
M 193.082313 199.861276 
L 194.831046 198.73757 
M 194.145821 199.957316 
L 195.166242 199.750625 
M 194.145821 199.957316 
L 194.831046 198.73757 
M 194.145821 199.957316 
L 195.428422 200.066587 
M 194.145821 199.957316 
L 193.082313 199.861276 
M 192.640676 201.544891 
L 170.315101 198.338214 
M 192.640676 201.544891 
L 170.65453 203.448033 
M 192.640676 201.544891 
L 171.156352 205.346644 
M 192.640676 201.544891 
L 192.998684 196.792054 
M 192.640676 201.544891 
L 193.082313 199.861276 
M 192.640676 201.544891 
L 194.145821 199.957316 
M 194.280903 203.605577 
L 195.428422 200.066587 
M 194.280903 203.605577 
L 194.145821 199.957316 
M 194.280903 203.605577 
L 192.640676 201.544891 
M 193.640985 204.388278 
L 192.640676 201.544891 
M 193.640985 204.388278 
L 194.280903 203.605577 
M 194.155222 204.147506 
L 194.280903 203.605577 
M 194.155222 204.147506 
L 193.640985 204.388278 
M 193.68754 206.606576 
L 171.156352 205.346644 
M 193.68754 206.606576 
L 172.383194 216.140996 
M 193.68754 206.606576 
L 176.372452 222.125359 
M 193.68754 206.606576 
L 192.640676 201.544891 
M 193.68754 206.606576 
L 193.640985 204.388278 
M 193.68754 206.606576 
L 194.155222 204.147506 
M 195.824931 206.107307 
L 199.945411 196.29725 
M 195.824931 206.107307 
L 202.143617 196.099035 
M 195.824931 206.107307 
L 195.428422 200.066587 
M 195.824931 206.107307 
L 194.280903 203.605577 
M 195.824931 206.107307 
L 194.155222 204.147506 
M 195.824931 206.107307 
L 193.68754 206.606576 
M 194.815569 206.993473 
L 193.68754 206.606576 
M 194.815569 206.993473 
L 195.824931 206.107307 
M 195.341786 207.399765 
L 195.824931 206.107307 
M 195.341786 207.399765 
L 194.815569 206.993473 
M 194.917197 208.016588 
L 193.68754 206.606576 
M 194.917197 208.016588 
L 194.815569 206.993473 
M 194.917197 208.016588 
L 195.341786 207.399765 
M 195.795344 210.348142 
L 176.372452 222.125359 
M 195.795344 210.348142 
L 183.980436 231.59859 
M 195.795344 210.348142 
L 193.68754 206.606576 
M 195.795344 210.348142 
L 194.917197 208.016588 
M 196.674085 209.260579 
L 195.824931 206.107307 
M 196.674085 209.260579 
L 195.341786 207.399765 
M 196.674085 209.260579 
L 194.917197 208.016588 
M 196.674085 209.260579 
L 195.795344 210.348142 
M 198.676316 209.596803 
L 195.824931 206.107307 
M 198.676316 209.596803 
L 195.795344 210.348142 
M 198.676316 209.596803 
L 196.674085 209.260579 
M 199.778979 210.566707 
L 198.676316 209.596803 
M 199.985812 212.153415 
L 183.980436 231.59859 
M 199.985812 212.153415 
L 192.062683 235.517235 
M 199.985812 212.153415 
L 199.928189 236.40705 
M 199.985812 212.153415 
L 195.795344 210.348142 
M 199.985812 212.153415 
L 198.676316 209.596803 
M 199.985812 212.153415 
L 199.778979 210.566707 
M 201.940955 212.192962 
L 199.928189 236.40705 
M 201.940955 212.192962 
L 199.985812 212.153415 
M 203.455323 211.118482 
L 201.940955 212.192962 
M 201.799464 211.283222 
L 199.778979 210.566707 
M 201.799464 211.283222 
L 199.985812 212.153415 
M 201.799464 211.283222 
L 201.940955 212.192962 
M 201.799464 211.283222 
L 203.455323 211.118482 
M 204.964571 210.227411 
L 202.143617 196.099035 
M 204.964571 210.227411 
L 195.824931 206.107307 
M 204.964571 210.227411 
L 198.676316 209.596803 
M 204.964571 210.227411 
L 199.778979 210.566707 
M 204.964571 210.227411 
L 203.455323 211.118482 
M 204.964571 210.227411 
L 201.799464 211.283222 
M 206.189204 211.399549 
L 201.940955 212.192962 
M 206.189204 211.399549 
L 203.455323 211.118482 
M 206.189204 211.399549 
L 204.964571 210.227411 
M 207.05442 211.566685 
L 201.940955 212.192962 
M 207.05442 211.566685 
L 204.964571 210.227411 
M 207.05442 211.566685 
L 206.189204 211.399549 
M 210.048027 212.354271 
L 214.079229 238.031715 
M 210.048027 212.354271 
L 217.667897 237.295011 
M 210.048027 212.354271 
L 223.547665 234.581022 
M 209.816289 212.377119 
L 199.928189 236.40705 
M 209.816289 212.377119 
L 206.227903 238.071616 
M 209.816289 212.377119 
L 214.079229 238.031715 
M 209.816289 212.377119 
L 201.940955 212.192962 
M 209.816289 212.377119 
L 207.05442 211.566685 
M 209.816289 212.377119 
L 210.048027 212.354271 
M 211.174367 211.192129 
L 202.143617 196.099035 
M 211.174367 211.192129 
L 204.964571 210.227411 
M 211.174367 211.192129 
L 207.05442 211.566685 
M 211.174367 211.192129 
L 210.048027 212.354271 
M 211.174367 211.192129 
L 209.816289 212.377119 
M 212.489071 211.016851 
L 223.547665 234.581022 
M 212.489071 211.016851 
L 210.048027 212.354271 
M 212.489071 211.016851 
L 211.174367 211.192129 
M 214.372914 210.000835 
L 202.143617 196.099035 
M 214.372914 210.000835 
L 223.547665 234.581022 
M 214.372914 210.000835 
L 211.174367 211.192129 
M 214.372914 210.000835 
L 212.489071 211.016851 
M 215.904915 209.355705 
L 223.547665 234.581022 
M 215.904915 209.355705 
L 230.696009 231.233577 
M 215.904915 209.355705 
L 214.372914 210.000835 
M 216.816454 208.43569 
L 230.696009 231.233577 
M 216.816454 208.43569 
L 214.372914 210.000835 
M 216.816454 208.43569 
L 215.904915 209.355705 
M 217.521613 207.714585 
L 202.143617 196.099035 
M 217.521613 207.714585 
L 203.904689 193.749482 
M 217.521613 207.714585 
L 214.372914 210.000835 
M 217.521613 207.714585 
L 216.816454 208.43569 
M 218.914033 206.752981 
L 203.904689 193.749482 
M 218.914033 206.752981 
L 216.816454 208.43569 
M 218.914033 206.752981 
L 217.521613 207.714585 
M 220.800344 205.892149 
L 230.696009 231.233577 
M 220.800344 205.892149 
L 234.636999 229.878983 
M 220.800344 205.892149 
L 241.292654 224.81808 
M 220.800344 205.892149 
L 243.374962 220.94771 
M 220.800344 205.892149 
L 216.816454 208.43569 
M 220.800344 205.892149 
L 218.914033 206.752981 
M 222.754323 204.067666 
L 243.374962 220.94771 
M 222.754323 204.067666 
L 220.800344 205.892149 
M 222.194289 202.951275 
L 203.904689 193.749482 
M 222.194289 202.951275 
L 218.914033 206.752981 
M 222.194289 202.951275 
L 220.800344 205.892149 
M 222.194289 202.951275 
L 222.754323 204.067666 
M 224.268449 201.803602 
L 222.754323 204.067666 
M 224.268449 201.803602 
L 222.194289 202.951275 
M 226.233748 200.49032 
L 243.374962 220.94771 
M 226.233748 200.49032 
L 246.17412 217.555947 
M 226.233748 200.49032 
L 249.556491 209.180427 
M 226.233748 200.49032 
L 222.754323 204.067666 
M 226.233748 200.49032 
L 224.268449 201.803602 
M 225.362964 198.769959 
L 222.194289 202.951275 
M 225.362964 198.769959 
L 224.268449 201.803602 
M 225.362964 198.769959 
L 226.233748 200.49032 
M 226.125394 197.669385 
L 226.233748 200.49032 
M 226.125394 197.669385 
L 225.362964 198.769959 
M 225.935898 196.340511 
L 203.904689 193.749482 
M 225.935898 196.340511 
L 222.194289 202.951275 
M 225.935898 196.340511 
L 225.362964 198.769959 
M 225.935898 196.340511 
L 226.125394 197.669385 
M 227.286964 195.01587 
L 249.556491 209.180427 
M 227.286964 195.01587 
L 252.659954 204.262 
M 227.286964 195.01587 
L 254.167697 199.122315 
M 227.286964 195.01587 
L 226.233748 200.49032 
M 227.286964 195.01587 
L 226.125394 197.669385 
M 227.286964 195.01587 
L 225.935898 196.340511 
M 227.41918 193.00691 
L 254.167697 199.122315 
M 227.41918 193.00691 
L 255.400306 193.153476 
M 227.41918 193.00691 
L 255.121052 190.502127 
M 227.41918 193.00691 
L 225.935898 196.340511 
M 227.41918 193.00691 
L 227.286964 195.01587 
M 225.975804 191.050673 
L 203.904689 193.749482 
M 225.975804 191.050673 
L 203.649643 190.426804 
M 225.975804 191.050673 
L 204.36013 186.790236 
M 225.975804 191.050673 
L 225.935898 196.340511 
M 225.975804 191.050673 
L 227.41918 193.00691 
M 226.916052 188.240483 
L 204.36013 186.790236 
M 226.916052 188.240483 
L 227.41918 193.00691 
M 226.916052 188.240483 
L 225.975804 191.050673 
M 227.783872 185.495183 
L 255.121052 190.502127 
M 227.783872 185.495183 
L 255.638261 186.459927 
M 227.783872 185.495183 
L 227.41918 193.00691 
M 227.783872 185.495183 
L 226.916052 188.240483 
M 227.898497 184.531546 
L 255.638261 186.459927 
M 227.898497 184.531546 
L 227.783872 185.495183 
M 227.615394 182.182835 
L 204.36013 186.790236 
M 227.615394 182.182835 
L 226.916052 188.240483 
M 227.615394 182.182835 
L 227.783872 185.495183 
M 227.615394 182.182835 
L 227.898497 184.531546 
M 228.005472 180.35723 
L 255.638261 186.459927 
M 228.005472 180.35723 
L 253.5921 174.63774 
M 228.005472 180.35723 
L 249.789423 167.324722 
M 228.005472 180.35723 
L 227.898497 184.531546 
M 228.005472 180.35723 
L 227.615394 182.182835 
M 226.714262 177.990845 
L 204.36013 186.790236 
M 226.714262 177.990845 
L 249.789423 167.324722 
M 226.714262 177.990845 
L 227.615394 182.182835 
M 226.714262 177.990845 
L 228.005472 180.35723 
M 225.541301 173.889783 
L 249.789423 167.324722 
M 225.541301 173.889783 
L 248.979094 162.878733 
M 225.541301 173.889783 
L 226.714262 177.990845 
M 224.755842 173.146136 
L 226.714262 177.990845 
M 224.755842 173.146136 
L 225.541301 173.889783 
M 223.76715 170.838248 
L 248.979094 162.878733 
M 223.76715 170.838248 
L 246.725717 157.386708 
M 223.76715 170.838248 
L 244.721084 154.578648 
M 223.76715 170.838248 
L 225.541301 173.889783 
M 223.76715 170.838248 
L 224.755842 173.146136 
M 220.94786 169.757517 
L 204.36013 186.790236 
M 220.94786 169.757517 
L 201.023842 182.824879 
M 220.94786 169.757517 
L 226.714262 177.990845 
M 220.94786 169.757517 
L 224.755842 173.146136 
M 220.94786 169.757517 
L 223.76715 170.838248 
M 221.222274 167.413652 
L 244.721084 154.578648 
M 221.222274 167.413652 
L 242.567741 148.644964 
M 221.222274 167.413652 
L 223.76715 170.838248 
M 221.222274 167.413652 
L 220.94786 169.757517 
M 219.164613 165.530153 
L 242.567741 148.644964 
M 219.164613 165.530153 
L 235.490623 142.278341 
M 219.164613 165.530153 
L 220.94786 169.757517 
M 219.164613 165.530153 
L 221.222274 167.413652 
M 217.138363 164.747653 
L 201.023842 182.824879 
M 217.138363 164.747653 
L 220.94786 169.757517 
M 217.138363 164.747653 
L 219.164613 165.530153 
M 215.234366 161.687515 
L 235.490623 142.278341 
M 215.234366 161.687515 
L 219.164613 165.530153 
M 215.234366 161.687515 
L 217.138363 164.747653 
M 214.070649 160.437432 
L 235.490623 142.278341 
M 214.070649 160.437432 
L 229.615661 138.048792 
M 214.070649 160.437432 
L 226.807648 136.50846 
M 214.070649 160.437432 
L 215.234366 161.687515 
M 211.818646 158.835373 
L 226.807648 136.50846 
M 211.818646 158.835373 
L 221.623685 133.865454 
M 211.818646 158.835373 
L 214.070649 160.437432 
M 210.845755 158.354371 
L 221.623685 133.865454 
M 210.845755 158.354371 
L 211.818646 158.835373 
M 208.266497 158.100703 
L 201.023842 182.824879 
M 208.266497 158.100703 
L 196.504595 180.592563 
M 208.266497 158.100703 
L 217.138363 164.747653 
M 208.266497 158.100703 
L 215.234366 161.687515 
M 208.266497 158.100703 
L 214.070649 160.437432 
M 208.266497 158.100703 
L 211.818646 158.835373 
M 208.266497 158.100703 
L 210.845755 158.354371 
M 204.39833 156.303056 
L 196.504595 180.592563 
M 204.39833 156.303056 
L 193.406541 179.786849 
M 204.39833 156.303056 
L 208.266497 158.100703 
M 203.696494 154.56463 
L 221.623685 133.865454 
M 203.696494 154.56463 
L 212.329722 130.698357 
M 203.696494 154.56463 
L 210.845755 158.354371 
M 203.696494 154.56463 
L 208.266497 158.100703 
M 203.696494 154.56463 
L 204.39833 156.303056 
M 200.76007 153.71557 
L 212.329722 130.698357 
M 200.76007 153.71557 
L 206.773034 127.893409 
M 200.76007 153.71557 
L 204.39833 156.303056 
M 200.76007 153.71557 
L 203.696494 154.56463 
M 198.133202 154.345559 
L 193.406541 179.786849 
M 198.133202 154.345559 
L 191.277657 179.366585 
M 198.133202 154.345559 
L 204.39833 156.303056 
M 198.133202 154.345559 
L 200.76007 153.71557 
M 194.87999 151.61904 
L 206.773034 127.893409 
M 194.87999 151.61904 
L 200.407502 126.631931 
M 194.87999 151.61904 
L 195.899383 125.633882 
M 194.87999 151.61904 
L 189.746242 125.652733 
M 194.87999 151.61904 
L 200.76007 153.71557 
M 194.87999 151.61904 
L 198.133202 154.345559 
M 190.57741 152.824495 
L 189.746242 125.652733 
M 190.57741 152.824495 
L 186.651071 125.615244 
M 190.57741 152.824495 
L 194.87999 151.61904 
M 190.345623 154.47939 
L 191.277657 179.366585 
M 190.345623 154.47939 
L 186.365399 180.008595 
M 190.345623 154.47939 
L 198.133202 154.345559 
M 190.345623 154.47939 
L 194.87999 151.61904 
M 190.345623 154.47939 
L 190.57741 152.824495 
M 187.632427 153.747291 
L 190.57741 152.824495 
M 187.632427 153.747291 
L 190.345623 154.47939 
M 182.627495 152.502915 
L 186.651071 125.615244 
M 182.627495 152.502915 
L 179.747132 125.67512 
M 182.627495 152.502915 
L 174.513196 127.108738 
M 182.627495 152.502915 
L 167.970142 130.180653 
M 182.627495 152.502915 
L 190.57741 152.824495 
M 182.627495 152.502915 
L 187.632427 153.747291 
M 180.610718 154.868541 
L 186.365399 180.008595 
M 180.610718 154.868541 
L 190.345623 154.47939 
M 180.610718 154.868541 
L 187.632427 153.747291 
M 180.610718 154.868541 
L 182.627495 152.502915 
M 178.158743 156.109291 
L 186.365399 180.008595 
M 178.158743 156.109291 
L 181.581955 180.130673 
M 178.158743 156.109291 
L 180.610718 154.868541 
M 174.38887 155.840952 
L 182.627495 152.502915 
M 174.38887 155.840952 
L 180.610718 154.868541 
M 174.38887 155.840952 
L 178.158743 156.109291 
M 172.565345 155.534859 
L 167.970142 130.180653 
M 172.565345 155.534859 
L 161.741518 131.927885 
M 172.565345 155.534859 
L 157.262985 134.363213 
M 172.565345 155.534859 
L 182.627495 152.502915 
M 172.565345 155.534859 
L 174.38887 155.840952 
M 169.692191 157.917729 
L 157.262985 134.363213 
M 169.692191 157.917729 
L 178.158743 156.109291 
M 169.692191 157.917729 
L 174.38887 155.840952 
M 169.692191 157.917729 
L 172.565345 155.534859 
M 167.126899 160.167988 
L 181.581955 180.130673 
M 167.126899 160.167988 
L 177.364998 183.533797 
M 167.126899 160.167988 
L 157.262985 134.363213 
M 167.126899 160.167988 
L 178.158743 156.109291 
M 167.126899 160.167988 
L 169.692191 157.917729 
M 163.992773 161.872485 
L 177.364998 183.533797 
M 163.992773 161.872485 
L 167.126899 160.167988 
M 160.524221 162.601847 
L 157.262985 134.363213 
M 160.524221 162.601847 
L 150.932157 136.204752 
M 160.524221 162.601847 
L 145.462014 139.323193 
M 160.524221 162.601847 
L 141.455579 144.268986 
M 160.524221 162.601847 
L 167.126899 160.167988 
M 160.524221 162.601847 
L 163.992773 161.872485 
M 158.563214 166.049496 
L 177.364998 183.533797 
M 158.563214 166.049496 
L 163.992773 161.872485 
M 158.563214 166.049496 
L 160.524221 162.601847 
M 157.055109 166.368706 
L 141.455579 144.268986 
M 157.055109 166.368706 
L 160.524221 162.601847 
M 157.055109 166.368706 
L 158.563214 166.049496 
M 154.198263 168.475573 
L 141.455579 144.268986 
M 154.198263 168.475573 
L 137.136885 147.255748 
M 154.198263 168.475573 
L 132.768109 151.899683 
M 154.198263 168.475573 
L 129.942676 157.930871 
M 154.198263 168.475573 
L 158.563214 166.049496 
M 154.198263 168.475573 
L 157.055109 166.368706 
M 152.482918 172.349558 
L 177.364998 183.533797 
M 152.482918 172.349558 
L 129.942676 157.930871 
M 152.482918 172.349558 
L 158.563214 166.049496 
M 152.482918 172.349558 
L 154.198263 168.475573 
M 151.676104 174.139737 
L 177.364998 183.533797 
M 151.676104 174.139737 
L 172.023105 190.312731 
M 151.676104 174.139737 
L 129.942676 157.930871 
M 151.676104 174.139737 
L 152.482918 172.349558 
M 148.201123 178.467113 
L 129.942676 157.930871 
M 148.201123 178.467113 
L 126.058897 162.808842 
M 148.201123 178.467113 
L 151.676104 174.139737 
M 147.166429 181.503572 
L 172.023105 190.312731 
M 147.166429 181.503572 
L 151.676104 174.139737 
M 147.166429 181.503572 
L 148.201123 178.467113 
M 145.900921 182.760175 
L 126.058897 162.808842 
M 145.900921 182.760175 
L 120.382281 174.860753 
M 145.900921 182.760175 
L 148.201123 178.467113 
M 145.900921 182.760175 
L 147.166429 181.503572 
M 146.722009 188.990662 
L 172.023105 190.312731 
M 146.722009 188.990662 
L 170.735938 193.853375 
M 146.722009 188.990662 
L 169.460802 195.887425 
M 146.722009 188.990662 
L 168.502346 200.750565 
M 146.722009 188.990662 
L 147.166429 181.503572 
M 146.722009 188.990662 
L 145.900921 182.760175 
M 143.055758 191.093578 
L 120.382281 174.860753 
M 143.055758 191.093578 
L 116.708611 185.871264 
M 143.055758 191.093578 
L 145.900921 182.760175 
M 143.055758 191.093578 
L 146.722009 188.990662 
M 142.403154 194.418469 
L 116.708611 185.871264 
M 142.403154 194.418469 
L 146.722009 188.990662 
M 142.403154 194.418469 
L 143.055758 191.093578 
M 141.57749 197.656037 
L 116.708611 185.871264 
M 141.57749 197.656037 
L 114.607768 192.2605 
M 141.57749 197.656037 
L 114.608334 200.045724 
M 141.57749 197.656037 
L 146.722009 188.990662 
M 141.57749 197.656037 
L 142.403154 194.418469 
M 141.088809 201.532543 
L 114.608334 200.045724 
M 141.088809 201.532543 
L 114.355118 205.748394 
M 141.088809 201.532543 
L 141.57749 197.656037 
M 142.997704 204.949783 
L 168.502346 200.750565 
M 142.997704 204.949783 
L 146.722009 188.990662 
M 142.997704 204.949783 
L 141.57749 197.656037 
M 142.997704 204.949783 
L 141.088809 201.532543 
M 143.443079 208.038913 
L 168.502346 200.750565 
M 143.443079 208.038913 
L 169.428077 208.096871 
M 143.443079 208.038913 
L 141.088809 201.532543 
M 143.443079 208.038913 
L 142.997704 204.949783 
M 142.66273 212.056348 
L 114.355118 205.748394 
M 142.66273 212.056348 
L 116.095034 220.86377 
M 142.66273 212.056348 
L 119.26368 225.729756 
M 142.66273 212.056348 
L 141.088809 201.532543 
M 142.66273 212.056348 
L 143.443079 208.038913 
M 143.910617 217.249402 
L 169.428077 208.096871 
M 143.910617 217.249402 
L 170.233269 210.936486 
M 143.910617 217.249402 
L 170.60651 213.706873 
M 143.910617 217.249402 
L 119.26368 225.729756 
M 143.910617 217.249402 
L 143.443079 208.038913 
M 143.910617 217.249402 
L 142.66273 212.056348 
M 144.431097 220.640716 
L 119.26368 225.729756 
M 144.431097 220.640716 
L 143.910617 217.249402 
M 146.061548 224.231653 
L 170.60651 213.706873 
M 146.061548 224.231653 
L 119.26368 225.729756 
M 146.061548 224.231653 
L 119.88056 233.902647 
M 146.061548 224.231653 
L 143.910617 217.249402 
M 146.061548 224.231653 
L 144.431097 220.640716 
M 146.964412 226.731966 
L 170.60651 213.706873 
M 146.964412 226.731966 
L 173.584787 219.239051 
M 146.964412 226.731966 
L 119.88056 233.902647 
M 146.964412 226.731966 
L 121.479293 239.10355 
M 146.964412 226.731966 
L 146.061548 224.231653 
M 148.338449 230.007109 
L 173.584787 219.239051 
M 148.338449 230.007109 
L 121.479293 239.10355 
M 148.338449 230.007109 
L 125.317578 246.561115 
M 148.338449 230.007109 
L 146.964412 226.731966 
M 149.943159 234.605467 
L 125.317578 246.561115 
M 149.943159 234.605467 
L 148.338449 230.007109 
M 153.329311 236.74179 
L 173.584787 219.239051 
M 153.329311 236.74179 
L 176.08061 225.004129 
M 153.329311 236.74179 
L 177.688266 227.157954 
M 153.329311 236.74179 
L 148.338449 230.007109 
M 153.329311 236.74179 
L 149.943159 234.605467 
M 153.250514 240.036619 
L 125.317578 246.561115 
M 153.250514 240.036619 
L 127.42128 252.39608 
M 153.250514 240.036619 
L 133.451436 259.84635 
M 153.250514 240.036619 
L 149.943159 234.605467 
M 153.250514 240.036619 
L 153.329311 236.74179 
M 156.683771 244.227556 
L 133.451436 259.84635 
M 156.683771 244.227556 
L 136.452455 263.057136 
M 156.683771 244.227556 
L 142.895205 268.614862 
M 156.683771 244.227556 
L 153.329311 236.74179 
M 156.683771 244.227556 
L 153.250514 240.036619 
M 160.581698 246.784804 
L 177.688266 227.157954 
M 160.581698 246.784804 
L 179.659529 229.294691 
M 160.581698 246.784804 
L 181.025878 230.478358 
M 160.581698 246.784804 
L 153.329311 236.74179 
M 160.581698 246.784804 
L 156.683771 244.227556 
M 162.951397 250.232862 
L 181.025878 230.478358 
M 162.951397 250.232862 
L 142.895205 268.614862 
M 162.951397 250.232862 
L 146.011661 272.236354 
M 162.951397 250.232862 
L 156.683771 244.227556 
M 162.951397 250.232862 
L 160.581698 246.784804 
M 165.995211 252.811887 
L 181.025878 230.478358 
M 165.995211 252.811887 
L 146.011661 272.236354 
M 165.995211 252.811887 
L 162.951397 250.232862 
M 168.759202 255.381014 
L 146.011661 272.236354 
M 168.759202 255.381014 
L 153.39949 278.969708 
M 168.759202 255.381014 
L 161.388796 281.570428 
M 168.759202 255.381014 
L 165.995211 252.811887 
M 173.260183 256.079211 
L 181.025878 230.478358 
M 173.260183 256.079211 
L 186.10527 234.343254 
M 173.260183 256.079211 
L 165.995211 252.811887 
M 173.260183 256.079211 
L 168.759202 255.381014 
M 175.493655 258.010178 
L 186.10527 234.343254 
M 175.493655 258.010178 
L 191.699937 237.001063 
M 175.493655 258.010178 
L 168.759202 255.381014 
M 175.493655 258.010178 
L 173.260183 256.079211 
M 178.413217 260.981937 
L 161.388796 281.570428 
M 178.413217 260.981937 
L 167.416758 284.76367 
M 178.413217 260.981937 
L 174.479357 289.191594 
M 178.413217 260.981937 
L 168.759202 255.381014 
M 178.413217 260.981937 
L 175.493655 258.010178 
M 184.220285 261.5458 
L 191.699937 237.001063 
M 184.220285 261.5458 
L 195.209405 237.704151 
M 184.220285 261.5458 
L 175.493655 258.010178 
M 184.220285 261.5458 
L 178.413217 260.981937 
M 188.773839 264.786395 
L 174.479357 289.191594 
M 188.773839 264.786395 
L 182.054802 290.226291 
M 188.773839 264.786395 
L 178.413217 260.981937 
M 188.773839 264.786395 
L 184.220285 261.5458 
M 191.667522 265.537259 
L 182.054802 290.226291 
M 191.667522 265.537259 
L 195.057131 294.063924 
M 191.667522 265.537259 
L 188.773839 264.786395 
M 197.499323 264.487501 
L 195.209405 237.704151 
M 197.499323 264.487501 
L 202.683243 238.177645 
M 197.499323 264.487501 
L 184.220285 261.5458 
M 197.499323 264.487501 
L 188.773839 264.786395 
M 197.499323 264.487501 
L 191.667522 265.537259 
M 202.806586 266.557577 
L 195.057131 294.063924 
M 202.806586 266.557577 
L 203.506161 293.191885 
M 202.806586 266.557577 
L 191.667522 265.537259 
M 202.806586 266.557577 
L 197.499323 264.487501 
M 206.649182 265.506729 
L 202.683243 238.177645 
M 206.649182 265.506729 
L 206.227903 238.071616 
M 206.649182 265.506729 
L 210.451812 238.859419 
M 206.649182 265.506729 
L 197.499323 264.487501 
M 206.649182 265.506729 
L 202.806586 266.557577 
M 210.520014 266.602665 
L 203.506161 293.191885 
M 210.520014 266.602665 
L 210.433692 295.02301 
M 210.520014 266.602665 
L 219.554774 293.151308 
M 210.520014 266.602665 
L 202.806586 266.557577 
M 210.520014 266.602665 
L 206.649182 265.506729 
M 215.11567 266.005853 
L 210.451812 238.859419 
M 215.11567 266.005853 
L 214.079229 238.031715 
M 215.11567 266.005853 
L 219.554774 293.151308 
M 215.11567 266.005853 
L 206.649182 265.506729 
M 215.11567 266.005853 
L 210.520014 266.602665 
M 220.113392 266.994322 
L 219.554774 293.151308 
M 220.113392 266.994322 
L 225.800228 293.72637 
M 220.113392 266.994322 
L 234.978473 289.801008 
M 220.113392 266.994322 
L 215.11567 266.005853 
M 223.999949 263.753536 
L 214.079229 238.031715 
M 223.999949 263.753536 
L 217.667897 237.295011 
M 223.999949 263.753536 
L 220.803381 237.275145 
M 223.999949 263.753536 
L 215.11567 266.005853 
M 223.999949 263.753536 
L 220.113392 266.994322 
M 227.854673 262.910021 
L 220.803381 237.275145 
M 227.854673 262.910021 
L 234.978473 289.801008 
M 227.854673 262.910021 
L 220.113392 266.994322 
M 227.854673 262.910021 
L 223.999949 263.753536 
M 233.482645 260.220289 
L 220.803381 237.275145 
M 233.482645 260.220289 
L 228.572765 233.290328 
M 233.482645 260.220289 
L 227.854673 262.910021 
M 237.403432 260.771428 
L 234.978473 289.801008 
M 237.403432 260.771428 
L 243.473268 289.170121 
M 237.403432 260.771428 
L 250.881765 285.21579 
M 237.403432 260.771428 
L 257.274978 281.643833 
M 237.403432 260.771428 
L 227.854673 262.910021 
M 237.403432 260.771428 
L 233.482645 260.220289 
M 243.05678 257.356975 
L 257.274978 281.643833 
M 243.05678 257.356975 
L 233.482645 260.220289 
M 243.05678 257.356975 
L 237.403432 260.771428 
M 244.529378 254.738906 
L 228.572765 233.290328 
M 244.529378 254.738906 
L 234.636999 229.878983 
M 244.529378 254.738906 
L 238.255491 228.330711 
M 244.529378 254.738906 
L 233.482645 260.220289 
M 244.529378 254.738906 
L 243.05678 257.356975 
M 250.310839 253.594726 
L 257.274978 281.643833 
M 250.310839 253.594726 
L 265.793365 275.678892 
M 250.310839 253.594726 
L 271.580677 270.318481 
M 250.310839 253.594726 
L 243.05678 257.356975 
M 250.310839 253.594726 
L 244.529378 254.738906 
M 254.741329 249.330159 
L 238.255491 228.330711 
M 254.741329 249.330159 
L 271.580677 270.318481 
M 254.741329 249.330159 
L 244.529378 254.738906 
M 254.741329 249.330159 
L 250.310839 253.594726 
M 256.300995 248.130558 
L 238.255491 228.330711 
M 256.300995 248.130558 
L 271.580677 270.318481 
M 256.300995 248.130558 
L 277.410666 266.579351 
M 256.300995 248.130558 
L 254.741329 249.330159 
M 261.482966 243.512359 
L 238.255491 228.330711 
M 261.482966 243.512359 
L 241.292654 224.81808 
M 261.482966 243.512359 
L 277.410666 266.579351 
M 261.482966 243.512359 
L 283.377929 259.320993 
M 261.482966 243.512359 
L 256.300995 248.130558 
M 263.986899 238.340829 
L 241.292654 224.81808 
M 263.986899 238.340829 
L 243.374962 220.94771 
M 263.986899 238.340829 
L 246.17412 217.555947 
M 263.986899 238.340829 
L 261.482966 243.512359 
M 266.811496 236.258265 
L 246.17412 217.555947 
M 266.811496 236.258265 
L 247.951508 215.24146 
M 266.811496 236.258265 
L 283.377929 259.320993 
M 266.811496 236.258265 
L 288.806135 253.534356 
M 266.811496 236.258265 
L 293.015602 246.300328 
M 266.811496 236.258265 
L 261.482966 243.512359 
M 266.811496 236.258265 
L 263.986899 238.340829 
M 271.259662 230.880548 
L 247.951508 215.24146 
M 271.259662 230.880548 
L 293.015602 246.300328 
M 271.259662 230.880548 
L 266.811496 236.258265 
M 273.324599 228.376267 
L 247.951508 215.24146 
M 273.324599 228.376267 
L 293.015602 246.300328 
M 273.324599 228.376267 
L 299.774507 239.130574 
M 273.324599 228.376267 
L 301.321953 231.478942 
M 273.324599 228.376267 
L 271.259662 230.880548 
M 275.653471 221.814226 
L 247.951508 215.24146 
M 275.653471 221.814226 
L 252.729902 206.675762 
M 275.653471 221.814226 
L 301.321953 231.478942 
M 275.653471 221.814226 
L 273.324599 228.376267 
M 277.090669 219.002195 
L 252.729902 206.675762 
M 277.090669 219.002195 
L 301.321953 231.478942 
M 277.090669 219.002195 
L 304.01469 223.135541 
M 277.090669 219.002195 
L 275.653471 221.814226 
M 279.569615 213.331923 
L 304.01469 223.135541 
M 279.569615 213.331923 
L 307.405476 214.485125 
M 279.569615 213.331923 
L 277.090669 219.002195 
M 278.908349 208.515624 
L 252.729902 206.675762 
M 278.908349 208.515624 
L 254.167697 199.122315 
M 278.908349 208.515624 
L 277.090669 219.002195 
M 278.908349 208.515624 
L 279.569615 213.331923 
M 280.797017 201.781024 
L 254.167697 199.122315 
M 280.797017 201.781024 
L 255.400306 193.153476 
M 280.797017 201.781024 
L 307.405476 214.485125 
M 280.797017 201.781024 
L 310.807899 207.085584 
M 280.797017 201.781024 
L 279.569615 213.331923 
M 280.797017 201.781024 
L 278.908349 208.515624 
M 282.928783 196.125387 
L 255.400306 193.153476 
M 282.928783 196.125387 
L 255.121052 190.502127 
M 282.928783 196.125387 
L 255.638261 186.459927 
M 282.928783 196.125387 
L 310.807899 207.085584 
M 282.928783 196.125387 
L 309.634837 197.207222 
M 282.928783 196.125387 
L 280.797017 201.781024 
M 284.102397 192.561887 
L 255.638261 186.459927 
M 284.102397 192.561887 
L 309.634837 197.207222 
M 284.102397 192.561887 
L 311.318182 190.661044 
M 284.102397 192.561887 
L 282.928783 196.125387 
M 284.389843 185.94314 
L 255.638261 186.459927 
M 284.389843 185.94314 
L 256.20522 180.67122 
M 284.389843 185.94314 
L 311.318182 190.661044 
M 284.389843 185.94314 
L 310.124217 179.280842 
M 284.389843 185.94314 
L 284.102397 192.561887 
M 284.010002 181.249975 
L 256.20522 180.67122 
M 284.010002 181.249975 
L 310.124217 179.280842 
M 284.010002 181.249975 
L 284.389843 185.94314 
M 283.907886 175.549985 
L 310.124217 179.280842 
M 283.907886 175.549985 
L 309.482667 170.697998 
M 283.907886 175.549985 
L 307.736314 161.552791 
M 283.907886 175.549985 
L 284.010002 181.249975 
M 281.537557 170.338473 
L 256.20522 180.67122 
M 281.537557 170.338473 
L 254.041731 171.11826 
M 281.537557 170.338473 
L 307.736314 161.552791 
M 281.537557 170.338473 
L 284.010002 181.249975 
M 281.537557 170.338473 
L 283.907886 175.549985 
M 281.118202 165.049974 
L 307.736314 161.552791 
M 281.118202 165.049974 
L 306.559064 151.966727 
M 281.118202 165.049974 
L 281.537557 170.338473 
M 277.105963 159.452475 
L 254.041731 171.11826 
M 277.105963 159.452475 
L 281.537557 170.338473 
M 277.105963 159.452475 
L 281.118202 165.049974 
M 278.1705 153.905964 
L 306.559064 151.966727 
M 278.1705 153.905964 
L 303.464714 145.700358 
M 278.1705 153.905964 
L 298.269242 134.317772 
M 278.1705 153.905964 
L 281.118202 165.049974 
M 278.1705 153.905964 
L 277.105963 159.452475 
M 272.182207 149.941106 
L 254.041731 171.11826 
M 272.182207 149.941106 
L 248.979094 162.878733 
M 272.182207 149.941106 
L 246.725717 157.386708 
M 272.182207 149.941106 
L 277.105963 159.452475 
M 272.182207 149.941106 
L 278.1705 153.905964 
M 271.077686 143.798718 
L 298.269242 134.317772 
M 271.077686 143.798718 
L 293.954371 127.154774 
M 271.077686 143.798718 
L 278.1705 153.905964 
M 271.077686 143.798718 
L 272.182207 149.941106 
M 269.250134 141.258276 
L 246.725717 157.386708 
M 269.250134 141.258276 
L 244.721084 154.578648 
M 269.250134 141.258276 
L 242.567741 148.644964 
M 269.250134 141.258276 
L 293.954371 127.154774 
M 269.250134 141.258276 
L 272.182207 149.941106 
M 269.250134 141.258276 
L 271.077686 143.798718 
M 267.089081 134.120239 
L 293.954371 127.154774 
M 267.089081 134.120239 
L 290.501128 121.177 
M 267.089081 134.120239 
L 284.237041 112.44109 
M 267.089081 134.120239 
L 269.250134 141.258276 
M 261.821851 129.981091 
L 242.567741 148.644964 
M 261.821851 129.981091 
L 239.974832 144.539202 
M 261.821851 129.981091 
L 284.237041 112.44109 
M 261.821851 129.981091 
L 269.250134 141.258276 
M 261.821851 129.981091 
L 267.089081 134.120239 
M 259.378943 125.444917 
L 239.974832 144.539202 
M 259.378943 125.444917 
L 284.237041 112.44109 
M 259.378943 125.444917 
L 277.666436 104.397898 
M 259.378943 125.444917 
L 261.821851 129.981091 
M 254.419393 120.595994 
L 277.666436 104.397898 
M 254.419393 120.595994 
L 271.996312 97.844713 
M 254.419393 120.595994 
L 261.567451 93.162664 
M 254.419393 120.595994 
L 259.378943 125.444917 
M 248.574818 119.156895 
L 239.974832 144.539202 
M 248.574818 119.156895 
L 235.490623 142.278341 
M 248.574818 119.156895 
L 229.615661 138.048792 
M 248.574818 119.156895 
L 226.807648 136.50846 
M 248.574818 119.156895 
L 259.378943 125.444917 
M 248.574818 119.156895 
L 254.419393 120.595994 
M 244.255104 112.653264 
L 261.567451 93.162664 
M 244.255104 112.653264 
L 254.419393 120.595994 
M 244.255104 112.653264 
L 248.574818 119.156895 
M 240.480762 110.382278 
L 261.567451 93.162664 
M 240.480762 110.382278 
L 255.399846 86.495169 
M 240.480762 110.382278 
L 246.405922 84.236656 
M 240.480762 110.382278 
L 248.574818 119.156895 
M 240.480762 110.382278 
L 244.255104 112.653264 
M 233.621039 109.271062 
L 226.807648 136.50846 
M 233.621039 109.271062 
L 221.623685 133.865454 
M 233.621039 109.271062 
L 217.431449 129.66613 
M 233.621039 109.271062 
L 248.574818 119.156895 
M 233.621039 109.271062 
L 240.480762 110.382278 
M 229.723827 105.338147 
L 217.431449 129.66613 
M 229.723827 105.338147 
L 246.405922 84.236656 
M 229.723827 105.338147 
L 240.480762 110.382278 
M 229.723827 105.338147 
L 233.621039 109.271062 
M 224.784199 101.996974 
L 217.431449 129.66613 
M 224.784199 101.996974 
L 246.405922 84.236656 
M 224.784199 101.996974 
L 238.279949 77.62512 
M 224.784199 101.996974 
L 228.142323 76.085766 
M 224.784199 101.996974 
L 229.723827 105.338147 
M 218.598502 100.008395 
L 217.431449 129.66613 
M 218.598502 100.008395 
L 206.773034 127.893409 
M 218.598502 100.008395 
L 228.142323 76.085766 
M 218.598502 100.008395 
L 219.255346 74.612657 
M 218.598502 100.008395 
L 224.784199 101.996974 
M 210.279525 99.718365 
L 206.773034 127.893409 
M 210.279525 99.718365 
L 200.407502 126.631931 
M 210.279525 99.718365 
L 218.598502 100.008395 
M 206.582644 97.236654 
L 219.255346 74.612657 
M 206.582644 97.236654 
L 210.419154 71.919711 
M 206.582644 97.236654 
L 200.731178 69.722703 
M 206.582644 97.236654 
L 218.598502 100.008395 
M 206.582644 97.236654 
L 210.279525 99.718365 
M 200.187361 98.925835 
L 200.407502 126.631931 
M 200.187361 98.925835 
L 195.899383 125.633882 
M 200.187361 98.925835 
L 210.279525 99.718365 
M 200.187361 98.925835 
L 206.582644 97.236654 
M 192.905557 95.994083 
L 200.731178 69.722703 
M 192.905557 95.994083 
L 189.144015 68.57699 
M 192.905557 95.994083 
L 180.652468 70.293676 
M 192.905557 95.994083 
L 206.582644 97.236654 
M 192.905557 95.994083 
L 200.187361 98.925835 
M 188.263728 97.839061 
L 195.899383 125.633882 
M 188.263728 97.839061 
L 189.746242 125.652733 
M 188.263728 97.839061 
L 186.651071 125.615244 
M 188.263728 97.839061 
L 180.652468 70.293676 
M 188.263728 97.839061 
L 200.187361 98.925835 
M 188.263728 97.839061 
L 192.905557 95.994083 
M 179.960181 99.429777 
L 186.651071 125.615244 
M 179.960181 99.429777 
L 179.747132 125.67512 
M 179.960181 99.429777 
L 180.652468 70.293676 
M 179.960181 99.429777 
L 188.263728 97.839061 
M 173.835168 99.45779 
L 179.747132 125.67512 
M 173.835168 99.45779 
L 174.513196 127.108738 
M 173.835168 99.45779 
L 180.652468 70.293676 
M 173.835168 99.45779 
L 169.022921 70.970799 
M 173.835168 99.45779 
L 179.960181 99.429777 
M 168.790849 99.619386 
L 174.513196 127.108738 
M 168.790849 99.619386 
L 169.022921 70.970799 
M 168.790849 99.619386 
L 159.811789 72.050452 
M 168.790849 99.619386 
L 173.835168 99.45779 
M 163.683575 100.45347 
L 174.513196 127.108738 
M 163.683575 100.45347 
L 159.811789 72.050452 
M 163.683575 100.45347 
L 149.36979 75.030223 
M 163.683575 100.45347 
L 168.790849 99.619386 
M 155.68833 103.757867 
L 174.513196 127.108738 
M 155.68833 103.757867 
L 167.970142 130.180653 
M 155.68833 103.757867 
L 161.741518 131.927885 
M 155.68833 103.757867 
L 149.36979 75.030223 
M 155.68833 103.757867 
L 140.262068 77.908725 
M 155.68833 103.757867 
L 163.683575 100.45347 
M 149.979531 105.620621 
L 161.741518 131.927885 
M 149.979531 105.620621 
L 140.262068 77.908725 
M 149.979531 105.620621 
L 130.7678 83.746637 
M 149.979531 105.620621 
L 155.68833 103.757867 
M 145.660035 107.477216 
L 161.741518 131.927885 
M 145.660035 107.477216 
L 157.262985 134.363213 
M 145.660035 107.477216 
L 150.932157 136.204752 
M 145.660035 107.477216 
L 130.7678 83.746637 
M 145.660035 107.477216 
L 149.979531 105.620621 
M 137.990439 110.822075 
L 150.932157 136.204752 
M 137.990439 110.822075 
L 130.7678 83.746637 
M 137.990439 110.822075 
L 121.897654 87.537156 
M 137.990439 110.822075 
L 145.660035 107.477216 
M 132.681045 113.654133 
L 121.897654 87.537156 
M 132.681045 113.654133 
L 112.941018 94.430274 
M 132.681045 113.654133 
L 137.990439 110.822075 
M 129.194928 119.037892 
L 150.932157 136.204752 
M 129.194928 119.037892 
L 145.462014 139.323193 
M 129.194928 119.037892 
L 141.455579 144.268986 
M 129.194928 119.037892 
L 137.990439 110.822075 
M 129.194928 119.037892 
L 132.681045 113.654133 
M 121.359565 121.973863 
L 112.941018 94.430274 
M 121.359565 121.973863 
L 103.836349 101.557514 
M 121.359565 121.973863 
L 96.115053 109.35478 
M 121.359565 121.973863 
L 132.681045 113.654133 
M 121.359565 121.973863 
L 129.194928 119.037892 
M 117.683726 127.622799 
L 141.455579 144.268986 
M 117.683726 127.622799 
L 137.136885 147.255748 
M 117.683726 127.622799 
L 96.115053 109.35478 
M 117.683726 127.622799 
L 129.194928 119.037892 
M 117.683726 127.622799 
L 121.359565 121.973863 
M 112.364738 133.130376 
L 137.136885 147.255748 
M 112.364738 133.130376 
L 132.768109 151.899683 
M 112.364738 133.130376 
L 96.115053 109.35478 
M 112.364738 133.130376 
L 90.232044 117.541786 
M 112.364738 133.130376 
L 117.683726 127.622799 
M 108.485339 138.949937 
L 132.768109 151.899683 
M 108.485339 138.949937 
L 129.942676 157.930871 
M 108.485339 138.949937 
L 90.232044 117.541786 
M 108.485339 138.949937 
L 83.25291 124.71494 
M 108.485339 138.949937 
L 112.364738 133.130376 
M 104.870208 144.821816 
L 129.942676 157.930871 
M 104.870208 144.821816 
L 126.058897 162.808842 
M 104.870208 144.821816 
L 83.25291 124.71494 
M 104.870208 144.821816 
L 77.001564 134.886673 
M 104.870208 144.821816 
L 108.485339 138.949937 
M 101.702519 149.366075 
L 126.058897 162.808842 
M 101.702519 149.366075 
L 77.001564 134.886673 
M 101.702519 149.366075 
L 72.284138 143.226495 
M 101.702519 149.366075 
L 104.870208 144.821816 
M 99.998357 156.621666 
L 126.058897 162.808842 
M 99.998357 156.621666 
L 120.754698 169.044339 
M 99.998357 156.621666 
L 101.702519 149.366075 
M 95.116579 161.787296 
L 120.754698 169.044339 
M 95.116579 161.787296 
L 72.284138 143.226495 
M 95.116579 161.787296 
L 67.953986 152.949144 
M 95.116579 161.787296 
L 101.702519 149.366075 
M 95.116579 161.787296 
L 99.998357 156.621666 
M 92.798613 168.109366 
L 120.754698 169.044339 
M 92.798613 168.109366 
L 116.74387 181.097554 
M 92.798613 168.109366 
L 67.953986 152.949144 
M 92.798613 168.109366 
L 65.009287 163.793964 
M 92.798613 168.109366 
L 95.116579 161.787296 
M 89.356932 175.361115 
L 116.74387 181.097554 
M 89.356932 175.361115 
L 65.009287 163.793964 
M 89.356932 175.361115 
L 62.441169 174.524272 
M 89.356932 175.361115 
L 92.798613 168.109366 
M 89.075049 182.341734 
L 116.74387 181.097554 
M 89.075049 182.341734 
L 116.708611 185.871264 
M 89.075049 182.341734 
L 114.607768 192.2605 
M 89.075049 182.341734 
L 62.441169 174.524272 
M 89.075049 182.341734 
L 89.356932 175.361115 
M 88.542982 187.229895 
L 114.607768 192.2605 
M 88.542982 187.229895 
L 62.441169 174.524272 
M 88.542982 187.229895 
L 57.681818 183.281152 
M 88.542982 187.229895 
L 59.277768 196.97013 
M 88.542982 187.229895 
L 89.075049 182.341734 
M 88.175755 196.97013 
L 114.607768 192.2605 
M 88.175755 196.97013 
L 114.608334 200.045724 
M 88.175755 196.97013 
L 114.355118 205.748394 
M 88.175755 196.97013 
L 113.063126 214.421181 
M 88.175755 196.97013 
L 116.095034 220.86377 
M 88.175755 196.97013 
L 119.88056 233.902647 
M 88.175755 196.97013 
L 59.277768 196.97013 
M 88.175755 196.97013 
L 88.542982 187.229895 
L 88.542982 187.229895 
" clip-path="url(#p439613ea0d)" style="fill: none; stroke: #0000ff; stroke-width: 0.5; stroke-linecap: square"/>
   </g>
   <g id="line2d_2"/>
   <g id="PathCollection_1">
    <defs>
     <path id="mdbde366797" d="M 0 0.707107 
C 0.187527 0.707107 0.367398 0.632602 0.5 0.5 
C 0.632602 0.367398 0.707107 0.187527 0.707107 0 
C 0.707107 -0.187527 0.632602 -0.367398 0.5 -0.5 
C 0.367398 -0.632602 0.187527 -0.707107 0 -0.707107 
C -0.187527 -0.707107 -0.367398 -0.632602 -0.5 -0.5 
C -0.632602 -0.367398 -0.707107 -0.187527 -0.707107 0 
C -0.707107 0.187527 -0.632602 0.367398 -0.5 0.5 
C -0.367398 0.632602 -0.187527 0.707107 0 0.707107 
z
" style="stroke: #000000"/>
    </defs>
    <g clip-path="url(#p439613ea0d)">
     <use xlink:href="#mdbde366797" x="199.002885" y="195.599642" style="stroke: #000000"/>
     <use xlink:href="#mdbde366797" x="199.945411" y="196.29725" style="stroke: #000000"/>
     <use xlink:href="#mdbde366797" x="200.590583" y="195.431548" style="stroke: #000000"/>
     <use xlink:href="#mdbde366797" x="199.945427" y="194.972466" style="stroke: #000000"/>
     <use xlink:href="#mdbde366797" x="202.143617" y="196.099035" style="stroke: #000000"/>
     <use xlink:href="#mdbde366797" x="202.124201" y="194.368368" style="stroke: #000000"/>
     <use xlink:href="#mdbde366797" x="202.284278" y="194.125712" style="stroke: #000000"/>
     <use xlink:href="#mdbde366797" x="203.904689" y="193.749482" style="stroke: #000000"/>
     <use xlink:href="#mdbde366797" x="202.528705" y="191.294429" style="stroke: #000000"/>
     <use xlink:href="#mdbde366797" x="203.713639" y="192.900089" style="stroke: #000000"/>
     <use xlink:href="#mdbde366797" x="203.649643" y="190.426804" style="stroke: #000000"/>
     <use xlink:href="#mdbde366797" x="203.52699" y="190.204525" style="stroke: #000000"/>
     <use xlink:href="#mdbde366797" x="203.780229" y="188.374286" style="stroke: #000000"/>
     <use xlink:href="#mdbde366797" x="204.36013" y="186.790236" style="stroke: #000000"/>
     <use xlink:href="#mdbde366797" x="203.97676" y="186.661905" style="stroke: #000000"/>
     <use xlink:href="#mdbde366797" x="201.41167" y="186.990931" style="stroke: #000000"/>
     <use xlink:href="#mdbde366797" x="201.907986" y="186.04682" style="stroke: #000000"/>
     <use xlink:href="#mdbde366797" x="200.745884" y="184.105048" style="stroke: #000000"/>
     <use xlink:href="#mdbde366797" x="201.336998" y="184.91008" style="stroke: #000000"/>
     <use xlink:href="#mdbde366797" x="201.023842" y="182.824879" style="stroke: #000000"/>
     <use xlink:href="#mdbde366797" x="198.244383" y="182.214181" style="stroke: #000000"/>
     <use xlink:href="#mdbde366797" x="197.160685" y="181.233263" style="stroke: #000000"/>
     <use xlink:href="#mdbde366797" x="196.504595" y="180.592563" style="stroke: #000000"/>
     <use xlink:href="#mdbde366797" x="194.710725" y="181.815579" style="stroke: #000000"/>
     <use xlink:href="#mdbde366797" x="193.406541" y="179.786849" style="stroke: #000000"/>
     <use xlink:href="#mdbde366797" x="191.277657" y="179.366585" style="stroke: #000000"/>
     <use xlink:href="#mdbde366797" x="190.955642" y="179.780744" style="stroke: #000000"/>
     <use xlink:href="#mdbde366797" x="188.438227" y="181.027119" style="stroke: #000000"/>
     <use xlink:href="#mdbde366797" x="187.499702" y="180.954872" style="stroke: #000000"/>
     <use xlink:href="#mdbde366797" x="186.365399" y="180.008595" style="stroke: #000000"/>
     <use xlink:href="#mdbde366797" x="183.49752" y="180.551198" style="stroke: #000000"/>
     <use xlink:href="#mdbde366797" x="181.581955" y="180.130673" style="stroke: #000000"/>
     <use xlink:href="#mdbde366797" x="179.533686" y="182.201291" style="stroke: #000000"/>
     <use xlink:href="#mdbde366797" x="177.364998" y="183.533797" style="stroke: #000000"/>
     <use xlink:href="#mdbde366797" x="178.698834" y="185.755207" style="stroke: #000000"/>
     <use xlink:href="#mdbde366797" x="175.162514" y="187.479716" style="stroke: #000000"/>
     <use xlink:href="#mdbde366797" x="174.965846" y="188.261392" style="stroke: #000000"/>
     <use xlink:href="#mdbde366797" x="172.023105" y="190.312731" style="stroke: #000000"/>
     <use xlink:href="#mdbde366797" x="172.309781" y="191.776009" style="stroke: #000000"/>
     <use xlink:href="#mdbde366797" x="170.735938" y="193.853375" style="stroke: #000000"/>
     <use xlink:href="#mdbde366797" x="169.460802" y="195.887425" style="stroke: #000000"/>
     <use xlink:href="#mdbde366797" x="170.315101" y="198.338214" style="stroke: #000000"/>
     <use xlink:href="#mdbde366797" x="168.502346" y="200.750565" style="stroke: #000000"/>
     <use xlink:href="#mdbde366797" x="170.65453" y="203.448033" style="stroke: #000000"/>
     <use xlink:href="#mdbde366797" x="171.156352" y="205.346644" style="stroke: #000000"/>
     <use xlink:href="#mdbde366797" x="169.428077" y="208.096871" style="stroke: #000000"/>
     <use xlink:href="#mdbde366797" x="170.233269" y="210.936486" style="stroke: #000000"/>
     <use xlink:href="#mdbde366797" x="170.60651" y="213.706873" style="stroke: #000000"/>
     <use xlink:href="#mdbde366797" x="172.383194" y="216.140996" style="stroke: #000000"/>
     <use xlink:href="#mdbde366797" x="173.584787" y="219.239051" style="stroke: #000000"/>
     <use xlink:href="#mdbde366797" x="176.372452" y="222.125359" style="stroke: #000000"/>
     <use xlink:href="#mdbde366797" x="176.08061" y="225.004129" style="stroke: #000000"/>
     <use xlink:href="#mdbde366797" x="177.688266" y="227.157954" style="stroke: #000000"/>
     <use xlink:href="#mdbde366797" x="179.659529" y="229.294691" style="stroke: #000000"/>
     <use xlink:href="#mdbde366797" x="181.025878" y="230.478358" style="stroke: #000000"/>
     <use xlink:href="#mdbde366797" x="183.980436" y="231.59859" style="stroke: #000000"/>
     <use xlink:href="#mdbde366797" x="186.10527" y="234.343254" style="stroke: #000000"/>
     <use xlink:href="#mdbde366797" x="192.062683" y="235.517235" style="stroke: #000000"/>
     <use xlink:href="#mdbde366797" x="191.699937" y="237.001063" style="stroke: #000000"/>
     <use xlink:href="#mdbde366797" x="195.209405" y="237.704151" style="stroke: #000000"/>
     <use xlink:href="#mdbde366797" x="199.928189" y="236.40705" style="stroke: #000000"/>
     <use xlink:href="#mdbde366797" x="202.683243" y="238.177645" style="stroke: #000000"/>
     <use xlink:href="#mdbde366797" x="206.227903" y="238.071616" style="stroke: #000000"/>
     <use xlink:href="#mdbde366797" x="210.451812" y="238.859419" style="stroke: #000000"/>
     <use xlink:href="#mdbde366797" x="214.079229" y="238.031715" style="stroke: #000000"/>
     <use xlink:href="#mdbde366797" x="217.667897" y="237.295011" style="stroke: #000000"/>
     <use xlink:href="#mdbde366797" x="220.803381" y="237.275145" style="stroke: #000000"/>
     <use xlink:href="#mdbde366797" x="223.547665" y="234.581022" style="stroke: #000000"/>
     <use xlink:href="#mdbde366797" x="228.572765" y="233.290328" style="stroke: #000000"/>
     <use xlink:href="#mdbde366797" x="230.696009" y="231.233577" style="stroke: #000000"/>
     <use xlink:href="#mdbde366797" x="234.636999" y="229.878983" style="stroke: #000000"/>
     <use xlink:href="#mdbde366797" x="238.255491" y="228.330711" style="stroke: #000000"/>
     <use xlink:href="#mdbde366797" x="241.292654" y="224.81808" style="stroke: #000000"/>
     <use xlink:href="#mdbde366797" x="243.374962" y="220.94771" style="stroke: #000000"/>
     <use xlink:href="#mdbde366797" x="246.17412" y="217.555947" style="stroke: #000000"/>
     <use xlink:href="#mdbde366797" x="247.951508" y="215.24146" style="stroke: #000000"/>
     <use xlink:href="#mdbde366797" x="249.556491" y="209.180427" style="stroke: #000000"/>
     <use xlink:href="#mdbde366797" x="252.729902" y="206.675762" style="stroke: #000000"/>
     <use xlink:href="#mdbde366797" x="252.659954" y="204.262" style="stroke: #000000"/>
     <use xlink:href="#mdbde366797" x="254.167697" y="199.122315" style="stroke: #000000"/>
     <use xlink:href="#mdbde366797" x="255.400306" y="193.153476" style="stroke: #000000"/>
     <use xlink:href="#mdbde366797" x="255.121052" y="190.502127" style="stroke: #000000"/>
     <use xlink:href="#mdbde366797" x="255.638261" y="186.459927" style="stroke: #000000"/>
     <use xlink:href="#mdbde366797" x="256.20522" y="180.67122" style="stroke: #000000"/>
     <use xlink:href="#mdbde366797" x="253.5921" y="174.63774" style="stroke: #000000"/>
     <use xlink:href="#mdbde366797" x="254.041731" y="171.11826" style="stroke: #000000"/>
     <use xlink:href="#mdbde366797" x="249.789423" y="167.324722" style="stroke: #000000"/>
     <use xlink:href="#mdbde366797" x="248.979094" y="162.878733" style="stroke: #000000"/>
     <use xlink:href="#mdbde366797" x="246.725717" y="157.386708" style="stroke: #000000"/>
     <use xlink:href="#mdbde366797" x="244.721084" y="154.578648" style="stroke: #000000"/>
     <use xlink:href="#mdbde366797" x="242.567741" y="148.644964" style="stroke: #000000"/>
     <use xlink:href="#mdbde366797" x="239.974832" y="144.539202" style="stroke: #000000"/>
     <use xlink:href="#mdbde366797" x="235.490623" y="142.278341" style="stroke: #000000"/>
     <use xlink:href="#mdbde366797" x="229.615661" y="138.048792" style="stroke: #000000"/>
     <use xlink:href="#mdbde366797" x="226.807648" y="136.50846" style="stroke: #000000"/>
     <use xlink:href="#mdbde366797" x="221.623685" y="133.865454" style="stroke: #000000"/>
     <use xlink:href="#mdbde366797" x="217.431449" y="129.66613" style="stroke: #000000"/>
     <use xlink:href="#mdbde366797" x="212.329722" y="130.698357" style="stroke: #000000"/>
     <use xlink:href="#mdbde366797" x="206.773034" y="127.893409" style="stroke: #000000"/>
     <use xlink:href="#mdbde366797" x="200.407502" y="126.631931" style="stroke: #000000"/>
     <use xlink:href="#mdbde366797" x="195.899383" y="125.633882" style="stroke: #000000"/>
     <use xlink:href="#mdbde366797" x="189.746242" y="125.652733" style="stroke: #000000"/>
     <use xlink:href="#mdbde366797" x="186.651071" y="125.615244" style="stroke: #000000"/>
     <use xlink:href="#mdbde366797" x="179.747132" y="125.67512" style="stroke: #000000"/>
     <use xlink:href="#mdbde366797" x="174.513196" y="127.108738" style="stroke: #000000"/>
     <use xlink:href="#mdbde366797" x="167.970142" y="130.180653" style="stroke: #000000"/>
     <use xlink:href="#mdbde366797" x="161.741518" y="131.927885" style="stroke: #000000"/>
     <use xlink:href="#mdbde366797" x="157.262985" y="134.363213" style="stroke: #000000"/>
     <use xlink:href="#mdbde366797" x="150.932157" y="136.204752" style="stroke: #000000"/>
     <use xlink:href="#mdbde366797" x="145.462014" y="139.323193" style="stroke: #000000"/>
     <use xlink:href="#mdbde366797" x="141.455579" y="144.268986" style="stroke: #000000"/>
     <use xlink:href="#mdbde366797" x="137.136885" y="147.255748" style="stroke: #000000"/>
     <use xlink:href="#mdbde366797" x="132.768109" y="151.899683" style="stroke: #000000"/>
     <use xlink:href="#mdbde366797" x="129.942676" y="157.930871" style="stroke: #000000"/>
     <use xlink:href="#mdbde366797" x="126.058897" y="162.808842" style="stroke: #000000"/>
     <use xlink:href="#mdbde366797" x="120.754698" y="169.044339" style="stroke: #000000"/>
     <use xlink:href="#mdbde366797" x="120.382281" y="174.860753" style="stroke: #000000"/>
     <use xlink:href="#mdbde366797" x="116.74387" y="181.097554" style="stroke: #000000"/>
     <use xlink:href="#mdbde366797" x="116.708611" y="185.871264" style="stroke: #000000"/>
     <use xlink:href="#mdbde366797" x="114.607768" y="192.2605" style="stroke: #000000"/>
     <use xlink:href="#mdbde366797" x="114.608334" y="200.045724" style="stroke: #000000"/>
     <use xlink:href="#mdbde366797" x="114.355118" y="205.748394" style="stroke: #000000"/>
     <use xlink:href="#mdbde366797" x="113.063126" y="214.421181" style="stroke: #000000"/>
     <use xlink:href="#mdbde366797" x="116.095034" y="220.86377" style="stroke: #000000"/>
     <use xlink:href="#mdbde366797" x="119.26368" y="225.729756" style="stroke: #000000"/>
     <use xlink:href="#mdbde366797" x="119.88056" y="233.902647" style="stroke: #000000"/>
     <use xlink:href="#mdbde366797" x="121.479293" y="239.10355" style="stroke: #000000"/>
     <use xlink:href="#mdbde366797" x="125.317578" y="246.561115" style="stroke: #000000"/>
     <use xlink:href="#mdbde366797" x="127.42128" y="252.39608" style="stroke: #000000"/>
     <use xlink:href="#mdbde366797" x="133.451436" y="259.84635" style="stroke: #000000"/>
     <use xlink:href="#mdbde366797" x="136.452455" y="263.057136" style="stroke: #000000"/>
     <use xlink:href="#mdbde366797" x="142.895205" y="268.614862" style="stroke: #000000"/>
     <use xlink:href="#mdbde366797" x="146.011661" y="272.236354" style="stroke: #000000"/>
     <use xlink:href="#mdbde366797" x="153.39949" y="278.969708" style="stroke: #000000"/>
     <use xlink:href="#mdbde366797" x="161.388796" y="281.570428" style="stroke: #000000"/>
     <use xlink:href="#mdbde366797" x="167.416758" y="284.76367" style="stroke: #000000"/>
     <use xlink:href="#mdbde366797" x="174.479357" y="289.191594" style="stroke: #000000"/>
     <use xlink:href="#mdbde366797" x="182.054802" y="290.226291" style="stroke: #000000"/>
     <use xlink:href="#mdbde366797" x="188.269022" y="294.021431" style="stroke: #000000"/>
     <use xlink:href="#mdbde366797" x="195.057131" y="294.063924" style="stroke: #000000"/>
     <use xlink:href="#mdbde366797" x="203.506161" y="293.191885" style="stroke: #000000"/>
     <use xlink:href="#mdbde366797" x="210.433692" y="295.02301" style="stroke: #000000"/>
     <use xlink:href="#mdbde366797" x="219.554774" y="293.151308" style="stroke: #000000"/>
     <use xlink:href="#mdbde366797" x="225.800228" y="293.72637" style="stroke: #000000"/>
     <use xlink:href="#mdbde366797" x="234.978473" y="289.801008" style="stroke: #000000"/>
     <use xlink:href="#mdbde366797" x="243.473268" y="289.170121" style="stroke: #000000"/>
     <use xlink:href="#mdbde366797" x="250.881765" y="285.21579" style="stroke: #000000"/>
     <use xlink:href="#mdbde366797" x="257.274978" y="281.643833" style="stroke: #000000"/>
     <use xlink:href="#mdbde366797" x="265.793365" y="275.678892" style="stroke: #000000"/>
     <use xlink:href="#mdbde366797" x="271.580677" y="270.318481" style="stroke: #000000"/>
     <use xlink:href="#mdbde366797" x="277.410666" y="266.579351" style="stroke: #000000"/>
     <use xlink:href="#mdbde366797" x="283.377929" y="259.320993" style="stroke: #000000"/>
     <use xlink:href="#mdbde366797" x="288.806135" y="253.534356" style="stroke: #000000"/>
     <use xlink:href="#mdbde366797" x="293.015602" y="246.300328" style="stroke: #000000"/>
     <use xlink:href="#mdbde366797" x="299.774507" y="239.130574" style="stroke: #000000"/>
     <use xlink:href="#mdbde366797" x="301.321953" y="231.478942" style="stroke: #000000"/>
     <use xlink:href="#mdbde366797" x="304.01469" y="223.135541" style="stroke: #000000"/>
     <use xlink:href="#mdbde366797" x="307.405476" y="214.485125" style="stroke: #000000"/>
     <use xlink:href="#mdbde366797" x="310.807899" y="207.085584" style="stroke: #000000"/>
     <use xlink:href="#mdbde366797" x="309.634837" y="197.207222" style="stroke: #000000"/>
     <use xlink:href="#mdbde366797" x="311.318182" y="190.661044" style="stroke: #000000"/>
     <use xlink:href="#mdbde366797" x="310.124217" y="179.280842" style="stroke: #000000"/>
     <use xlink:href="#mdbde366797" x="309.482667" y="170.697998" style="stroke: #000000"/>
     <use xlink:href="#mdbde366797" x="307.736314" y="161.552791" style="stroke: #000000"/>
     <use xlink:href="#mdbde366797" x="306.559064" y="151.966727" style="stroke: #000000"/>
     <use xlink:href="#mdbde366797" x="303.464714" y="145.700358" style="stroke: #000000"/>
     <use xlink:href="#mdbde366797" x="298.269242" y="134.317772" style="stroke: #000000"/>
     <use xlink:href="#mdbde366797" x="293.954371" y="127.154774" style="stroke: #000000"/>
     <use xlink:href="#mdbde366797" x="290.501128" y="121.177" style="stroke: #000000"/>
     <use xlink:href="#mdbde366797" x="284.237041" y="112.44109" style="stroke: #000000"/>
     <use xlink:href="#mdbde366797" x="277.666436" y="104.397898" style="stroke: #000000"/>
     <use xlink:href="#mdbde366797" x="271.996312" y="97.844713" style="stroke: #000000"/>
     <use xlink:href="#mdbde366797" x="261.567451" y="93.162664" style="stroke: #000000"/>
     <use xlink:href="#mdbde366797" x="255.399846" y="86.495169" style="stroke: #000000"/>
     <use xlink:href="#mdbde366797" x="246.405922" y="84.236656" style="stroke: #000000"/>
     <use xlink:href="#mdbde366797" x="238.279949" y="77.62512" style="stroke: #000000"/>
     <use xlink:href="#mdbde366797" x="228.142323" y="76.085766" style="stroke: #000000"/>
     <use xlink:href="#mdbde366797" x="219.255346" y="74.612657" style="stroke: #000000"/>
     <use xlink:href="#mdbde366797" x="210.419154" y="71.919711" style="stroke: #000000"/>
     <use xlink:href="#mdbde366797" x="200.731178" y="69.722703" style="stroke: #000000"/>
     <use xlink:href="#mdbde366797" x="189.144015" y="68.57699" style="stroke: #000000"/>
     <use xlink:href="#mdbde366797" x="180.652468" y="70.293676" style="stroke: #000000"/>
     <use xlink:href="#mdbde366797" x="169.022921" y="70.970799" style="stroke: #000000"/>
     <use xlink:href="#mdbde366797" x="159.811789" y="72.050452" style="stroke: #000000"/>
     <use xlink:href="#mdbde366797" x="149.36979" y="75.030223" style="stroke: #000000"/>
     <use xlink:href="#mdbde366797" x="140.262068" y="77.908725" style="stroke: #000000"/>
     <use xlink:href="#mdbde366797" x="130.7678" y="83.746637" style="stroke: #000000"/>
     <use xlink:href="#mdbde366797" x="121.897654" y="87.537156" style="stroke: #000000"/>
     <use xlink:href="#mdbde366797" x="112.941018" y="94.430274" style="stroke: #000000"/>
     <use xlink:href="#mdbde366797" x="103.836349" y="101.557514" style="stroke: #000000"/>
     <use xlink:href="#mdbde366797" x="96.115053" y="109.35478" style="stroke: #000000"/>
     <use xlink:href="#mdbde366797" x="90.232044" y="117.541786" style="stroke: #000000"/>
     <use xlink:href="#mdbde366797" x="83.25291" y="124.71494" style="stroke: #000000"/>
     <use xlink:href="#mdbde366797" x="77.001564" y="134.886673" style="stroke: #000000"/>
     <use xlink:href="#mdbde366797" x="72.284138" y="143.226495" style="stroke: #000000"/>
     <use xlink:href="#mdbde366797" x="67.953986" y="152.949144" style="stroke: #000000"/>
     <use xlink:href="#mdbde366797" x="65.009287" y="163.793964" style="stroke: #000000"/>
     <use xlink:href="#mdbde366797" x="62.441169" y="174.524272" style="stroke: #000000"/>
     <use xlink:href="#mdbde366797" x="57.681818" y="183.281152" style="stroke: #000000"/>
     <use xlink:href="#mdbde366797" x="59.277768" y="196.97013" style="stroke: #000000"/>
    </g>
   </g>
   <g id="PathCollection_2">
    <defs>
     <path id="m1ac1d674b3" d="M 0 0.707107 
C 0.187527 0.707107 0.367398 0.632602 0.5 0.5 
C 0.632602 0.367398 0.707107 0.187527 0.707107 0 
C 0.707107 -0.187527 0.632602 -0.367398 0.5 -0.5 
C 0.367398 -0.632602 0.187527 -0.707107 0 -0.707107 
C -0.187527 -0.707107 -0.367398 -0.632602 -0.5 -0.5 
C -0.632602 -0.367398 -0.707107 -0.187527 -0.707107 0 
C -0.707107 0.187527 -0.632602 0.367398 -0.5 0.5 
C -0.367398 0.632602 -0.187527 0.707107 0 0.707107 
z
" style="stroke: #ff0000"/>
    </defs>
    <g clip-path="url(#p439613ea0d)">
     <use xlink:href="#m1ac1d674b3" x="199.455931" y="195.599642" style="fill: #ff0000; stroke: #ff0000"/>
     <use xlink:href="#m1ac1d674b3" x="196.677907" y="196.388175" style="fill: #ff0000; stroke: #ff0000"/>
     <use xlink:href="#m1ac1d674b3" x="198.237239" y="195.794278" style="fill: #ff0000; stroke: #ff0000"/>
     <use xlink:href="#m1ac1d674b3" x="197.145687" y="195.784966" style="fill: #ff0000; stroke: #ff0000"/>
     <use xlink:href="#m1ac1d674b3" x="197.129207" y="197.534445" style="fill: #ff0000; stroke: #ff0000"/>
     <use xlink:href="#m1ac1d674b3" x="196.210839" y="196.593128" style="fill: #ff0000; stroke: #ff0000"/>
     <use xlink:href="#m1ac1d674b3" x="195.67042" y="197.297744" style="fill: #ff0000; stroke: #ff0000"/>
     <use xlink:href="#m1ac1d674b3" x="195.789129" y="198.016444" style="fill: #ff0000; stroke: #ff0000"/>
     <use xlink:href="#m1ac1d674b3" x="192.998684" y="196.792054" style="fill: #ff0000; stroke: #ff0000"/>
     <use xlink:href="#m1ac1d674b3" x="195.166242" y="199.750625" style="fill: #ff0000; stroke: #ff0000"/>
     <use xlink:href="#m1ac1d674b3" x="194.831046" y="198.73757" style="fill: #ff0000; stroke: #ff0000"/>
     <use xlink:href="#m1ac1d674b3" x="195.428422" y="200.066587" style="fill: #ff0000; stroke: #ff0000"/>
     <use xlink:href="#m1ac1d674b3" x="193.082313" y="199.861276" style="fill: #ff0000; stroke: #ff0000"/>
     <use xlink:href="#m1ac1d674b3" x="194.145821" y="199.957316" style="fill: #ff0000; stroke: #ff0000"/>
     <use xlink:href="#m1ac1d674b3" x="192.640676" y="201.544891" style="fill: #ff0000; stroke: #ff0000"/>
     <use xlink:href="#m1ac1d674b3" x="194.280903" y="203.605577" style="fill: #ff0000; stroke: #ff0000"/>
     <use xlink:href="#m1ac1d674b3" x="193.640985" y="204.388278" style="fill: #ff0000; stroke: #ff0000"/>
     <use xlink:href="#m1ac1d674b3" x="194.155222" y="204.147506" style="fill: #ff0000; stroke: #ff0000"/>
     <use xlink:href="#m1ac1d674b3" x="193.68754" y="206.606576" style="fill: #ff0000; stroke: #ff0000"/>
     <use xlink:href="#m1ac1d674b3" x="195.824931" y="206.107307" style="fill: #ff0000; stroke: #ff0000"/>
     <use xlink:href="#m1ac1d674b3" x="194.815569" y="206.993473" style="fill: #ff0000; stroke: #ff0000"/>
     <use xlink:href="#m1ac1d674b3" x="195.341786" y="207.399765" style="fill: #ff0000; stroke: #ff0000"/>
     <use xlink:href="#m1ac1d674b3" x="194.917197" y="208.016588" style="fill: #ff0000; stroke: #ff0000"/>
     <use xlink:href="#m1ac1d674b3" x="195.795344" y="210.348142" style="fill: #ff0000; stroke: #ff0000"/>
     <use xlink:href="#m1ac1d674b3" x="196.674085" y="209.260579" style="fill: #ff0000; stroke: #ff0000"/>
     <use xlink:href="#m1ac1d674b3" x="198.676316" y="209.596803" style="fill: #ff0000; stroke: #ff0000"/>
     <use xlink:href="#m1ac1d674b3" x="199.778979" y="210.566707" style="fill: #ff0000; stroke: #ff0000"/>
     <use xlink:href="#m1ac1d674b3" x="199.985812" y="212.153415" style="fill: #ff0000; stroke: #ff0000"/>
     <use xlink:href="#m1ac1d674b3" x="201.940955" y="212.192962" style="fill: #ff0000; stroke: #ff0000"/>
     <use xlink:href="#m1ac1d674b3" x="203.455323" y="211.118482" style="fill: #ff0000; stroke: #ff0000"/>
     <use xlink:href="#m1ac1d674b3" x="201.799464" y="211.283222" style="fill: #ff0000; stroke: #ff0000"/>
     <use xlink:href="#m1ac1d674b3" x="204.964571" y="210.227411" style="fill: #ff0000; stroke: #ff0000"/>
     <use xlink:href="#m1ac1d674b3" x="206.189204" y="211.399549" style="fill: #ff0000; stroke: #ff0000"/>
     <use xlink:href="#m1ac1d674b3" x="207.05442" y="211.566685" style="fill: #ff0000; stroke: #ff0000"/>
     <use xlink:href="#m1ac1d674b3" x="210.048027" y="212.354271" style="fill: #ff0000; stroke: #ff0000"/>
     <use xlink:href="#m1ac1d674b3" x="209.816289" y="212.377119" style="fill: #ff0000; stroke: #ff0000"/>
     <use xlink:href="#m1ac1d674b3" x="211.174367" y="211.192129" style="fill: #ff0000; stroke: #ff0000"/>
     <use xlink:href="#m1ac1d674b3" x="212.489071" y="211.016851" style="fill: #ff0000; stroke: #ff0000"/>
     <use xlink:href="#m1ac1d674b3" x="214.372914" y="210.000835" style="fill: #ff0000; stroke: #ff0000"/>
     <use xlink:href="#m1ac1d674b3" x="215.904915" y="209.355705" style="fill: #ff0000; stroke: #ff0000"/>
     <use xlink:href="#m1ac1d674b3" x="216.816454" y="208.43569" style="fill: #ff0000; stroke: #ff0000"/>
     <use xlink:href="#m1ac1d674b3" x="217.521613" y="207.714585" style="fill: #ff0000; stroke: #ff0000"/>
     <use xlink:href="#m1ac1d674b3" x="218.914033" y="206.752981" style="fill: #ff0000; stroke: #ff0000"/>
     <use xlink:href="#m1ac1d674b3" x="220.800344" y="205.892149" style="fill: #ff0000; stroke: #ff0000"/>
     <use xlink:href="#m1ac1d674b3" x="222.754323" y="204.067666" style="fill: #ff0000; stroke: #ff0000"/>
     <use xlink:href="#m1ac1d674b3" x="222.194289" y="202.951275" style="fill: #ff0000; stroke: #ff0000"/>
     <use xlink:href="#m1ac1d674b3" x="224.268449" y="201.803602" style="fill: #ff0000; stroke: #ff0000"/>
     <use xlink:href="#m1ac1d674b3" x="226.233748" y="200.49032" style="fill: #ff0000; stroke: #ff0000"/>
     <use xlink:href="#m1ac1d674b3" x="225.362964" y="198.769959" style="fill: #ff0000; stroke: #ff0000"/>
     <use xlink:href="#m1ac1d674b3" x="226.125394" y="197.669385" style="fill: #ff0000; stroke: #ff0000"/>
     <use xlink:href="#m1ac1d674b3" x="225.935898" y="196.340511" style="fill: #ff0000; stroke: #ff0000"/>
     <use xlink:href="#m1ac1d674b3" x="227.286964" y="195.01587" style="fill: #ff0000; stroke: #ff0000"/>
     <use xlink:href="#m1ac1d674b3" x="227.41918" y="193.00691" style="fill: #ff0000; stroke: #ff0000"/>
     <use xlink:href="#m1ac1d674b3" x="225.975804" y="191.050673" style="fill: #ff0000; stroke: #ff0000"/>
     <use xlink:href="#m1ac1d674b3" x="226.916052" y="188.240483" style="fill: #ff0000; stroke: #ff0000"/>
     <use xlink:href="#m1ac1d674b3" x="227.783872" y="185.495183" style="fill: #ff0000; stroke: #ff0000"/>
     <use xlink:href="#m1ac1d674b3" x="227.898497" y="184.531546" style="fill: #ff0000; stroke: #ff0000"/>
     <use xlink:href="#m1ac1d674b3" x="227.615394" y="182.182835" style="fill: #ff0000; stroke: #ff0000"/>
     <use xlink:href="#m1ac1d674b3" x="228.005472" y="180.35723" style="fill: #ff0000; stroke: #ff0000"/>
     <use xlink:href="#m1ac1d674b3" x="226.714262" y="177.990845" style="fill: #ff0000; stroke: #ff0000"/>
     <use xlink:href="#m1ac1d674b3" x="225.541301" y="173.889783" style="fill: #ff0000; stroke: #ff0000"/>
     <use xlink:href="#m1ac1d674b3" x="224.755842" y="173.146136" style="fill: #ff0000; stroke: #ff0000"/>
     <use xlink:href="#m1ac1d674b3" x="223.76715" y="170.838248" style="fill: #ff0000; stroke: #ff0000"/>
     <use xlink:href="#m1ac1d674b3" x="220.94786" y="169.757517" style="fill: #ff0000; stroke: #ff0000"/>
     <use xlink:href="#m1ac1d674b3" x="221.222274" y="167.413652" style="fill: #ff0000; stroke: #ff0000"/>
     <use xlink:href="#m1ac1d674b3" x="219.164613" y="165.530153" style="fill: #ff0000; stroke: #ff0000"/>
     <use xlink:href="#m1ac1d674b3" x="217.138363" y="164.747653" style="fill: #ff0000; stroke: #ff0000"/>
     <use xlink:href="#m1ac1d674b3" x="215.234366" y="161.687515" style="fill: #ff0000; stroke: #ff0000"/>
     <use xlink:href="#m1ac1d674b3" x="214.070649" y="160.437432" style="fill: #ff0000; stroke: #ff0000"/>
     <use xlink:href="#m1ac1d674b3" x="211.818646" y="158.835373" style="fill: #ff0000; stroke: #ff0000"/>
     <use xlink:href="#m1ac1d674b3" x="210.845755" y="158.354371" style="fill: #ff0000; stroke: #ff0000"/>
     <use xlink:href="#m1ac1d674b3" x="208.266497" y="158.100703" style="fill: #ff0000; stroke: #ff0000"/>
     <use xlink:href="#m1ac1d674b3" x="204.39833" y="156.303056" style="fill: #ff0000; stroke: #ff0000"/>
     <use xlink:href="#m1ac1d674b3" x="203.696494" y="154.56463" style="fill: #ff0000; stroke: #ff0000"/>
     <use xlink:href="#m1ac1d674b3" x="200.76007" y="153.71557" style="fill: #ff0000; stroke: #ff0000"/>
     <use xlink:href="#m1ac1d674b3" x="198.133202" y="154.345559" style="fill: #ff0000; stroke: #ff0000"/>
     <use xlink:href="#m1ac1d674b3" x="194.87999" y="151.61904" style="fill: #ff0000; stroke: #ff0000"/>
     <use xlink:href="#m1ac1d674b3" x="190.57741" y="152.824495" style="fill: #ff0000; stroke: #ff0000"/>
     <use xlink:href="#m1ac1d674b3" x="190.345623" y="154.47939" style="fill: #ff0000; stroke: #ff0000"/>
     <use xlink:href="#m1ac1d674b3" x="187.632427" y="153.747291" style="fill: #ff0000; stroke: #ff0000"/>
     <use xlink:href="#m1ac1d674b3" x="182.627495" y="152.502915" style="fill: #ff0000; stroke: #ff0000"/>
     <use xlink:href="#m1ac1d674b3" x="180.610718" y="154.868541" style="fill: #ff0000; stroke: #ff0000"/>
     <use xlink:href="#m1ac1d674b3" x="178.158743" y="156.109291" style="fill: #ff0000; stroke: #ff0000"/>
     <use xlink:href="#m1ac1d674b3" x="174.38887" y="155.840952" style="fill: #ff0000; stroke: #ff0000"/>
     <use xlink:href="#m1ac1d674b3" x="172.565345" y="155.534859" style="fill: #ff0000; stroke: #ff0000"/>
     <use xlink:href="#m1ac1d674b3" x="169.692191" y="157.917729" style="fill: #ff0000; stroke: #ff0000"/>
     <use xlink:href="#m1ac1d674b3" x="167.126899" y="160.167988" style="fill: #ff0000; stroke: #ff0000"/>
     <use xlink:href="#m1ac1d674b3" x="163.992773" y="161.872485" style="fill: #ff0000; stroke: #ff0000"/>
     <use xlink:href="#m1ac1d674b3" x="160.524221" y="162.601847" style="fill: #ff0000; stroke: #ff0000"/>
     <use xlink:href="#m1ac1d674b3" x="158.563214" y="166.049496" style="fill: #ff0000; stroke: #ff0000"/>
     <use xlink:href="#m1ac1d674b3" x="157.055109" y="166.368706" style="fill: #ff0000; stroke: #ff0000"/>
     <use xlink:href="#m1ac1d674b3" x="154.198263" y="168.475573" style="fill: #ff0000; stroke: #ff0000"/>
     <use xlink:href="#m1ac1d674b3" x="152.482918" y="172.349558" style="fill: #ff0000; stroke: #ff0000"/>
     <use xlink:href="#m1ac1d674b3" x="151.676104" y="174.139737" style="fill: #ff0000; stroke: #ff0000"/>
     <use xlink:href="#m1ac1d674b3" x="148.201123" y="178.467113" style="fill: #ff0000; stroke: #ff0000"/>
     <use xlink:href="#m1ac1d674b3" x="147.166429" y="181.503572" style="fill: #ff0000; stroke: #ff0000"/>
     <use xlink:href="#m1ac1d674b3" x="145.900921" y="182.760175" style="fill: #ff0000; stroke: #ff0000"/>
     <use xlink:href="#m1ac1d674b3" x="146.722009" y="188.990662" style="fill: #ff0000; stroke: #ff0000"/>
     <use xlink:href="#m1ac1d674b3" x="143.055758" y="191.093578" style="fill: #ff0000; stroke: #ff0000"/>
     <use xlink:href="#m1ac1d674b3" x="142.403154" y="194.418469" style="fill: #ff0000; stroke: #ff0000"/>
     <use xlink:href="#m1ac1d674b3" x="141.57749" y="197.656037" style="fill: #ff0000; stroke: #ff0000"/>
     <use xlink:href="#m1ac1d674b3" x="141.088809" y="201.532543" style="fill: #ff0000; stroke: #ff0000"/>
     <use xlink:href="#m1ac1d674b3" x="142.997704" y="204.949783" style="fill: #ff0000; stroke: #ff0000"/>
     <use xlink:href="#m1ac1d674b3" x="143.443079" y="208.038913" style="fill: #ff0000; stroke: #ff0000"/>
     <use xlink:href="#m1ac1d674b3" x="142.66273" y="212.056348" style="fill: #ff0000; stroke: #ff0000"/>
     <use xlink:href="#m1ac1d674b3" x="143.910617" y="217.249402" style="fill: #ff0000; stroke: #ff0000"/>
     <use xlink:href="#m1ac1d674b3" x="144.431097" y="220.640716" style="fill: #ff0000; stroke: #ff0000"/>
     <use xlink:href="#m1ac1d674b3" x="146.061548" y="224.231653" style="fill: #ff0000; stroke: #ff0000"/>
     <use xlink:href="#m1ac1d674b3" x="146.964412" y="226.731966" style="fill: #ff0000; stroke: #ff0000"/>
     <use xlink:href="#m1ac1d674b3" x="148.338449" y="230.007109" style="fill: #ff0000; stroke: #ff0000"/>
     <use xlink:href="#m1ac1d674b3" x="149.943159" y="234.605467" style="fill: #ff0000; stroke: #ff0000"/>
     <use xlink:href="#m1ac1d674b3" x="153.329311" y="236.74179" style="fill: #ff0000; stroke: #ff0000"/>
     <use xlink:href="#m1ac1d674b3" x="153.250514" y="240.036619" style="fill: #ff0000; stroke: #ff0000"/>
     <use xlink:href="#m1ac1d674b3" x="156.683771" y="244.227556" style="fill: #ff0000; stroke: #ff0000"/>
     <use xlink:href="#m1ac1d674b3" x="160.581698" y="246.784804" style="fill: #ff0000; stroke: #ff0000"/>
     <use xlink:href="#m1ac1d674b3" x="162.951397" y="250.232862" style="fill: #ff0000; stroke: #ff0000"/>
     <use xlink:href="#m1ac1d674b3" x="165.995211" y="252.811887" style="fill: #ff0000; stroke: #ff0000"/>
     <use xlink:href="#m1ac1d674b3" x="168.759202" y="255.381014" style="fill: #ff0000; stroke: #ff0000"/>
     <use xlink:href="#m1ac1d674b3" x="173.260183" y="256.079211" style="fill: #ff0000; stroke: #ff0000"/>
     <use xlink:href="#m1ac1d674b3" x="175.493655" y="258.010178" style="fill: #ff0000; stroke: #ff0000"/>
     <use xlink:href="#m1ac1d674b3" x="178.413217" y="260.981937" style="fill: #ff0000; stroke: #ff0000"/>
     <use xlink:href="#m1ac1d674b3" x="184.220285" y="261.5458" style="fill: #ff0000; stroke: #ff0000"/>
     <use xlink:href="#m1ac1d674b3" x="188.773839" y="264.786395" style="fill: #ff0000; stroke: #ff0000"/>
     <use xlink:href="#m1ac1d674b3" x="191.667522" y="265.537259" style="fill: #ff0000; stroke: #ff0000"/>
     <use xlink:href="#m1ac1d674b3" x="197.499323" y="264.487501" style="fill: #ff0000; stroke: #ff0000"/>
     <use xlink:href="#m1ac1d674b3" x="202.806586" y="266.557577" style="fill: #ff0000; stroke: #ff0000"/>
     <use xlink:href="#m1ac1d674b3" x="206.649182" y="265.506729" style="fill: #ff0000; stroke: #ff0000"/>
     <use xlink:href="#m1ac1d674b3" x="210.520014" y="266.602665" style="fill: #ff0000; stroke: #ff0000"/>
     <use xlink:href="#m1ac1d674b3" x="215.11567" y="266.005853" style="fill: #ff0000; stroke: #ff0000"/>
     <use xlink:href="#m1ac1d674b3" x="220.113392" y="266.994322" style="fill: #ff0000; stroke: #ff0000"/>
     <use xlink:href="#m1ac1d674b3" x="223.999949" y="263.753536" style="fill: #ff0000; stroke: #ff0000"/>
     <use xlink:href="#m1ac1d674b3" x="227.854673" y="262.910021" style="fill: #ff0000; stroke: #ff0000"/>
     <use xlink:href="#m1ac1d674b3" x="233.482645" y="260.220289" style="fill: #ff0000; stroke: #ff0000"/>
     <use xlink:href="#m1ac1d674b3" x="237.403432" y="260.771428" style="fill: #ff0000; stroke: #ff0000"/>
     <use xlink:href="#m1ac1d674b3" x="243.05678" y="257.356975" style="fill: #ff0000; stroke: #ff0000"/>
     <use xlink:href="#m1ac1d674b3" x="244.529378" y="254.738906" style="fill: #ff0000; stroke: #ff0000"/>
     <use xlink:href="#m1ac1d674b3" x="250.310839" y="253.594726" style="fill: #ff0000; stroke: #ff0000"/>
     <use xlink:href="#m1ac1d674b3" x="254.741329" y="249.330159" style="fill: #ff0000; stroke: #ff0000"/>
     <use xlink:href="#m1ac1d674b3" x="256.300995" y="248.130558" style="fill: #ff0000; stroke: #ff0000"/>
     <use xlink:href="#m1ac1d674b3" x="261.482966" y="243.512359" style="fill: #ff0000; stroke: #ff0000"/>
     <use xlink:href="#m1ac1d674b3" x="263.986899" y="238.340829" style="fill: #ff0000; stroke: #ff0000"/>
     <use xlink:href="#m1ac1d674b3" x="266.811496" y="236.258265" style="fill: #ff0000; stroke: #ff0000"/>
     <use xlink:href="#m1ac1d674b3" x="271.259662" y="230.880548" style="fill: #ff0000; stroke: #ff0000"/>
     <use xlink:href="#m1ac1d674b3" x="273.324599" y="228.376267" style="fill: #ff0000; stroke: #ff0000"/>
     <use xlink:href="#m1ac1d674b3" x="275.653471" y="221.814226" style="fill: #ff0000; stroke: #ff0000"/>
     <use xlink:href="#m1ac1d674b3" x="277.090669" y="219.002195" style="fill: #ff0000; stroke: #ff0000"/>
     <use xlink:href="#m1ac1d674b3" x="279.569615" y="213.331923" style="fill: #ff0000; stroke: #ff0000"/>
     <use xlink:href="#m1ac1d674b3" x="278.908349" y="208.515624" style="fill: #ff0000; stroke: #ff0000"/>
     <use xlink:href="#m1ac1d674b3" x="280.797017" y="201.781024" style="fill: #ff0000; stroke: #ff0000"/>
     <use xlink:href="#m1ac1d674b3" x="282.928783" y="196.125387" style="fill: #ff0000; stroke: #ff0000"/>
     <use xlink:href="#m1ac1d674b3" x="284.102397" y="192.561887" style="fill: #ff0000; stroke: #ff0000"/>
     <use xlink:href="#m1ac1d674b3" x="284.389843" y="185.94314" style="fill: #ff0000; stroke: #ff0000"/>
     <use xlink:href="#m1ac1d674b3" x="284.010002" y="181.249975" style="fill: #ff0000; stroke: #ff0000"/>
     <use xlink:href="#m1ac1d674b3" x="283.907886" y="175.549985" style="fill: #ff0000; stroke: #ff0000"/>
     <use xlink:href="#m1ac1d674b3" x="281.537557" y="170.338473" style="fill: #ff0000; stroke: #ff0000"/>
     <use xlink:href="#m1ac1d674b3" x="281.118202" y="165.049974" style="fill: #ff0000; stroke: #ff0000"/>
     <use xlink:href="#m1ac1d674b3" x="277.105963" y="159.452475" style="fill: #ff0000; stroke: #ff0000"/>
     <use xlink:href="#m1ac1d674b3" x="278.1705" y="153.905964" style="fill: #ff0000; stroke: #ff0000"/>
     <use xlink:href="#m1ac1d674b3" x="272.182207" y="149.941106" style="fill: #ff0000; stroke: #ff0000"/>
     <use xlink:href="#m1ac1d674b3" x="271.077686" y="143.798718" style="fill: #ff0000; stroke: #ff0000"/>
     <use xlink:href="#m1ac1d674b3" x="269.250134" y="141.258276" style="fill: #ff0000; stroke: #ff0000"/>
     <use xlink:href="#m1ac1d674b3" x="267.089081" y="134.120239" style="fill: #ff0000; stroke: #ff0000"/>
     <use xlink:href="#m1ac1d674b3" x="261.821851" y="129.981091" style="fill: #ff0000; stroke: #ff0000"/>
     <use xlink:href="#m1ac1d674b3" x="259.378943" y="125.444917" style="fill: #ff0000; stroke: #ff0000"/>
     <use xlink:href="#m1ac1d674b3" x="254.419393" y="120.595994" style="fill: #ff0000; stroke: #ff0000"/>
     <use xlink:href="#m1ac1d674b3" x="248.574818" y="119.156895" style="fill: #ff0000; stroke: #ff0000"/>
     <use xlink:href="#m1ac1d674b3" x="244.255104" y="112.653264" style="fill: #ff0000; stroke: #ff0000"/>
     <use xlink:href="#m1ac1d674b3" x="240.480762" y="110.382278" style="fill: #ff0000; stroke: #ff0000"/>
     <use xlink:href="#m1ac1d674b3" x="233.621039" y="109.271062" style="fill: #ff0000; stroke: #ff0000"/>
     <use xlink:href="#m1ac1d674b3" x="229.723827" y="105.338147" style="fill: #ff0000; stroke: #ff0000"/>
     <use xlink:href="#m1ac1d674b3" x="224.784199" y="101.996974" style="fill: #ff0000; stroke: #ff0000"/>
     <use xlink:href="#m1ac1d674b3" x="218.598502" y="100.008395" style="fill: #ff0000; stroke: #ff0000"/>
     <use xlink:href="#m1ac1d674b3" x="210.279525" y="99.718365" style="fill: #ff0000; stroke: #ff0000"/>
     <use xlink:href="#m1ac1d674b3" x="206.582644" y="97.236654" style="fill: #ff0000; stroke: #ff0000"/>
     <use xlink:href="#m1ac1d674b3" x="200.187361" y="98.925835" style="fill: #ff0000; stroke: #ff0000"/>
     <use xlink:href="#m1ac1d674b3" x="192.905557" y="95.994083" style="fill: #ff0000; stroke: #ff0000"/>
     <use xlink:href="#m1ac1d674b3" x="188.263728" y="97.839061" style="fill: #ff0000; stroke: #ff0000"/>
     <use xlink:href="#m1ac1d674b3" x="179.960181" y="99.429777" style="fill: #ff0000; stroke: #ff0000"/>
     <use xlink:href="#m1ac1d674b3" x="173.835168" y="99.45779" style="fill: #ff0000; stroke: #ff0000"/>
     <use xlink:href="#m1ac1d674b3" x="168.790849" y="99.619386" style="fill: #ff0000; stroke: #ff0000"/>
     <use xlink:href="#m1ac1d674b3" x="163.683575" y="100.45347" style="fill: #ff0000; stroke: #ff0000"/>
     <use xlink:href="#m1ac1d674b3" x="155.68833" y="103.757867" style="fill: #ff0000; stroke: #ff0000"/>
     <use xlink:href="#m1ac1d674b3" x="149.979531" y="105.620621" style="fill: #ff0000; stroke: #ff0000"/>
     <use xlink:href="#m1ac1d674b3" x="145.660035" y="107.477216" style="fill: #ff0000; stroke: #ff0000"/>
     <use xlink:href="#m1ac1d674b3" x="137.990439" y="110.822075" style="fill: #ff0000; stroke: #ff0000"/>
     <use xlink:href="#m1ac1d674b3" x="132.681045" y="113.654133" style="fill: #ff0000; stroke: #ff0000"/>
     <use xlink:href="#m1ac1d674b3" x="129.194928" y="119.037892" style="fill: #ff0000; stroke: #ff0000"/>
     <use xlink:href="#m1ac1d674b3" x="121.359565" y="121.973863" style="fill: #ff0000; stroke: #ff0000"/>
     <use xlink:href="#m1ac1d674b3" x="117.683726" y="127.622799" style="fill: #ff0000; stroke: #ff0000"/>
     <use xlink:href="#m1ac1d674b3" x="112.364738" y="133.130376" style="fill: #ff0000; stroke: #ff0000"/>
     <use xlink:href="#m1ac1d674b3" x="108.485339" y="138.949937" style="fill: #ff0000; stroke: #ff0000"/>
     <use xlink:href="#m1ac1d674b3" x="104.870208" y="144.821816" style="fill: #ff0000; stroke: #ff0000"/>
     <use xlink:href="#m1ac1d674b3" x="101.702519" y="149.366075" style="fill: #ff0000; stroke: #ff0000"/>
     <use xlink:href="#m1ac1d674b3" x="99.998357" y="156.621666" style="fill: #ff0000; stroke: #ff0000"/>
     <use xlink:href="#m1ac1d674b3" x="95.116579" y="161.787296" style="fill: #ff0000; stroke: #ff0000"/>
     <use xlink:href="#m1ac1d674b3" x="92.798613" y="168.109366" style="fill: #ff0000; stroke: #ff0000"/>
     <use xlink:href="#m1ac1d674b3" x="89.356932" y="175.361115" style="fill: #ff0000; stroke: #ff0000"/>
     <use xlink:href="#m1ac1d674b3" x="89.075049" y="182.341734" style="fill: #ff0000; stroke: #ff0000"/>
     <use xlink:href="#m1ac1d674b3" x="88.542982" y="187.229895" style="fill: #ff0000; stroke: #ff0000"/>
     <use xlink:href="#m1ac1d674b3" x="88.175755" y="196.97013" style="fill: #ff0000; stroke: #ff0000"/>
    </g>
   </g>
  </g>
 </g>
 <defs>
  <clipPath id="p439613ea0d">
   <rect x="45" y="57.254689" width="279" height="249.090623"/>
  </clipPath>
 </defs>
</svg>
