<?xml version="1.0" encoding="utf-8" standalone="no"?>
<!DOCTYPE svg PUBLIC "-//W3C//DTD SVG 1.1//EN"
  "http://www.w3.org/Graphics/SVG/1.1/DTD/svg11.dtd">
<svg xmlns:xlink="http://www.w3.org/1999/xlink" width="360pt" height="360pt" viewBox="0 0 360 360" xmlns="http://www.w3.org/2000/svg" version="1.1">
 <metadata>
  <rdf:RDF xmlns:dc="http://purl.org/dc/elements/1.1/" xmlns:cc="http://creativecommons.org/ns#" xmlns:rdf="http://www.w3.org/1999/02/22-rdf-syntax-ns#">
   <cc:Work>
    <dc:type rdf:resource="http://purl.org/dc/dcmitype/StillImage"/>
    <dc:date>2025-02-20T11:59:21.029800</dc:date>
    <dc:format>image/svg+xml</dc:format>
    <dc:creator>
     <cc:Agent>
      <dc:title>Matplotlib v3.10.0, https://matplotlib.org/</dc:title>
     </cc:Agent>
    </dc:creator>
   </cc:Work>
  </rdf:RDF>
 </metadata>
 <defs>
  <style type="text/css">*{stroke-linejoin: round; stroke-linecap: butt}</style>
 </defs>
 <g id="figure_1">
  <g id="patch_1">
   <path d="M 0 360 
L 360 360 
L 360 0 
L 0 0 
z
" style="fill: #ffffff"/>
  </g>
  <g id="axes_1">
   <g id="line2d_1">
    <path d="M 199.945411 196.29725 
L 199.002885 195.599642 
M 200.590583 195.431548 
L 199.945411 196.29725 
M 199.945427 194.972466 
L 199.002885 195.599642 
M 199.945427 194.972466 
L 199.945411 196.29725 
M 199.945427 194.972466 
L 200.590583 195.431548 
M 202.143617 196.099035 
L 199.945411 196.29725 
M 202.143617 196.099035 
L 200.590583 195.431548 
M 202.124201 194.368368 
L 200.590583 195.431548 
M 202.124201 194.368368 
L 199.945427 194.972466 
M 202.124201 194.368368 
L 202.143617 196.099035 
M 202.284278 194.125712 
L 199.945427 194.972466 
M 202.284278 194.125712 
L 202.124201 194.368368 
M 203.904689 193.749482 
L 202.143617 196.099035 
M 203.904689 193.749482 
L 202.124201 194.368368 
M 203.904689 193.749482 
L 202.284278 194.125712 
M 202.528705 191.294429 
L 199.945427 194.972466 
M 202.528705 191.294429 
L 202.284278 194.125712 
M 203.713639 192.900089 
L 202.284278 194.125712 
M 203.713639 192.900089 
L 203.904689 193.749482 
M 203.713639 192.900089 
L 202.528705 191.294429 
M 203.649643 190.426804 
L 203.904689 193.749482 
M 203.649643 190.426804 
L 202.528705 191.294429 
M 203.649643 190.426804 
L 203.713639 192.900089 
M 203.52699 190.204525 
L 202.528705 191.294429 
M 203.52699 190.204525 
L 203.649643 190.426804 
M 203.780229 188.374286 
L 203.649643 190.426804 
M 203.780229 188.374286 
L 203.52699 190.204525 
M 204.36013 186.790236 
L 203.904689 193.749482 
M 204.36013 186.790236 
L 203.649643 190.426804 
M 204.36013 186.790236 
L 203.780229 188.374286 
M 203.97676 186.661905 
L 203.780229 188.374286 
M 203.97676 186.661905 
L 204.36013 186.790236 
M 201.41167 186.990931 
L 199.002885 195.599642 
M 201.41167 186.990931 
L 199.945427 194.972466 
M 201.41167 186.990931 
L 202.528705 191.294429 
M 201.41167 186.990931 
L 203.52699 190.204525 
M 201.41167 186.990931 
L 203.780229 188.374286 
M 201.41167 186.990931 
L 203.97676 186.661905 
M 201.907986 186.04682 
L 203.97676 186.661905 
M 201.907986 186.04682 
L 201.41167 186.990931 
M 200.745884 184.105048 
L 201.41167 186.990931 
M 201.336998 184.91008 
L 203.97676 186.661905 
M 201.336998 184.91008 
L 201.41167 186.990931 
M 201.336998 184.91008 
L 201.907986 186.04682 
M 201.336998 184.91008 
L 200.745884 184.105048 
M 201.023842 182.824879 
L 204.36013 186.790236 
M 201.023842 182.824879 
L 203.97676 186.661905 
M 201.023842 182.824879 
L 200.745884 184.105048 
M 201.023842 182.824879 
L 201.336998 184.91008 
M 198.244383 182.214181 
L 201.41167 186.990931 
M 198.244383 182.214181 
L 200.745884 184.105048 
M 198.244383 182.214181 
L 201.023842 182.824879 
M 197.160685 181.233263 
L 201.023842 182.824879 
M 197.160685 181.233263 
L 198.244383 182.214181 
M 196.504595 180.592563 
L 201.023842 182.824879 
M 196.504595 180.592563 
L 197.160685 181.233263 
M 194.710725 181.815579 
L 199.002885 195.599642 
M 194.710725 181.815579 
L 201.41167 186.990931 
M 194.710725 181.815579 
L 198.244383 182.214181 
M 194.710725 181.815579 
L 197.160685 181.233263 
M 194.710725 181.815579 
L 196.504595 180.592563 
M 193.406541 179.786849 
L 196.504595 180.592563 
M 193.406541 179.786849 
L 194.710725 181.815579 
M 191.277657 179.366585 
L 193.406541 179.786849 
M 190.955642 179.780744 
L 194.710725 181.815579 
M 190.955642 179.780744 
L 193.406541 179.786849 
M 190.955642 179.780744 
L 191.277657 179.366585 
M 188.438227 181.027119 
L 199.002885 195.599642 
M 188.438227 181.027119 
L 194.710725 181.815579 
M 188.438227 181.027119 
L 190.955642 179.780744 
M 187.499702 180.954872 
L 188.438227 181.027119 
M 186.365399 180.008595 
L 191.277657 179.366585 
M 186.365399 180.008595 
L 190.955642 179.780744 
M 186.365399 180.008595 
L 188.438227 181.027119 
M 186.365399 180.008595 
L 187.499702 180.954872 
M 183.49752 180.551198 
L 187.499702 180.954872 
M 183.49752 180.551198 
L 186.365399 180.008595 
M 181.581955 180.130673 
L 186.365399 180.008595 
M 181.581955 180.130673 
L 183.49752 180.551198 
M 179.533686 182.201291 
L 183.49752 180.551198 
M 179.533686 182.201291 
L 181.581955 180.130673 
M 177.364998 183.533797 
L 181.581955 180.130673 
M 177.364998 183.533797 
L 179.533686 182.201291 
M 178.698834 185.755207 
L 199.002885 195.599642 
M 178.698834 185.755207 
L 188.438227 181.027119 
M 178.698834 185.755207 
L 187.499702 180.954872 
M 178.698834 185.755207 
L 183.49752 180.551198 
M 178.698834 185.755207 
L 179.533686 182.201291 
M 178.698834 185.755207 
L 177.364998 183.533797 
M 175.162514 187.479716 
L 177.364998 183.533797 
M 175.162514 187.479716 
L 178.698834 185.755207 
M 174.965846 188.261392 
L 178.698834 185.755207 
M 174.965846 188.261392 
L 175.162514 187.479716 
M 172.023105 190.312731 
L 177.364998 183.533797 
M 172.023105 190.312731 
L 175.162514 187.479716 
M 172.023105 190.312731 
L 174.965846 188.261392 
M 172.309781 191.776009 
L 199.002885 195.599642 
M 172.309781 191.776009 
L 178.698834 185.755207 
M 172.309781 191.776009 
L 174.965846 188.261392 
M 172.309781 191.776009 
L 172.023105 190.312731 
M 170.735938 193.853375 
L 172.023105 190.312731 
M 170.735938 193.853375 
L 172.309781 191.776009 
M 169.460802 195.887425 
L 172.023105 190.312731 
M 169.460802 195.887425 
L 170.735938 193.853375 
M 170.315101 198.338214 
L 199.002885 195.599642 
M 170.315101 198.338214 
L 172.309781 191.776009 
M 170.315101 198.338214 
L 170.735938 193.853375 
M 170.315101 198.338214 
L 169.460802 195.887425 
M 168.502346 200.750565 
L 169.460802 195.887425 
M 168.502346 200.750565 
L 170.315101 198.338214 
M 170.65453 203.448033 
L 199.002885 195.599642 
M 170.65453 203.448033 
L 170.315101 198.338214 
M 170.65453 203.448033 
L 168.502346 200.750565 
M 171.156352 205.346644 
L 199.002885 195.599642 
M 171.156352 205.346644 
L 170.65453 203.448033 
M 169.428077 208.096871 
L 168.502346 200.750565 
M 169.428077 208.096871 
L 170.65453 203.448033 
M 169.428077 208.096871 
L 171.156352 205.346644 
M 170.233269 210.936486 
L 171.156352 205.346644 
M 170.233269 210.936486 
L 169.428077 208.096871 
M 170.60651 213.706873 
L 169.428077 208.096871 
M 170.60651 213.706873 
L 170.233269 210.936486 
M 172.383194 216.140996 
L 199.002885 195.599642 
M 172.383194 216.140996 
L 171.156352 205.346644 
M 172.383194 216.140996 
L 170.233269 210.936486 
M 172.383194 216.140996 
L 170.60651 213.706873 
M 173.584787 219.239051 
L 170.60651 213.706873 
M 173.584787 219.239051 
L 172.383194 216.140996 
M 176.372452 222.125359 
L 199.002885 195.599642 
M 176.372452 222.125359 
L 199.945411 196.29725 
M 176.372452 222.125359 
L 172.383194 216.140996 
M 176.372452 222.125359 
L 173.584787 219.239051 
M 176.08061 225.004129 
L 173.584787 219.239051 
M 176.08061 225.004129 
L 176.372452 222.125359 
M 177.688266 227.157954 
L 176.372452 222.125359 
M 177.688266 227.157954 
L 176.08061 225.004129 
M 179.659529 229.294691 
L 176.372452 222.125359 
M 179.659529 229.294691 
L 177.688266 227.157954 
M 181.025878 230.478358 
L 179.659529 229.294691 
M 183.980436 231.59859 
L 199.945411 196.29725 
M 183.980436 231.59859 
L 176.372452 222.125359 
M 183.980436 231.59859 
L 179.659529 229.294691 
M 183.980436 231.59859 
L 181.025878 230.478358 
M 186.10527 234.343254 
L 181.025878 230.478358 
M 186.10527 234.343254 
L 183.980436 231.59859 
M 192.062683 235.517235 
L 199.945411 196.29725 
M 192.062683 235.517235 
L 183.980436 231.59859 
M 192.062683 235.517235 
L 186.10527 234.343254 
M 191.699937 237.001063 
L 186.10527 234.343254 
M 191.699937 237.001063 
L 192.062683 235.517235 
M 195.209405 237.704151 
L 192.062683 235.517235 
M 195.209405 237.704151 
L 191.699937 237.001063 
M 199.928189 236.40705 
L 199.945411 196.29725 
M 199.928189 236.40705 
L 202.143617 196.099035 
M 199.928189 236.40705 
L 192.062683 235.517235 
M 199.928189 236.40705 
L 195.209405 237.704151 
M 202.683243 238.177645 
L 195.209405 237.704151 
M 202.683243 238.177645 
L 199.928189 236.40705 
M 206.227903 238.071616 
L 202.143617 196.099035 
M 206.227903 238.071616 
L 199.928189 236.40705 
M 206.227903 238.071616 
L 202.683243 238.177645 
M 210.451812 238.859419 
L 202.683243 238.177645 
M 210.451812 238.859419 
L 206.227903 238.071616 
M 214.079229 238.031715 
L 202.143617 196.099035 
M 214.079229 238.031715 
L 206.227903 238.071616 
M 214.079229 238.031715 
L 210.451812 238.859419 
M 217.667897 237.295011 
L 202.143617 196.099035 
M 217.667897 237.295011 
L 214.079229 238.031715 
M 220.803381 237.275145 
L 214.079229 238.031715 
M 220.803381 237.275145 
L 217.667897 237.295011 
M 223.547665 234.581022 
L 202.143617 196.099035 
M 223.547665 234.581022 
L 217.667897 237.295011 
M 223.547665 234.581022 
L 220.803381 237.275145 
M 228.572765 233.290328 
L 220.803381 237.275145 
M 228.572765 233.290328 
L 223.547665 234.581022 
M 230.696009 231.233577 
L 202.143617 196.099035 
M 230.696009 231.233577 
L 203.904689 193.749482 
M 230.696009 231.233577 
L 223.547665 234.581022 
M 230.696009 231.233577 
L 228.572765 233.290328 
M 234.636999 229.878983 
L 228.572765 233.290328 
M 234.636999 229.878983 
L 230.696009 231.233577 
M 238.255491 228.330711 
L 234.636999 229.878983 
M 241.292654 224.81808 
L 234.636999 229.878983 
M 241.292654 224.81808 
L 238.255491 228.330711 
M 243.374962 220.94771 
L 203.904689 193.749482 
M 243.374962 220.94771 
L 230.696009 231.233577 
M 243.374962 220.94771 
L 234.636999 229.878983 
M 243.374962 220.94771 
L 241.292654 224.81808 
M 246.17412 217.555947 
L 241.292654 224.81808 
M 246.17412 217.555947 
L 243.374962 220.94771 
M 247.951508 215.24146 
L 246.17412 217.555947 
M 249.556491 209.180427 
L 203.904689 193.749482 
M 249.556491 209.180427 
L 243.374962 220.94771 
M 249.556491 209.180427 
L 246.17412 217.555947 
M 249.556491 209.180427 
L 247.951508 215.24146 
M 252.729902 206.675762 
L 247.951508 215.24146 
M 252.729902 206.675762 
L 249.556491 209.180427 
M 252.659954 204.262 
L 249.556491 209.180427 
M 252.659954 204.262 
L 252.729902 206.675762 
M 254.167697 199.122315 
L 203.904689 193.749482 
M 254.167697 199.122315 
L 249.556491 209.180427 
M 254.167697 199.122315 
L 252.729902 206.675762 
M 254.167697 199.122315 
L 252.659954 204.262 
M 255.400306 193.153476 
L 254.167697 199.122315 
M 255.121052 190.502127 
L 203.904689 193.749482 
M 255.121052 190.502127 
L 204.36013 186.790236 
M 255.121052 190.502127 
L 254.167697 199.122315 
M 255.121052 190.502127 
L 255.400306 193.153476 
M 255.638261 186.459927 
L 204.36013 186.790236 
M 255.638261 186.459927 
L 255.400306 193.153476 
M 255.638261 186.459927 
L 255.121052 190.502127 
M 256.20522 180.67122 
L 255.638261 186.459927 
M 253.5921 174.63774 
L 204.36013 186.790236 
M 253.5921 174.63774 
L 255.638261 186.459927 
M 253.5921 174.63774 
L 256.20522 180.67122 
M 254.041731 171.11826 
L 256.20522 180.67122 
M 254.041731 171.11826 
L 253.5921 174.63774 
M 249.789423 167.324722 
L 204.36013 186.790236 
M 249.789423 167.324722 
L 253.5921 174.63774 
M 249.789423 167.324722 
L 254.041731 171.11826 
M 248.979094 162.878733 
L 254.041731 171.11826 
M 248.979094 162.878733 
L 249.789423 167.324722 
M 246.725717 157.386708 
L 248.979094 162.878733 
M 244.721084 154.578648 
L 204.36013 186.790236 
M 244.721084 154.578648 
L 201.023842 182.824879 
M 244.721084 154.578648 
L 249.789423 167.324722 
M 244.721084 154.578648 
L 248.979094 162.878733 
M 244.721084 154.578648 
L 246.725717 157.386708 
M 242.567741 148.644964 
L 246.725717 157.386708 
M 242.567741 148.644964 
L 244.721084 154.578648 
M 239.974832 144.539202 
L 242.567741 148.644964 
M 235.490623 142.278341 
L 201.023842 182.824879 
M 235.490623 142.278341 
L 244.721084 154.578648 
M 235.490623 142.278341 
L 242.567741 148.644964 
M 235.490623 142.278341 
L 239.974832 144.539202 
M 229.615661 138.048792 
L 201.023842 182.824879 
M 229.615661 138.048792 
L 235.490623 142.278341 
M 226.807648 136.50846 
L 201.023842 182.824879 
M 226.807648 136.50846 
L 229.615661 138.048792 
M 221.623685 133.865454 
L 201.023842 182.824879 
M 221.623685 133.865454 
L 196.504595 180.592563 
M 221.623685 133.865454 
L 226.807648 136.50846 
M 217.431449 129.66613 
L 226.807648 136.50846 
M 217.431449 129.66613 
L 221.623685 133.865454 
M 212.329722 130.698357 
L 196.504595 180.592563 
M 212.329722 130.698357 
L 193.406541 179.786849 
M 212.329722 130.698357 
L 221.623685 133.865454 
M 212.329722 130.698357 
L 217.431449 129.66613 
M 206.773034 127.893409 
L 217.431449 129.66613 
M 206.773034 127.893409 
L 212.329722 130.698357 
M 200.407502 126.631931 
L 193.406541 179.786849 
M 200.407502 126.631931 
L 191.277657 179.366585 
M 200.407502 126.631931 
L 212.329722 130.698357 
M 200.407502 126.631931 
L 206.773034 127.893409 
M 195.899383 125.633882 
L 200.407502 126.631931 
M 189.746242 125.652733 
L 191.277657 179.366585 
M 189.746242 125.652733 
L 200.407502 126.631931 
M 189.746242 125.652733 
L 195.899383 125.633882 
M 186.651071 125.615244 
L 191.277657 179.366585 
M 186.651071 125.615244 
L 186.365399 180.008595 
M 186.651071 125.615244 
L 189.746242 125.652733 
M 179.747132 125.67512 
L 186.651071 125.615244 
M 174.513196 127.108738 
L 186.365399 180.008595 
M 174.513196 127.108738 
L 181.581955 180.130673 
M 174.513196 127.108738 
L 186.651071 125.615244 
M 174.513196 127.108738 
L 179.747132 125.67512 
M 167.970142 130.180653 
L 181.581955 180.130673 
M 167.970142 130.180653 
L 174.513196 127.108738 
M 161.741518 131.927885 
L 167.970142 130.180653 
M 157.262985 134.363213 
L 181.581955 180.130673 
M 157.262985 134.363213 
L 167.970142 130.180653 
M 157.262985 134.363213 
L 161.741518 131.927885 
M 150.932157 136.204752 
L 161.741518 131.927885 
M 150.932157 136.204752 
L 157.262985 134.363213 
M 145.462014 139.323193 
L 150.932157 136.204752 
M 141.455579 144.268986 
L 181.581955 180.130673 
M 141.455579 144.268986 
L 177.364998 183.533797 
M 141.455579 144.268986 
L 157.262985 134.363213 
M 141.455579 144.268986 
L 150.932157 136.204752 
M 141.455579 144.268986 
L 145.462014 139.323193 
M 137.136885 147.255748 
L 145.462014 139.323193 
M 137.136885 147.255748 
L 141.455579 144.268986 
M 132.768109 151.899683 
L 137.136885 147.255748 
M 129.942676 157.930871 
L 177.364998 183.533797 
M 129.942676 157.930871 
L 172.023105 190.312731 
M 129.942676 157.930871 
L 141.455579 144.268986 
M 129.942676 157.930871 
L 137.136885 147.255748 
M 129.942676 157.930871 
L 132.768109 151.899683 
M 126.058897 162.808842 
L 172.023105 190.312731 
M 126.058897 162.808842 
L 132.768109 151.899683 
M 126.058897 162.808842 
L 129.942676 157.930871 
M 120.754698 169.044339 
L 126.058897 162.808842 
M 120.382281 174.860753 
L 172.023105 190.312731 
M 120.382281 174.860753 
L 169.460802 195.887425 
M 120.382281 174.860753 
L 126.058897 162.808842 
M 120.382281 174.860753 
L 120.754698 169.044339 
M 116.74387 181.097554 
L 120.754698 169.044339 
M 116.74387 181.097554 
L 120.382281 174.860753 
M 116.708611 185.871264 
L 169.460802 195.887425 
M 116.708611 185.871264 
L 168.502346 200.750565 
M 116.708611 185.871264 
L 120.382281 174.860753 
M 116.708611 185.871264 
L 116.74387 181.097554 
M 114.607768 192.2605 
L 116.74387 181.097554 
M 114.607768 192.2605 
L 116.708611 185.871264 
M 114.608334 200.045724 
L 168.502346 200.750565 
M 114.608334 200.045724 
L 116.708611 185.871264 
M 114.608334 200.045724 
L 114.607768 192.2605 
M 114.355118 205.748394 
L 168.502346 200.750565 
M 114.355118 205.748394 
L 169.428077 208.096871 
M 114.355118 205.748394 
L 114.608334 200.045724 
M 113.063126 214.421181 
L 114.355118 205.748394 
M 116.095034 220.86377 
L 114.355118 205.748394 
M 116.095034 220.86377 
L 113.063126 214.421181 
M 119.26368 225.729756 
L 169.428077 208.096871 
M 119.26368 225.729756 
L 170.60651 213.706873 
M 119.26368 225.729756 
L 114.355118 205.748394 
M 119.26368 225.729756 
L 116.095034 220.86377 
M 119.88056 233.902647 
L 170.60651 213.706873 
M 119.88056 233.902647 
L 116.095034 220.86377 
M 119.88056 233.902647 
L 119.26368 225.729756 
M 121.479293 239.10355 
L 170.60651 213.706873 
M 121.479293 239.10355 
L 173.584787 219.239051 
M 121.479293 239.10355 
L 119.88056 233.902647 
M 125.317578 246.561115 
L 173.584787 219.239051 
M 125.317578 246.561115 
L 176.08061 225.004129 
M 125.317578 246.561115 
L 121.479293 239.10355 
M 127.42128 252.39608 
L 121.479293 239.10355 
M 127.42128 252.39608 
L 125.317578 246.561115 
M 133.451436 259.84635 
L 176.08061 225.004129 
M 133.451436 259.84635 
L 177.688266 227.157954 
M 133.451436 259.84635 
L 125.317578 246.561115 
M 133.451436 259.84635 
L 127.42128 252.39608 
M 136.452455 263.057136 
L 177.688266 227.157954 
M 136.452455 263.057136 
L 133.451436 259.84635 
M 142.895205 268.614862 
L 177.688266 227.157954 
M 142.895205 268.614862 
L 179.659529 229.294691 
M 142.895205 268.614862 
L 181.025878 230.478358 
M 142.895205 268.614862 
L 136.452455 263.057136 
M 146.011661 272.236354 
L 181.025878 230.478358 
M 146.011661 272.236354 
L 186.10527 234.343254 
M 146.011661 272.236354 
L 136.452455 263.057136 
M 146.011661 272.236354 
L 142.895205 268.614862 
M 153.39949 278.969708 
L 146.011661 272.236354 
M 161.388796 281.570428 
L 186.10527 234.343254 
M 161.388796 281.570428 
L 146.011661 272.236354 
M 161.388796 281.570428 
L 153.39949 278.969708 
M 167.416758 284.76367 
L 186.10527 234.343254 
M 167.416758 284.76367 
L 191.699937 237.001063 
M 167.416758 284.76367 
L 153.39949 278.969708 
M 167.416758 284.76367 
L 161.388796 281.570428 
M 174.479357 289.191594 
L 153.39949 278.969708 
M 174.479357 289.191594 
L 167.416758 284.76367 
M 182.054802 290.226291 
L 191.699937 237.001063 
M 182.054802 290.226291 
L 195.209405 237.704151 
M 182.054802 290.226291 
L 167.416758 284.76367 
M 182.054802 290.226291 
L 174.479357 289.191594 
M 188.269022 294.021431 
L 174.479357 289.191594 
M 188.269022 294.021431 
L 182.054802 290.226291 
M 195.057131 294.063924 
L 195.209405 237.704151 
M 195.057131 294.063924 
L 182.054802 290.226291 
M 195.057131 294.063924 
L 188.269022 294.021431 
M 203.506161 293.191885 
L 195.209405 237.704151 
M 203.506161 293.191885 
L 202.683243 238.177645 
M 203.506161 293.191885 
L 210.451812 238.859419 
M 203.506161 293.191885 
L 195.057131 294.063924 
M 210.433692 295.02301 
L 188.269022 294.021431 
M 210.433692 295.02301 
L 195.057131 294.063924 
M 210.433692 295.02301 
L 203.506161 293.191885 
M 219.554774 293.151308 
L 210.451812 238.859419 
M 219.554774 293.151308 
L 214.079229 238.031715 
M 219.554774 293.151308 
L 220.803381 237.275145 
M 219.554774 293.151308 
L 203.506161 293.191885 
M 219.554774 293.151308 
L 210.433692 295.02301 
M 225.800228 293.72637 
L 210.433692 295.02301 
M 225.800228 293.72637 
L 219.554774 293.151308 
M 234.978473 289.801008 
L 220.803381 237.275145 
M 234.978473 289.801008 
L 219.554774 293.151308 
M 234.978473 289.801008 
L 225.800228 293.72637 
M 243.473268 289.170121 
L 225.800228 293.72637 
M 243.473268 289.170121 
L 234.978473 289.801008 
M 250.881765 285.21579 
L 220.803381 237.275145 
M 250.881765 285.21579 
L 228.572765 233.290328 
M 250.881765 285.21579 
L 234.978473 289.801008 
M 250.881765 285.21579 
L 243.473268 289.170121 
M 257.274978 281.643833 
L 228.572765 233.290328 
M 257.274978 281.643833 
L 234.636999 229.878983 
M 257.274978 281.643833 
L 250.881765 285.21579 
M 265.793365 275.678892 
L 234.636999 229.878983 
M 265.793365 275.678892 
L 238.255491 228.330711 
M 265.793365 275.678892 
L 257.274978 281.643833 
M 271.580677 270.318481 
L 238.255491 228.330711 
M 271.580677 270.318481 
L 265.793365 275.678892 
M 277.410666 266.579351 
L 265.793365 275.678892 
M 277.410666 266.579351 
L 271.580677 270.318481 
M 283.377929 259.320993 
L 238.255491 228.330711 
M 283.377929 259.320993 
L 241.292654 224.81808 
M 283.377929 259.320993 
L 271.580677 270.318481 
M 283.377929 259.320993 
L 277.410666 266.579351 
M 288.806135 253.534356 
L 241.292654 224.81808 
M 288.806135 253.534356 
L 246.17412 217.555947 
M 288.806135 253.534356 
L 277.410666 266.579351 
M 288.806135 253.534356 
L 283.377929 259.320993 
M 293.015602 246.300328 
L 246.17412 217.555947 
M 293.015602 246.300328 
L 247.951508 215.24146 
M 293.015602 246.300328 
L 288.806135 253.534356 
M 299.774507 239.130574 
L 288.806135 253.534356 
M 299.774507 239.130574 
L 293.015602 246.300328 
M 301.321953 231.478942 
L 247.951508 215.24146 
M 301.321953 231.478942 
L 252.729902 206.675762 
M 301.321953 231.478942 
L 293.015602 246.300328 
M 301.321953 231.478942 
L 299.774507 239.130574 
M 304.01469 223.135541 
L 252.729902 206.675762 
M 304.01469 223.135541 
L 299.774507 239.130574 
M 304.01469 223.135541 
L 301.321953 231.478942 
M 307.405476 214.485125 
L 252.729902 206.675762 
M 307.405476 214.485125 
L 254.167697 199.122315 
M 307.405476 214.485125 
L 299.774507 239.130574 
M 307.405476 214.485125 
L 304.01469 223.135541 
M 310.807899 207.085584 
L 299.774507 239.130574 
M 310.807899 207.085584 
L 307.405476 214.485125 
M 309.634837 197.207222 
L 254.167697 199.122315 
M 309.634837 197.207222 
L 255.400306 193.153476 
M 309.634837 197.207222 
L 255.638261 186.459927 
M 309.634837 197.207222 
L 307.405476 214.485125 
M 309.634837 197.207222 
L 310.807899 207.085584 
M 311.318182 190.661044 
L 310.807899 207.085584 
M 311.318182 190.661044 
L 309.634837 197.207222 
M 310.124217 179.280842 
L 255.638261 186.459927 
M 310.124217 179.280842 
L 256.20522 180.67122 
M 310.124217 179.280842 
L 309.634837 197.207222 
M 310.124217 179.280842 
L 311.318182 190.661044 
M 309.482667 170.697998 
L 256.20522 180.67122 
M 309.482667 170.697998 
L 311.318182 190.661044 
M 309.482667 170.697998 
L 310.124217 179.280842 
M 307.736314 161.552791 
L 256.20522 180.67122 
M 307.736314 161.552791 
L 254.041731 171.11826 
M 307.736314 161.552791 
L 309.482667 170.697998 
M 306.559064 151.966727 
L 309.482667 170.697998 
M 306.559064 151.966727 
L 307.736314 161.552791 
M 303.464714 145.700358 
L 254.041731 171.11826 
M 303.464714 145.700358 
L 248.979094 162.878733 
M 303.464714 145.700358 
L 307.736314 161.552791 
M 303.464714 145.700358 
L 306.559064 151.966727 
M 298.269242 134.317772 
L 248.979094 162.878733 
M 298.269242 134.317772 
L 246.725717 157.386708 
M 298.269242 134.317772 
L 306.559064 151.966727 
M 298.269242 134.317772 
L 303.464714 145.700358 
M 293.954371 127.154774 
L 246.725717 157.386708 
M 293.954371 127.154774 
L 242.567741 148.644964 
M 293.954371 127.154774 
L 298.269242 134.317772 
M 290.501128 121.177 
L 242.567741 148.644964 
M 290.501128 121.177 
L 298.269242 134.317772 
M 290.501128 121.177 
L 293.954371 127.154774 
M 284.237041 112.44109 
L 242.567741 148.644964 
M 284.237041 112.44109 
L 239.974832 144.539202 
M 284.237041 112.44109 
L 290.501128 121.177 
M 277.666436 104.397898 
L 239.974832 144.539202 
M 277.666436 104.397898 
L 284.237041 112.44109 
M 271.996312 97.844713 
L 277.666436 104.397898 
M 261.567451 93.162664 
L 239.974832 144.539202 
M 261.567451 93.162664 
L 235.490623 142.278341 
M 261.567451 93.162664 
L 229.615661 138.048792 
M 261.567451 93.162664 
L 226.807648 136.50846 
M 261.567451 93.162664 
L 277.666436 104.397898 
M 261.567451 93.162664 
L 271.996312 97.844713 
M 255.399846 86.495169 
L 271.996312 97.844713 
M 255.399846 86.495169 
L 261.567451 93.162664 
M 246.405922 84.236656 
L 226.807648 136.50846 
M 246.405922 84.236656 
L 217.431449 129.66613 
M 246.405922 84.236656 
L 261.567451 93.162664 
M 246.405922 84.236656 
L 255.399846 86.495169 
M 238.279949 77.62512 
L 255.399846 86.495169 
M 238.279949 77.62512 
L 246.405922 84.236656 
M 228.142323 76.085766 
L 217.431449 129.66613 
M 228.142323 76.085766 
L 246.405922 84.236656 
M 228.142323 76.085766 
L 238.279949 77.62512 
M 219.255346 74.612657 
L 217.431449 129.66613 
M 219.255346 74.612657 
L 206.773034 127.893409 
M 219.255346 74.612657 
L 200.407502 126.631931 
M 219.255346 74.612657 
L 228.142323 76.085766 
M 210.419154 71.919711 
L 200.407502 126.631931 
M 210.419154 71.919711 
L 195.899383 125.633882 
M 210.419154 71.919711 
L 238.279949 77.62512 
M 210.419154 71.919711 
L 228.142323 76.085766 
M 210.419154 71.919711 
L 219.255346 74.612657 
M 200.731178 69.722703 
L 195.899383 125.633882 
M 200.731178 69.722703 
L 189.746242 125.652733 
M 200.731178 69.722703 
L 238.279949 77.62512 
M 200.731178 69.722703 
L 210.419154 71.919711 
M 189.144015 68.57699 
L 189.746242 125.652733 
M 189.144015 68.57699 
L 200.731178 69.722703 
M 180.652468 70.293676 
L 189.746242 125.652733 
M 180.652468 70.293676 
L 186.651071 125.615244 
M 180.652468 70.293676 
L 179.747132 125.67512 
M 180.652468 70.293676 
L 189.144015 68.57699 
M 169.022921 70.970799 
L 179.747132 125.67512 
M 169.022921 70.970799 
L 174.513196 127.108738 
M 169.022921 70.970799 
L 189.144015 68.57699 
M 169.022921 70.970799 
L 180.652468 70.293676 
M 159.811789 72.050452 
L 174.513196 127.108738 
M 159.811789 72.050452 
L 189.144015 68.57699 
M 159.811789 72.050452 
L 169.022921 70.970799 
M 149.36979 75.030223 
L 174.513196 127.108738 
M 149.36979 75.030223 
L 167.970142 130.180653 
M 149.36979 75.030223 
L 161.741518 131.927885 
M 149.36979 75.030223 
L 159.811789 72.050452 
M 140.262068 77.908725 
L 161.741518 131.927885 
M 140.262068 77.908725 
L 149.36979 75.030223 
M 130.7678 83.746637 
L 161.741518 131.927885 
M 130.7678 83.746637 
L 150.932157 136.204752 
M 130.7678 83.746637 
L 140.262068 77.908725 
M 121.897654 87.537156 
L 150.932157 136.204752 
M 121.897654 87.537156 
L 140.262068 77.908725 
M 121.897654 87.537156 
L 130.7678 83.746637 
M 112.941018 94.430274 
L 150.932157 136.204752 
M 112.941018 94.430274 
L 145.462014 139.323193 
M 112.941018 94.430274 
L 121.897654 87.537156 
M 103.836349 101.557514 
L 145.462014 139.323193 
M 103.836349 101.557514 
L 137.136885 147.255748 
M 103.836349 101.557514 
L 112.941018 94.430274 
M 96.115053 109.35478 
L 137.136885 147.255748 
M 96.115053 109.35478 
L 103.836349 101.557514 
M 90.232044 117.541786 
L 137.136885 147.255748 
M 90.232044 117.541786 
L 132.768109 151.899683 
M 90.232044 117.541786 
L 96.115053 109.35478 
M 83.25291 124.71494 
L 132.768109 151.899683 
M 83.25291 124.71494 
L 126.058897 162.808842 
M 83.25291 124.71494 
L 96.115053 109.35478 
M 83.25291 124.71494 
L 90.232044 117.541786 
M 77.001564 134.886673 
L 126.058897 162.808842 
M 77.001564 134.886673 
L 120.754698 169.044339 
M 77.001564 134.886673 
L 83.25291 124.71494 
M 72.284138 143.226495 
L 120.754698 169.044339 
M 72.284138 143.226495 
L 77.001564 134.886673 
M 67.953986 152.949144 
L 120.754698 169.044339 
M 67.953986 152.949144 
L 72.284138 143.226495 
M 65.009287 163.793964 
L 120.754698 169.044339 
M 65.009287 163.793964 
L 116.74387 181.097554 
M 65.009287 163.793964 
L 67.953986 152.949144 
M 62.441169 174.524272 
L 116.74387 181.097554 
M 62.441169 174.524272 
L 114.607768 192.2605 
M 62.441169 174.524272 
L 65.009287 163.793964 
M 57.681818 183.281152 
L 67.953986 152.949144 
M 57.681818 183.281152 
L 65.009287 163.793964 
M 57.681818 183.281152 
L 62.441169 174.524272 
M 59.277768 196.97013 
L 114.607768 192.2605 
M 59.277768 196.97013 
L 114.608334 200.045724 
M 59.277768 196.97013 
L 114.355118 205.748394 
M 59.277768 196.97013 
L 113.063126 214.421181 
M 59.277768 196.97013 
L 116.095034 220.86377 
M 59.277768 196.97013 
L 119.88056 233.902647 
M 59.277768 196.97013 
L 121.479293 239.10355 
M 59.277768 196.97013 
L 127.42128 252.39608 
M 59.277768 196.97013 
L 133.451436 259.84635 
M 59.277768 196.97013 
L 136.452455 263.057136 
M 59.277768 196.97013 
L 146.011661 272.236354 
M 59.277768 196.97013 
L 153.39949 278.969708 
M 59.277768 196.97013 
L 62.441169 174.524272 
M 59.277768 196.97013 
L 57.681818 183.281152 
L 57.681818 183.281152 
" clip-path="url(#pab5d8546f2)" style="fill: none; stroke: #0000ff; stroke-width: 0.5; stroke-linecap: square"/>
   </g>
   <g id="line2d_2"/>
   <g id="PathCollection_1">
    <defs>
     <path id="mf2941076ae" d="M 0 0.707107 
C 0.187527 0.707107 0.367398 0.632602 0.5 0.5 
C 0.632602 0.367398 0.707107 0.187527 0.707107 0 
C 0.707107 -0.187527 0.632602 -0.367398 0.5 -0.5 
C 0.367398 -0.632602 0.187527 -0.707107 0 -0.707107 
C -0.187527 -0.707107 -0.367398 -0.632602 -0.5 -0.5 
C -0.632602 -0.367398 -0.707107 -0.187527 -0.707107 0 
C -0.707107 0.187527 -0.632602 0.367398 -0.5 0.5 
C -0.367398 0.632602 -0.187527 0.707107 0 0.707107 
z
" style="stroke: #000000"/>
    </defs>
    <g clip-path="url(#pab5d8546f2)">
     <use xlink:href="#mf2941076ae" x="199.002885" y="195.599642" style="stroke: #000000"/>
     <use xlink:href="#mf2941076ae" x="199.945411" y="196.29725" style="stroke: #000000"/>
     <use xlink:href="#mf2941076ae" x="200.590583" y="195.431548" style="stroke: #000000"/>
     <use xlink:href="#mf2941076ae" x="199.945427" y="194.972466" style="stroke: #000000"/>
     <use xlink:href="#mf2941076ae" x="202.143617" y="196.099035" style="stroke: #000000"/>
     <use xlink:href="#mf2941076ae" x="202.124201" y="194.368368" style="stroke: #000000"/>
     <use xlink:href="#mf2941076ae" x="202.284278" y="194.125712" style="stroke: #000000"/>
     <use xlink:href="#mf2941076ae" x="203.904689" y="193.749482" style="stroke: #000000"/>
     <use xlink:href="#mf2941076ae" x="202.528705" y="191.294429" style="stroke: #000000"/>
     <use xlink:href="#mf2941076ae" x="203.713639" y="192.900089" style="stroke: #000000"/>
     <use xlink:href="#mf2941076ae" x="203.649643" y="190.426804" style="stroke: #000000"/>
     <use xlink:href="#mf2941076ae" x="203.52699" y="190.204525" style="stroke: #000000"/>
     <use xlink:href="#mf2941076ae" x="203.780229" y="188.374286" style="stroke: #000000"/>
     <use xlink:href="#mf2941076ae" x="204.36013" y="186.790236" style="stroke: #000000"/>
     <use xlink:href="#mf2941076ae" x="203.97676" y="186.661905" style="stroke: #000000"/>
     <use xlink:href="#mf2941076ae" x="201.41167" y="186.990931" style="stroke: #000000"/>
     <use xlink:href="#mf2941076ae" x="201.907986" y="186.04682" style="stroke: #000000"/>
     <use xlink:href="#mf2941076ae" x="200.745884" y="184.105048" style="stroke: #000000"/>
     <use xlink:href="#mf2941076ae" x="201.336998" y="184.91008" style="stroke: #000000"/>
     <use xlink:href="#mf2941076ae" x="201.023842" y="182.824879" style="stroke: #000000"/>
     <use xlink:href="#mf2941076ae" x="198.244383" y="182.214181" style="stroke: #000000"/>
     <use xlink:href="#mf2941076ae" x="197.160685" y="181.233263" style="stroke: #000000"/>
     <use xlink:href="#mf2941076ae" x="196.504595" y="180.592563" style="stroke: #000000"/>
     <use xlink:href="#mf2941076ae" x="194.710725" y="181.815579" style="stroke: #000000"/>
     <use xlink:href="#mf2941076ae" x="193.406541" y="179.786849" style="stroke: #000000"/>
     <use xlink:href="#mf2941076ae" x="191.277657" y="179.366585" style="stroke: #000000"/>
     <use xlink:href="#mf2941076ae" x="190.955642" y="179.780744" style="stroke: #000000"/>
     <use xlink:href="#mf2941076ae" x="188.438227" y="181.027119" style="stroke: #000000"/>
     <use xlink:href="#mf2941076ae" x="187.499702" y="180.954872" style="stroke: #000000"/>
     <use xlink:href="#mf2941076ae" x="186.365399" y="180.008595" style="stroke: #000000"/>
     <use xlink:href="#mf2941076ae" x="183.49752" y="180.551198" style="stroke: #000000"/>
     <use xlink:href="#mf2941076ae" x="181.581955" y="180.130673" style="stroke: #000000"/>
     <use xlink:href="#mf2941076ae" x="179.533686" y="182.201291" style="stroke: #000000"/>
     <use xlink:href="#mf2941076ae" x="177.364998" y="183.533797" style="stroke: #000000"/>
     <use xlink:href="#mf2941076ae" x="178.698834" y="185.755207" style="stroke: #000000"/>
     <use xlink:href="#mf2941076ae" x="175.162514" y="187.479716" style="stroke: #000000"/>
     <use xlink:href="#mf2941076ae" x="174.965846" y="188.261392" style="stroke: #000000"/>
     <use xlink:href="#mf2941076ae" x="172.023105" y="190.312731" style="stroke: #000000"/>
     <use xlink:href="#mf2941076ae" x="172.309781" y="191.776009" style="stroke: #000000"/>
     <use xlink:href="#mf2941076ae" x="170.735938" y="193.853375" style="stroke: #000000"/>
     <use xlink:href="#mf2941076ae" x="169.460802" y="195.887425" style="stroke: #000000"/>
     <use xlink:href="#mf2941076ae" x="170.315101" y="198.338214" style="stroke: #000000"/>
     <use xlink:href="#mf2941076ae" x="168.502346" y="200.750565" style="stroke: #000000"/>
     <use xlink:href="#mf2941076ae" x="170.65453" y="203.448033" style="stroke: #000000"/>
     <use xlink:href="#mf2941076ae" x="171.156352" y="205.346644" style="stroke: #000000"/>
     <use xlink:href="#mf2941076ae" x="169.428077" y="208.096871" style="stroke: #000000"/>
     <use xlink:href="#mf2941076ae" x="170.233269" y="210.936486" style="stroke: #000000"/>
     <use xlink:href="#mf2941076ae" x="170.60651" y="213.706873" style="stroke: #000000"/>
     <use xlink:href="#mf2941076ae" x="172.383194" y="216.140996" style="stroke: #000000"/>
     <use xlink:href="#mf2941076ae" x="173.584787" y="219.239051" style="stroke: #000000"/>
     <use xlink:href="#mf2941076ae" x="176.372452" y="222.125359" style="stroke: #000000"/>
     <use xlink:href="#mf2941076ae" x="176.08061" y="225.004129" style="stroke: #000000"/>
     <use xlink:href="#mf2941076ae" x="177.688266" y="227.157954" style="stroke: #000000"/>
     <use xlink:href="#mf2941076ae" x="179.659529" y="229.294691" style="stroke: #000000"/>
     <use xlink:href="#mf2941076ae" x="181.025878" y="230.478358" style="stroke: #000000"/>
     <use xlink:href="#mf2941076ae" x="183.980436" y="231.59859" style="stroke: #000000"/>
     <use xlink:href="#mf2941076ae" x="186.10527" y="234.343254" style="stroke: #000000"/>
     <use xlink:href="#mf2941076ae" x="192.062683" y="235.517235" style="stroke: #000000"/>
     <use xlink:href="#mf2941076ae" x="191.699937" y="237.001063" style="stroke: #000000"/>
     <use xlink:href="#mf2941076ae" x="195.209405" y="237.704151" style="stroke: #000000"/>
     <use xlink:href="#mf2941076ae" x="199.928189" y="236.40705" style="stroke: #000000"/>
     <use xlink:href="#mf2941076ae" x="202.683243" y="238.177645" style="stroke: #000000"/>
     <use xlink:href="#mf2941076ae" x="206.227903" y="238.071616" style="stroke: #000000"/>
     <use xlink:href="#mf2941076ae" x="210.451812" y="238.859419" style="stroke: #000000"/>
     <use xlink:href="#mf2941076ae" x="214.079229" y="238.031715" style="stroke: #000000"/>
     <use xlink:href="#mf2941076ae" x="217.667897" y="237.295011" style="stroke: #000000"/>
     <use xlink:href="#mf2941076ae" x="220.803381" y="237.275145" style="stroke: #000000"/>
     <use xlink:href="#mf2941076ae" x="223.547665" y="234.581022" style="stroke: #000000"/>
     <use xlink:href="#mf2941076ae" x="228.572765" y="233.290328" style="stroke: #000000"/>
     <use xlink:href="#mf2941076ae" x="230.696009" y="231.233577" style="stroke: #000000"/>
     <use xlink:href="#mf2941076ae" x="234.636999" y="229.878983" style="stroke: #000000"/>
     <use xlink:href="#mf2941076ae" x="238.255491" y="228.330711" style="stroke: #000000"/>
     <use xlink:href="#mf2941076ae" x="241.292654" y="224.81808" style="stroke: #000000"/>
     <use xlink:href="#mf2941076ae" x="243.374962" y="220.94771" style="stroke: #000000"/>
     <use xlink:href="#mf2941076ae" x="246.17412" y="217.555947" style="stroke: #000000"/>
     <use xlink:href="#mf2941076ae" x="247.951508" y="215.24146" style="stroke: #000000"/>
     <use xlink:href="#mf2941076ae" x="249.556491" y="209.180427" style="stroke: #000000"/>
     <use xlink:href="#mf2941076ae" x="252.729902" y="206.675762" style="stroke: #000000"/>
     <use xlink:href="#mf2941076ae" x="252.659954" y="204.262" style="stroke: #000000"/>
     <use xlink:href="#mf2941076ae" x="254.167697" y="199.122315" style="stroke: #000000"/>
     <use xlink:href="#mf2941076ae" x="255.400306" y="193.153476" style="stroke: #000000"/>
     <use xlink:href="#mf2941076ae" x="255.121052" y="190.502127" style="stroke: #000000"/>
     <use xlink:href="#mf2941076ae" x="255.638261" y="186.459927" style="stroke: #000000"/>
     <use xlink:href="#mf2941076ae" x="256.20522" y="180.67122" style="stroke: #000000"/>
     <use xlink:href="#mf2941076ae" x="253.5921" y="174.63774" style="stroke: #000000"/>
     <use xlink:href="#mf2941076ae" x="254.041731" y="171.11826" style="stroke: #000000"/>
     <use xlink:href="#mf2941076ae" x="249.789423" y="167.324722" style="stroke: #000000"/>
     <use xlink:href="#mf2941076ae" x="248.979094" y="162.878733" style="stroke: #000000"/>
     <use xlink:href="#mf2941076ae" x="246.725717" y="157.386708" style="stroke: #000000"/>
     <use xlink:href="#mf2941076ae" x="244.721084" y="154.578648" style="stroke: #000000"/>
     <use xlink:href="#mf2941076ae" x="242.567741" y="148.644964" style="stroke: #000000"/>
     <use xlink:href="#mf2941076ae" x="239.974832" y="144.539202" style="stroke: #000000"/>
     <use xlink:href="#mf2941076ae" x="235.490623" y="142.278341" style="stroke: #000000"/>
     <use xlink:href="#mf2941076ae" x="229.615661" y="138.048792" style="stroke: #000000"/>
     <use xlink:href="#mf2941076ae" x="226.807648" y="136.50846" style="stroke: #000000"/>
     <use xlink:href="#mf2941076ae" x="221.623685" y="133.865454" style="stroke: #000000"/>
     <use xlink:href="#mf2941076ae" x="217.431449" y="129.66613" style="stroke: #000000"/>
     <use xlink:href="#mf2941076ae" x="212.329722" y="130.698357" style="stroke: #000000"/>
     <use xlink:href="#mf2941076ae" x="206.773034" y="127.893409" style="stroke: #000000"/>
     <use xlink:href="#mf2941076ae" x="200.407502" y="126.631931" style="stroke: #000000"/>
     <use xlink:href="#mf2941076ae" x="195.899383" y="125.633882" style="stroke: #000000"/>
     <use xlink:href="#mf2941076ae" x="189.746242" y="125.652733" style="stroke: #000000"/>
     <use xlink:href="#mf2941076ae" x="186.651071" y="125.615244" style="stroke: #000000"/>
     <use xlink:href="#mf2941076ae" x="179.747132" y="125.67512" style="stroke: #000000"/>
     <use xlink:href="#mf2941076ae" x="174.513196" y="127.108738" style="stroke: #000000"/>
     <use xlink:href="#mf2941076ae" x="167.970142" y="130.180653" style="stroke: #000000"/>
     <use xlink:href="#mf2941076ae" x="161.741518" y="131.927885" style="stroke: #000000"/>
     <use xlink:href="#mf2941076ae" x="157.262985" y="134.363213" style="stroke: #000000"/>
     <use xlink:href="#mf2941076ae" x="150.932157" y="136.204752" style="stroke: #000000"/>
     <use xlink:href="#mf2941076ae" x="145.462014" y="139.323193" style="stroke: #000000"/>
     <use xlink:href="#mf2941076ae" x="141.455579" y="144.268986" style="stroke: #000000"/>
     <use xlink:href="#mf2941076ae" x="137.136885" y="147.255748" style="stroke: #000000"/>
     <use xlink:href="#mf2941076ae" x="132.768109" y="151.899683" style="stroke: #000000"/>
     <use xlink:href="#mf2941076ae" x="129.942676" y="157.930871" style="stroke: #000000"/>
     <use xlink:href="#mf2941076ae" x="126.058897" y="162.808842" style="stroke: #000000"/>
     <use xlink:href="#mf2941076ae" x="120.754698" y="169.044339" style="stroke: #000000"/>
     <use xlink:href="#mf2941076ae" x="120.382281" y="174.860753" style="stroke: #000000"/>
     <use xlink:href="#mf2941076ae" x="116.74387" y="181.097554" style="stroke: #000000"/>
     <use xlink:href="#mf2941076ae" x="116.708611" y="185.871264" style="stroke: #000000"/>
     <use xlink:href="#mf2941076ae" x="114.607768" y="192.2605" style="stroke: #000000"/>
     <use xlink:href="#mf2941076ae" x="114.608334" y="200.045724" style="stroke: #000000"/>
     <use xlink:href="#mf2941076ae" x="114.355118" y="205.748394" style="stroke: #000000"/>
     <use xlink:href="#mf2941076ae" x="113.063126" y="214.421181" style="stroke: #000000"/>
     <use xlink:href="#mf2941076ae" x="116.095034" y="220.86377" style="stroke: #000000"/>
     <use xlink:href="#mf2941076ae" x="119.26368" y="225.729756" style="stroke: #000000"/>
     <use xlink:href="#mf2941076ae" x="119.88056" y="233.902647" style="stroke: #000000"/>
     <use xlink:href="#mf2941076ae" x="121.479293" y="239.10355" style="stroke: #000000"/>
     <use xlink:href="#mf2941076ae" x="125.317578" y="246.561115" style="stroke: #000000"/>
     <use xlink:href="#mf2941076ae" x="127.42128" y="252.39608" style="stroke: #000000"/>
     <use xlink:href="#mf2941076ae" x="133.451436" y="259.84635" style="stroke: #000000"/>
     <use xlink:href="#mf2941076ae" x="136.452455" y="263.057136" style="stroke: #000000"/>
     <use xlink:href="#mf2941076ae" x="142.895205" y="268.614862" style="stroke: #000000"/>
     <use xlink:href="#mf2941076ae" x="146.011661" y="272.236354" style="stroke: #000000"/>
     <use xlink:href="#mf2941076ae" x="153.39949" y="278.969708" style="stroke: #000000"/>
     <use xlink:href="#mf2941076ae" x="161.388796" y="281.570428" style="stroke: #000000"/>
     <use xlink:href="#mf2941076ae" x="167.416758" y="284.76367" style="stroke: #000000"/>
     <use xlink:href="#mf2941076ae" x="174.479357" y="289.191594" style="stroke: #000000"/>
     <use xlink:href="#mf2941076ae" x="182.054802" y="290.226291" style="stroke: #000000"/>
     <use xlink:href="#mf2941076ae" x="188.269022" y="294.021431" style="stroke: #000000"/>
     <use xlink:href="#mf2941076ae" x="195.057131" y="294.063924" style="stroke: #000000"/>
     <use xlink:href="#mf2941076ae" x="203.506161" y="293.191885" style="stroke: #000000"/>
     <use xlink:href="#mf2941076ae" x="210.433692" y="295.02301" style="stroke: #000000"/>
     <use xlink:href="#mf2941076ae" x="219.554774" y="293.151308" style="stroke: #000000"/>
     <use xlink:href="#mf2941076ae" x="225.800228" y="293.72637" style="stroke: #000000"/>
     <use xlink:href="#mf2941076ae" x="234.978473" y="289.801008" style="stroke: #000000"/>
     <use xlink:href="#mf2941076ae" x="243.473268" y="289.170121" style="stroke: #000000"/>
     <use xlink:href="#mf2941076ae" x="250.881765" y="285.21579" style="stroke: #000000"/>
     <use xlink:href="#mf2941076ae" x="257.274978" y="281.643833" style="stroke: #000000"/>
     <use xlink:href="#mf2941076ae" x="265.793365" y="275.678892" style="stroke: #000000"/>
     <use xlink:href="#mf2941076ae" x="271.580677" y="270.318481" style="stroke: #000000"/>
     <use xlink:href="#mf2941076ae" x="277.410666" y="266.579351" style="stroke: #000000"/>
     <use xlink:href="#mf2941076ae" x="283.377929" y="259.320993" style="stroke: #000000"/>
     <use xlink:href="#mf2941076ae" x="288.806135" y="253.534356" style="stroke: #000000"/>
     <use xlink:href="#mf2941076ae" x="293.015602" y="246.300328" style="stroke: #000000"/>
     <use xlink:href="#mf2941076ae" x="299.774507" y="239.130574" style="stroke: #000000"/>
     <use xlink:href="#mf2941076ae" x="301.321953" y="231.478942" style="stroke: #000000"/>
     <use xlink:href="#mf2941076ae" x="304.01469" y="223.135541" style="stroke: #000000"/>
     <use xlink:href="#mf2941076ae" x="307.405476" y="214.485125" style="stroke: #000000"/>
     <use xlink:href="#mf2941076ae" x="310.807899" y="207.085584" style="stroke: #000000"/>
     <use xlink:href="#mf2941076ae" x="309.634837" y="197.207222" style="stroke: #000000"/>
     <use xlink:href="#mf2941076ae" x="311.318182" y="190.661044" style="stroke: #000000"/>
     <use xlink:href="#mf2941076ae" x="310.124217" y="179.280842" style="stroke: #000000"/>
     <use xlink:href="#mf2941076ae" x="309.482667" y="170.697998" style="stroke: #000000"/>
     <use xlink:href="#mf2941076ae" x="307.736314" y="161.552791" style="stroke: #000000"/>
     <use xlink:href="#mf2941076ae" x="306.559064" y="151.966727" style="stroke: #000000"/>
     <use xlink:href="#mf2941076ae" x="303.464714" y="145.700358" style="stroke: #000000"/>
     <use xlink:href="#mf2941076ae" x="298.269242" y="134.317772" style="stroke: #000000"/>
     <use xlink:href="#mf2941076ae" x="293.954371" y="127.154774" style="stroke: #000000"/>
     <use xlink:href="#mf2941076ae" x="290.501128" y="121.177" style="stroke: #000000"/>
     <use xlink:href="#mf2941076ae" x="284.237041" y="112.44109" style="stroke: #000000"/>
     <use xlink:href="#mf2941076ae" x="277.666436" y="104.397898" style="stroke: #000000"/>
     <use xlink:href="#mf2941076ae" x="271.996312" y="97.844713" style="stroke: #000000"/>
     <use xlink:href="#mf2941076ae" x="261.567451" y="93.162664" style="stroke: #000000"/>
     <use xlink:href="#mf2941076ae" x="255.399846" y="86.495169" style="stroke: #000000"/>
     <use xlink:href="#mf2941076ae" x="246.405922" y="84.236656" style="stroke: #000000"/>
     <use xlink:href="#mf2941076ae" x="238.279949" y="77.62512" style="stroke: #000000"/>
     <use xlink:href="#mf2941076ae" x="228.142323" y="76.085766" style="stroke: #000000"/>
     <use xlink:href="#mf2941076ae" x="219.255346" y="74.612657" style="stroke: #000000"/>
     <use xlink:href="#mf2941076ae" x="210.419154" y="71.919711" style="stroke: #000000"/>
     <use xlink:href="#mf2941076ae" x="200.731178" y="69.722703" style="stroke: #000000"/>
     <use xlink:href="#mf2941076ae" x="189.144015" y="68.57699" style="stroke: #000000"/>
     <use xlink:href="#mf2941076ae" x="180.652468" y="70.293676" style="stroke: #000000"/>
     <use xlink:href="#mf2941076ae" x="169.022921" y="70.970799" style="stroke: #000000"/>
     <use xlink:href="#mf2941076ae" x="159.811789" y="72.050452" style="stroke: #000000"/>
     <use xlink:href="#mf2941076ae" x="149.36979" y="75.030223" style="stroke: #000000"/>
     <use xlink:href="#mf2941076ae" x="140.262068" y="77.908725" style="stroke: #000000"/>
     <use xlink:href="#mf2941076ae" x="130.7678" y="83.746637" style="stroke: #000000"/>
     <use xlink:href="#mf2941076ae" x="121.897654" y="87.537156" style="stroke: #000000"/>
     <use xlink:href="#mf2941076ae" x="112.941018" y="94.430274" style="stroke: #000000"/>
     <use xlink:href="#mf2941076ae" x="103.836349" y="101.557514" style="stroke: #000000"/>
     <use xlink:href="#mf2941076ae" x="96.115053" y="109.35478" style="stroke: #000000"/>
     <use xlink:href="#mf2941076ae" x="90.232044" y="117.541786" style="stroke: #000000"/>
     <use xlink:href="#mf2941076ae" x="83.25291" y="124.71494" style="stroke: #000000"/>
     <use xlink:href="#mf2941076ae" x="77.001564" y="134.886673" style="stroke: #000000"/>
     <use xlink:href="#mf2941076ae" x="72.284138" y="143.226495" style="stroke: #000000"/>
     <use xlink:href="#mf2941076ae" x="67.953986" y="152.949144" style="stroke: #000000"/>
     <use xlink:href="#mf2941076ae" x="65.009287" y="163.793964" style="stroke: #000000"/>
     <use xlink:href="#mf2941076ae" x="62.441169" y="174.524272" style="stroke: #000000"/>
     <use xlink:href="#mf2941076ae" x="57.681818" y="183.281152" style="stroke: #000000"/>
     <use xlink:href="#mf2941076ae" x="59.277768" y="196.97013" style="stroke: #000000"/>
    </g>
   </g>
  </g>
 </g>
 <defs>
  <clipPath id="pab5d8546f2">
   <rect x="45" y="57.254689" width="279" height="249.090623"/>
  </clipPath>
 </defs>
</svg>
