<?xml version="1.0" encoding="UTF-8" standalone="no"?>
<!DOCTYPE svg PUBLIC "-//W3C//DTD SVG 1.1//EN" "http://www.w3.org/Graphics/SVG/1.1/DTD/svg11.dtd">
<svg xmlns="http://www.w3.org/2000/svg" xmlns:xlink="http://www.w3.org/1999/xlink" version="1.1" width="2002.6665pt" height="2002.6665pt" viewBox="0 0 2002.6665 2002.6665">
<g enable-background="new">
<clipPath id="cp0">
<path transform="matrix(.6666666,0,0,.6666666,0,0)" d="M 0 0 L 3005 0 L 3005 3005 L 0 3005 Z " fill-rule="evenodd"/>
</clipPath>
<g clip-path="url(#cp0)">
<path transform="matrix(2.0833333,0,0,2.0833333,0,0)" d="M 0 0 L 962 0 L 962 962 L 0 962 Z " fill="#ffffff"/>
</g>
<clipPath id="cp1">
<path transform="matrix(.6666666,0,0,.6666666,0,0)" d="M 0 0 L 3005 0 L 3005 3005 L 0 3005 Z " fill-rule="evenodd"/>
</clipPath>
<g clip-path="url(#cp1)">
<path transform="matrix(2.0009697,0,0,2.0009697,-1.0004848,-1.0004848)" stroke-width="3" stroke-linecap="butt" stroke-miterlimit="10" stroke-linejoin="miter" fill="none" stroke="#808080" d="M 314 540 L 546 611 "/>
<path transform="matrix(2.0009697,0,0,2.0009697,-1.0004848,-1.0004848)" stroke-width="3" stroke-linecap="butt" stroke-miterlimit="10" stroke-linejoin="miter" fill="none" stroke="#808080" d="M 314 540 L 476 737 "/>
<path transform="matrix(2.0009697,0,0,2.0009697,-1.0004848,-1.0004848)" stroke-width="3" stroke-linecap="butt" stroke-miterlimit="10" stroke-linejoin="miter" fill="none" stroke="#808080" d="M 466 727 L 235 866 "/>
<path transform="matrix(2.0009697,0,0,2.0009697,-1.0004848,-1.0004848)" stroke-width="3" stroke-linecap="butt" stroke-miterlimit="10" stroke-linejoin="miter" fill="none" stroke="#808080" d="M 283 412 L 235 866 "/>
<path transform="matrix(2.0009697,0,0,2.0009697,-1.0004848,-1.0004848)" stroke-width="3" stroke-linecap="butt" stroke-miterlimit="10" stroke-linejoin="miter" fill="none" stroke="#808080" d="M 293 422 L 314 540 "/>
<path transform="matrix(2.0009697,0,0,2.0009697,-1.0004848,-1.0004848)" stroke-width="3" stroke-linecap="butt" stroke-miterlimit="10" stroke-linejoin="miter" fill="none" stroke="#808080" d="M 293 422 L 283 412 "/>
<path transform="matrix(2.0009697,0,0,2.0009697,-1.0004848,-1.0004848)" stroke-width="3" stroke-linecap="butt" stroke-miterlimit="10" stroke-linejoin="miter" fill="none" stroke="#808080" d="M 800 476 L 283 412 "/>
<path transform="matrix(2.0009697,0,0,2.0009697,-1.0004848,-1.0004848)" stroke-width="3" stroke-linecap="butt" stroke-miterlimit="10" stroke-linejoin="miter" fill="none" stroke="#808080" d="M 314 540 L 293 422 "/>
<path transform="matrix(2.0009697,0,0,2.0009697,-1.0004848,-1.0004848)" stroke-width="3" stroke-linecap="butt" stroke-miterlimit="10" stroke-linejoin="miter" fill="none" stroke="#808080" d="M 466 727 L 658 831 "/>
<path transform="matrix(2.0009697,0,0,2.0009697,-1.0004848,-1.0004848)" stroke-width="3" stroke-linecap="butt" stroke-miterlimit="10" stroke-linejoin="miter" fill="none" stroke="#808080" d="M 476 737 L 225 856 "/>
<path transform="matrix(2.0009697,0,0,2.0009697,-1.0004848,-1.0004848)" stroke-width="3" stroke-linecap="butt" stroke-miterlimit="10" stroke-linejoin="miter" fill="none" stroke="#808080" d="M 648 821 L 235 866 "/>
<path transform="matrix(2.0009697,0,0,2.0009697,-1.0004848,-1.0004848)" stroke-width="3" stroke-linecap="butt" stroke-miterlimit="10" stroke-linejoin="miter" fill="none" stroke="#808080" d="M 648 821 L 841 806 "/>
<path transform="matrix(2.0009697,0,0,2.0009697,-1.0004848,-1.0004848)" stroke-width="3" stroke-linecap="butt" stroke-miterlimit="10" stroke-linejoin="miter" fill="none" stroke="#808080" d="M 773 437 L 283 412 "/>
<path transform="matrix(2.0009697,0,0,2.0009697,-1.0004848,-1.0004848)" stroke-width="3" stroke-linecap="butt" stroke-miterlimit="10" stroke-linejoin="miter" fill="none" stroke="#808080" d="M 773 437 L 790 466 "/>
<path transform="matrix(2.0009697,0,0,2.0009697,-1.0004848,-1.0004848)" stroke-width="3" stroke-linecap="butt" stroke-miterlimit="10" stroke-linejoin="miter" fill="none" stroke="#808080" d="M 773 437 L 576 608 "/>
<path transform="matrix(2.0009697,0,0,2.0009697,-1.0004848,-1.0004848)" stroke-width="3" stroke-linecap="butt" stroke-miterlimit="10" stroke-linejoin="miter" fill="none" stroke="#808080" d="M 674 673 L 283 412 "/>
<path transform="matrix(2.0009697,0,0,2.0009697,-1.0004848,-1.0004848)" stroke-width="3" stroke-linecap="butt" stroke-miterlimit="10" stroke-linejoin="miter" fill="none" stroke="#808080" d="M 576 608 L 293 422 "/>
<path transform="matrix(2.0009697,0,0,2.0009697,-1.0004848,-1.0004848)" stroke-width="3" stroke-linecap="butt" stroke-miterlimit="10" stroke-linejoin="miter" fill="none" stroke="#808080" d="M 664 663 L 800 476 "/>
<path transform="matrix(2.0009697,0,0,2.0009697,-1.0004848,-1.0004848)" stroke-width="3" stroke-linecap="butt" stroke-miterlimit="10" stroke-linejoin="miter" fill="none" stroke="#808080" d="M 576 608 L 800 476 "/>
<path transform="matrix(2.0009697,0,0,2.0009697,-1.0004848,-1.0004848)" stroke-width="3" stroke-linecap="butt" stroke-miterlimit="10" stroke-linejoin="miter" fill="none" stroke="#808080" d="M 664 663 L 586 618 "/>
<path transform="matrix(2.0009697,0,0,2.0009697,-1.0004848,-1.0004848)" stroke-width="3" stroke-linecap="butt" stroke-miterlimit="10" stroke-linejoin="miter" fill="none" stroke="#808080" d="M 586 618 L 831 796 "/>
<path transform="matrix(2.0009697,0,0,2.0009697,-1.0004848,-1.0004848)" stroke-width="3" stroke-linecap="butt" stroke-miterlimit="10" stroke-linejoin="miter" fill="none" stroke="#808080" d="M 800 354 L 293 422 "/>
<path transform="matrix(2.0009697,0,0,2.0009697,-1.0004848,-1.0004848)" stroke-width="3" stroke-linecap="butt" stroke-miterlimit="10" stroke-linejoin="miter" fill="none" stroke="#808080" d="M 810 364 L 831 796 "/>
<path transform="matrix(2.0009697,0,0,2.0009697,-1.0004848,-1.0004848)" stroke-width="3" stroke-linecap="butt" stroke-miterlimit="10" stroke-linejoin="miter" fill="none" stroke="#808080" d="M 810 364 L 865 223 "/>
<path transform="matrix(2.0009697,0,0,2.0009697,-1.0004848,-1.0004848)" stroke-width="3" stroke-linecap="butt" stroke-miterlimit="10" stroke-linejoin="miter" fill="none" stroke="#808080" d="M 604 165 L 283 412 "/>
<path transform="matrix(2.0009697,0,0,2.0009697,-1.0004848,-1.0004848)" stroke-width="3" stroke-linecap="butt" stroke-miterlimit="10" stroke-linejoin="miter" fill="none" stroke="#808080" d="M 604 165 L 161 473 "/>
<path transform="matrix(2.0009697,0,0,2.0009697,-1.0004848,-1.0004848)" stroke-width="3" stroke-linecap="butt" stroke-miterlimit="10" stroke-linejoin="miter" fill="none" stroke="#808080" d="M 283 412 L 293 422 "/>
<path transform="matrix(2.0009697,0,0,2.0009697,-1.0004848,-1.0004848)" stroke-width="3" stroke-linecap="butt" stroke-miterlimit="10" stroke-linejoin="miter" fill="none" stroke="#808080" d="M 604 165 L 800 354 "/>
<path transform="matrix(2.0009697,0,0,2.0009697,-1.0004848,-1.0004848)" stroke-width="3" stroke-linecap="butt" stroke-miterlimit="10" stroke-linejoin="miter" fill="none" stroke="#808080" d="M 604 165 L 763 427 "/>
<path transform="matrix(2.0009697,0,0,2.0009697,-1.0004848,-1.0004848)" stroke-width="3" stroke-linecap="butt" stroke-miterlimit="10" stroke-linejoin="miter" fill="none" stroke="#808080" d="M 763 427 L 810 364 "/>
<path transform="matrix(2.0009697,0,0,2.0009697,-1.0004848,-1.0004848)" stroke-width="3" stroke-linecap="butt" stroke-miterlimit="10" stroke-linejoin="miter" fill="none" stroke="#808080" d="M 790 466 L 810 364 "/>
<path transform="matrix(2.0009697,0,0,2.0009697,-1.0004848,-1.0004848)" stroke-width="3" stroke-linecap="butt" stroke-miterlimit="10" stroke-linejoin="miter" fill="none" stroke="#808080" d="M 831 796 L 810 364 "/>
<path transform="matrix(2.0009697,0,0,2.0009697,-1.0004848,-1.0004848)" stroke-width="3" stroke-linecap="butt" stroke-miterlimit="10" stroke-linejoin="miter" fill="none" stroke="#808080" d="M 293 422 L 161 473 "/>
<path transform="matrix(2.0009697,0,0,2.0009697,-1.0004848,-1.0004848)" stroke-width="3" stroke-linecap="butt" stroke-miterlimit="10" stroke-linejoin="miter" fill="none" stroke="#808080" d="M 235 866 L 161 473 "/>
<path transform="matrix(2.0009697,0,0,2.0009697,-1.0004848,-1.0004848)" stroke-width="3" stroke-linecap="butt" stroke-miterlimit="10" stroke-linejoin="miter" fill="none" stroke="#808080" d="M 206 608 L 196 598 "/>
<path transform="matrix(2.0009697,0,0,2.0009697,-1.0004848,-1.0004848)" stroke-width="3" stroke-linecap="butt" stroke-miterlimit="10" stroke-linejoin="miter" fill="none" stroke="#808080" d="M 206 608 L 283 412 "/>
</g>
<clipPath id="cp2">
<path transform="matrix(.6666666,0,0,.6666666,0,0)" d="M 0 0 L 3001.4549 0 L 3001.4549 3001.4549 L 0 3001.4549 Z " fill-rule="evenodd"/>
</clipPath>
<g clip-path="url(#cp2)">
<path transform="matrix(5.5582497,0,0,5.5582497,0,0)" d="M 0 360 L 360 360 L 360 0 L 0 0 L 0 360 Z " fill="#ffffff"/>
</g>
<clipPath id="cp3">
<path transform="matrix(.6666666,0,0,.6666666,0,0)" d="M 375.18186 360.1746 L 2701.3094 360.1746 L 2701.3094 2671.2952 L 375.18186 2671.2952 Z " fill-rule="evenodd"/>
</clipPath>
<g clip-path="url(#cp3)">
<path transform="matrix(5.5582497,0,0,5.5582497,0,0)" stroke-width="1.5" stroke-linecap="square" stroke-linejoin="round" fill="none" stroke="#808080" d="M 284.35047 167.8075 L 311.31819 80.28874 M 238.86621 238.51689 L 284.35047 167.8075 M 101.565708 147.80132 L 113.12741 194.27858 M 233.68669 295.56068 L 238.86621 238.51689 M 206.97893 218.87993 L 113.12741 194.27858 M 206.97893 218.87993 L 284.35047 167.8075 M 206.97893 218.87993 L 238.86621 238.51689 M 206.97893 218.87993 L 101.565708 147.80132 M 287.6739 127.164058 L 311.31819 80.28874 M 287.6739 127.164058 L 284.35047 167.8075 M 275.03398 153.35483 L 284.35047 167.8075 M 275.03398 153.35483 L 206.97893 218.87993 M 275.03398 153.35483 L 287.6739 127.164058 M 167.70978 261.838 L 113.12741 194.27858 M 167.70978 261.838 L 238.86621 238.51689 M 167.70978 261.838 L 233.68669 295.56068 M 167.70978 261.838 L 206.97893 218.87993 M 299.06129 286.42726 L 311.31819 80.28874 M 299.06129 286.42726 L 284.35047 167.8075 M 299.06129 286.42726 L 238.86621 238.51689 M 299.06129 286.42726 L 233.68669 295.56068 M 70.30573 215.23047 L 113.12741 194.27858 M 70.30573 215.23047 L 167.70978 261.838 M 213.41246 55.8 L 311.31819 80.28874 M 213.41246 55.8 L 101.565708 147.80132 M 213.41246 55.8 L 206.97893 218.87993 M 213.41246 55.8 L 287.6739 127.164058 M 213.41246 55.8 L 275.03398 153.35483 M 80.9387 307.8 L 233.68669 295.56068 M 80.9387 307.8 L 167.70978 261.838 M 80.9387 307.8 L 70.30573 215.23047 M 57.681818 170.36421 L 113.12741 194.27858 M 57.681818 170.36421 L 101.565708 147.80132 M 57.681818 170.36421 L 70.30573 215.23047 M 57.681818 170.36421 L 213.41246 55.8 M 57.681818 170.36421 L 80.9387 307.8 "/>
</g>
<clipPath id="cp4">
<path transform="matrix(.6666666,0,0,.6666666,0,0)" d="M 375.18186 360.1746 L 2701.3094 360.1746 L 2701.3094 2671.2952 L 375.18186 2671.2952 Z " fill-rule="evenodd"/>
</clipPath>
<g clip-path="url(#cp4)">
<path transform="matrix(5.5582497,0,0,5.5582497,628.7904,1079.8488)" d="M 0 3 C .79560896 3 1.55874 2.683901 2.12132 2.12132 C 2.683901 1.55874 3 .79560896 3 0 C 3 -.79560896 2.683901 -1.55874 2.12132 -2.12132 C 1.55874 -2.683901 .79560896 -3 0 -3 C -.79560896 -3 -1.55874 -2.683901 -2.12132 -2.12132 C -2.683901 -1.55874 -3 -.79560896 -3 0 C -3 .79560896 -2.683901 1.55874 -2.12132 2.12132 C -1.55874 2.683901 -.79560896 3 0 3 Z "/>
<path transform="matrix(5.5582497,0,0,5.5582497,628.7904,1079.8488)" stroke-width="1" stroke-linecap="butt" stroke-linejoin="round" fill="none" stroke="#000000" d="M 0 3 C .79560896 3 1.55874 2.683901 2.12132 2.12132 C 2.683901 1.55874 3 .79560896 3 0 C 3 -.79560896 2.683901 -1.55874 2.12132 -2.12132 C 1.55874 -2.683901 .79560896 -3 0 -3 C -.79560896 -3 -1.55874 -2.683901 -2.12132 -2.12132 C -2.683901 -1.55874 -3 -.79560896 -3 0 C -3 .79560896 -2.683901 1.55874 -2.12132 2.12132 C -1.55874 2.683901 -.79560896 3 0 3 Z "/>
<path transform="matrix(5.5582497,0,0,5.5582497,1730.384,446.2649)" d="M 0 3 C .79560896 3 1.55874 2.683901 2.12132 2.12132 C 2.683901 1.55874 3 .79560896 3 0 C 3 -.79560896 2.683901 -1.55874 2.12132 -2.12132 C 1.55874 -2.683901 .79560896 -3 0 -3 C -.79560896 -3 -1.55874 -2.683901 -2.12132 -2.12132 C -2.683901 -1.55874 -3 -.79560896 -3 0 C -3 .79560896 -2.683901 1.55874 -2.12132 2.12132 C -1.55874 2.683901 -.79560896 3 0 3 Z "/>
<path transform="matrix(5.5582497,0,0,5.5582497,1730.384,446.2649)" stroke-width="1" stroke-linecap="butt" stroke-linejoin="round" fill="none" stroke="#000000" d="M 0 3 C .79560896 3 1.55874 2.683901 2.12132 2.12132 C 2.683901 1.55874 3 .79560896 3 0 C 3 -.79560896 2.683901 -1.55874 2.12132 -2.12132 C 1.55874 -2.683901 .79560896 -3 0 -3 C -.79560896 -3 -1.55874 -2.683901 -2.12132 -2.12132 C -2.683901 -1.55874 -3 -.79560896 -3 0 C -3 .79560896 -2.683901 1.55874 -2.12132 2.12132 C -1.55874 2.683901 -.79560896 3 0 3 Z "/>
<path transform="matrix(5.5582497,0,0,5.5582497,1580.4907,932.7159)" d="M 0 3 C .79560896 3 1.55874 2.683901 2.12132 2.12132 C 2.683901 1.55874 3 .79560896 3 0 C 3 -.79560896 2.683901 -1.55874 2.12132 -2.12132 C 1.55874 -2.683901 .79560896 -3 0 -3 C -.79560896 -3 -1.55874 -2.683901 -2.12132 -2.12132 C -2.683901 -1.55874 -3 -.79560896 -3 0 C -3 .79560896 -2.683901 1.55874 -2.12132 2.12132 C -1.55874 2.683901 -.79560896 3 0 3 Z "/>
<path transform="matrix(5.5582497,0,0,5.5582497,1580.4907,932.7159)" stroke-width="1" stroke-linecap="butt" stroke-linejoin="round" fill="none" stroke="#000000" d="M 0 3 C .79560896 3 1.55874 2.683901 2.12132 2.12132 C 2.683901 1.55874 3 .79560896 3 0 C 3 -.79560896 2.683901 -1.55874 2.12132 -2.12132 C 1.55874 -2.683901 .79560896 -3 0 -3 C -.79560896 -3 -1.55874 -2.683901 -2.12132 -2.12132 C -2.683901 -1.55874 -3 -.79560896 -3 0 C -3 .79560896 -2.683901 1.55874 -2.12132 2.12132 C -1.55874 2.683901 -.79560896 3 0 3 Z "/>
<path transform="matrix(5.5582497,0,0,5.5582497,1327.678,1325.7365)" d="M 0 3 C .79560896 3 1.55874 2.683901 2.12132 2.12132 C 2.683901 1.55874 3 .79560896 3 0 C 3 -.79560896 2.683901 -1.55874 2.12132 -2.12132 C 1.55874 -2.683901 .79560896 -3 0 -3 C -.79560896 -3 -1.55874 -2.683901 -2.12132 -2.12132 C -2.683901 -1.55874 -3 -.79560896 -3 0 C -3 .79560896 -2.683901 1.55874 -2.12132 2.12132 C -1.55874 2.683901 -.79560896 3 0 3 Z "/>
<path transform="matrix(5.5582497,0,0,5.5582497,1327.678,1325.7365)" stroke-width="1" stroke-linecap="butt" stroke-linejoin="round" fill="none" stroke="#000000" d="M 0 3 C .79560896 3 1.55874 2.683901 2.12132 2.12132 C 2.683901 1.55874 3 .79560896 3 0 C 3 -.79560896 2.683901 -1.55874 2.12132 -2.12132 C 1.55874 -2.683901 .79560896 -3 0 -3 C -.79560896 -3 -1.55874 -2.683901 -2.12132 -2.12132 C -2.683901 -1.55874 -3 -.79560896 -3 0 C -3 .79560896 -2.683901 1.55874 -2.12132 2.12132 C -1.55874 2.683901 -.79560896 3 0 3 Z "/>
<path transform="matrix(5.5582497,0,0,5.5582497,564.5275,821.51657)" d="M 0 3 C .79560896 3 1.55874 2.683901 2.12132 2.12132 C 2.683901 1.55874 3 .79560896 3 0 C 3 -.79560896 2.683901 -1.55874 2.12132 -2.12132 C 1.55874 -2.683901 .79560896 -3 0 -3 C -.79560896 -3 -1.55874 -2.683901 -2.12132 -2.12132 C -2.683901 -1.55874 -3 -.79560896 -3 0 C -3 .79560896 -2.683901 1.55874 -2.12132 2.12132 C -1.55874 2.683901 -.79560896 3 0 3 Z "/>
<path transform="matrix(5.5582497,0,0,5.5582497,564.5275,821.51657)" stroke-width="1" stroke-linecap="butt" stroke-linejoin="round" fill="none" stroke="#000000" d="M 0 3 C .79560896 3 1.55874 2.683901 2.12132 2.12132 C 2.683901 1.55874 3 .79560896 3 0 C 3 -.79560896 2.683901 -1.55874 2.12132 -2.12132 C 1.55874 -2.683901 .79560896 -3 0 -3 C -.79560896 -3 -1.55874 -2.683901 -2.12132 -2.12132 C -2.683901 -1.55874 -3 -.79560896 -3 0 C -3 .79560896 -2.683901 1.55874 -2.12132 2.12132 C -1.55874 2.683901 -.79560896 3 0 3 Z "/>
<path transform="matrix(5.5582497,0,0,5.5582497,1298.8889,1642.7998)" d="M 0 3 C .79560896 3 1.55874 2.683901 2.12132 2.12132 C 2.683901 1.55874 3 .79560896 3 0 C 3 -.79560896 2.683901 -1.55874 2.12132 -2.12132 C 1.55874 -2.683901 .79560896 -3 0 -3 C -.79560896 -3 -1.55874 -2.683901 -2.12132 -2.12132 C -2.683901 -1.55874 -3 -.79560896 -3 0 C -3 .79560896 -2.683901 1.55874 -2.12132 2.12132 C -1.55874 2.683901 -.79560896 3 0 3 Z "/>
<path transform="matrix(5.5582497,0,0,5.5582497,1298.8889,1642.7998)" stroke-width="1" stroke-linecap="butt" stroke-linejoin="round" fill="none" stroke="#000000" d="M 0 3 C .79560896 3 1.55874 2.683901 2.12132 2.12132 C 2.683901 1.55874 3 .79560896 3 0 C 3 -.79560896 2.683901 -1.55874 2.12132 -2.12132 C 1.55874 -2.683901 .79560896 -3 0 -3 C -.79560896 -3 -1.55874 -2.683901 -2.12132 -2.12132 C -2.683901 -1.55874 -3 -.79560896 -3 0 C -3 .79560896 -2.683901 1.55874 -2.12132 2.12132 C -1.55874 2.683901 -.79560896 3 0 3 Z "/>
<path transform="matrix(5.5582497,0,0,5.5582497,1150.4406,1216.5894)" d="M 0 3 C .79560896 3 1.55874 2.683901 2.12132 2.12132 C 2.683901 1.55874 3 .79560896 3 0 C 3 -.79560896 2.683901 -1.55874 2.12132 -2.12132 C 1.55874 -2.683901 .79560896 -3 0 -3 C -.79560896 -3 -1.55874 -2.683901 -2.12132 -2.12132 C -2.683901 -1.55874 -3 -.79560896 -3 0 C -3 .79560896 -2.683901 1.55874 -2.12132 2.12132 C -1.55874 2.683901 -.79560896 3 0 3 Z "/>
<path transform="matrix(5.5582497,0,0,5.5582497,1150.4406,1216.5894)" stroke-width="1" stroke-linecap="butt" stroke-linejoin="round" fill="none" stroke="#000000" d="M 0 3 C .79560896 3 1.55874 2.683901 2.12132 2.12132 C 2.683901 1.55874 3 .79560896 3 0 C 3 -.79560896 2.683901 -1.55874 2.12132 -2.12132 C 1.55874 -2.683901 .79560896 -3 0 -3 C -.79560896 -3 -1.55874 -2.683901 -2.12132 -2.12132 C -2.683901 -1.55874 -3 -.79560896 -3 0 C -3 .79560896 -2.683901 1.55874 -2.12132 2.12132 C -1.55874 2.683901 -.79560896 3 0 3 Z "/>
<path transform="matrix(5.5582497,0,0,5.5582497,1598.9634,706.8096)" d="M 0 3 C .79560896 3 1.55874 2.683901 2.12132 2.12132 C 2.683901 1.55874 3 .79560896 3 0 C 3 -.79560896 2.683901 -1.55874 2.12132 -2.12132 C 1.55874 -2.683901 .79560896 -3 0 -3 C -.79560896 -3 -1.55874 -2.683901 -2.12132 -2.12132 C -2.683901 -1.55874 -3 -.79560896 -3 0 C -3 .79560896 -2.683901 1.55874 -2.12132 2.12132 C -1.55874 2.683901 -.79560896 3 0 3 Z "/>
<path transform="matrix(5.5582497,0,0,5.5582497,1598.9634,706.8096)" stroke-width="1" stroke-linecap="butt" stroke-linejoin="round" fill="none" stroke="#000000" d="M 0 3 C .79560896 3 1.55874 2.683901 2.12132 2.12132 C 2.683901 1.55874 3 .79560896 3 0 C 3 -.79560896 2.683901 -1.55874 2.12132 -2.12132 C 1.55874 -2.683901 .79560896 -3 0 -3 C -.79560896 -3 -1.55874 -2.683901 -2.12132 -2.12132 C -2.683901 -1.55874 -3 -.79560896 -3 0 C -3 .79560896 -2.683901 1.55874 -2.12132 2.12132 C -1.55874 2.683901 -.79560896 3 0 3 Z "/>
<path transform="matrix(5.5582497,0,0,5.5582497,1528.7075,852.3844)" d="M 0 3 C .79560896 3 1.55874 2.683901 2.12132 2.12132 C 2.683901 1.55874 3 .79560896 3 0 C 3 -.79560896 2.683901 -1.55874 2.12132 -2.12132 C 1.55874 -2.683901 .79560896 -3 0 -3 C -.79560896 -3 -1.55874 -2.683901 -2.12132 -2.12132 C -2.683901 -1.55874 -3 -.79560896 -3 0 C -3 .79560896 -2.683901 1.55874 -2.12132 2.12132 C -1.55874 2.683901 -.79560896 3 0 3 Z "/>
<path transform="matrix(5.5582497,0,0,5.5582497,1528.7075,852.3844)" stroke-width="1" stroke-linecap="butt" stroke-linejoin="round" fill="none" stroke="#000000" d="M 0 3 C .79560896 3 1.55874 2.683901 2.12132 2.12132 C 2.683901 1.55874 3 .79560896 3 0 C 3 -.79560896 2.683901 -1.55874 2.12132 -2.12132 C 1.55874 -2.683901 .79560896 -3 0 -3 C -.79560896 -3 -1.55874 -2.683901 -2.12132 -2.12132 C -2.683901 -1.55874 -3 -.79560896 -3 0 C -3 .79560896 -2.683901 1.55874 -2.12132 2.12132 C -1.55874 2.683901 -.79560896 3 0 3 Z "/>
<path transform="matrix(5.5582497,0,0,5.5582497,932.1728,1455.3609)" d="M 0 3 C .79560896 3 1.55874 2.683901 2.12132 2.12132 C 2.683901 1.55874 3 .79560896 3 0 C 3 -.79560896 2.683901 -1.55874 2.12132 -2.12132 C 1.55874 -2.683901 .79560896 -3 0 -3 C -.79560896 -3 -1.55874 -2.683901 -2.12132 -2.12132 C -2.683901 -1.55874 -3 -.79560896 -3 0 C -3 .79560896 -2.683901 1.55874 -2.12132 2.12132 C -1.55874 2.683901 -.79560896 3 0 3 Z "/>
<path transform="matrix(5.5582497,0,0,5.5582497,932.1728,1455.3609)" stroke-width="1" stroke-linecap="butt" stroke-linejoin="round" fill="none" stroke="#000000" d="M 0 3 C .79560896 3 1.55874 2.683901 2.12132 2.12132 C 2.683901 1.55874 3 .79560896 3 0 C 3 -.79560896 2.683901 -1.55874 2.12132 -2.12132 C 1.55874 -2.683901 .79560896 -3 0 -3 C -.79560896 -3 -1.55874 -2.683901 -2.12132 -2.12132 C -2.683901 -1.55874 -3 -.79560896 -3 0 C -3 .79560896 -2.683901 1.55874 -2.12132 2.12132 C -1.55874 2.683901 -.79560896 3 0 3 Z "/>
<path transform="matrix(5.5582497,0,0,5.5582497,1662.2572,1592.034)" d="M 0 3 C .79560896 3 1.55874 2.683901 2.12132 2.12132 C 2.683901 1.55874 3 .79560896 3 0 C 3 -.79560896 2.683901 -1.55874 2.12132 -2.12132 C 1.55874 -2.683901 .79560896 -3 0 -3 C -.79560896 -3 -1.55874 -2.683901 -2.12132 -2.12132 C -2.683901 -1.55874 -3 -.79560896 -3 0 C -3 .79560896 -2.683901 1.55874 -2.12132 2.12132 C -1.55874 2.683901 -.79560896 3 0 3 Z "/>
<path transform="matrix(5.5582497,0,0,5.5582497,1662.2572,1592.034)" stroke-width="1" stroke-linecap="butt" stroke-linejoin="round" fill="none" stroke="#000000" d="M 0 3 C .79560896 3 1.55874 2.683901 2.12132 2.12132 C 2.683901 1.55874 3 .79560896 3 0 C 3 -.79560896 2.683901 -1.55874 2.12132 -2.12132 C 1.55874 -2.683901 .79560896 -3 0 -3 C -.79560896 -3 -1.55874 -2.683901 -2.12132 -2.12132 C -2.683901 -1.55874 -3 -.79560896 -3 0 C -3 .79560896 -2.683901 1.55874 -2.12132 2.12132 C -1.55874 2.683901 -.79560896 3 0 3 Z "/>
<path transform="matrix(5.5582497,0,0,5.5582497,390.77684,1196.3046)" d="M 0 3 C .79560896 3 1.55874 2.683901 2.12132 2.12132 C 2.683901 1.55874 3 .79560896 3 0 C 3 -.79560896 2.683901 -1.55874 2.12132 -2.12132 C 1.55874 -2.683901 .79560896 -3 0 -3 C -.79560896 -3 -1.55874 -2.683901 -2.12132 -2.12132 C -2.683901 -1.55874 -3 -.79560896 -3 0 C -3 .79560896 -2.683901 1.55874 -2.12132 2.12132 C -1.55874 2.683901 -.79560896 3 0 3 Z "/>
<path transform="matrix(5.5582497,0,0,5.5582497,390.77684,1196.3046)" stroke-width="1" stroke-linecap="butt" stroke-linejoin="round" fill="none" stroke="#000000" d="M 0 3 C .79560896 3 1.55874 2.683901 2.12132 2.12132 C 2.683901 1.55874 3 .79560896 3 0 C 3 -.79560896 2.683901 -1.55874 2.12132 -2.12132 C 1.55874 -2.683901 .79560896 -3 0 -3 C -.79560896 -3 -1.55874 -2.683901 -2.12132 -2.12132 C -2.683901 -1.55874 -3 -.79560896 -3 0 C -3 .79560896 -2.683901 1.55874 -2.12132 2.12132 C -1.55874 2.683901 -.79560896 3 0 3 Z "/>
<path transform="matrix(5.5582497,0,0,5.5582497,1186.1997,310.1503)" d="M 0 3 C .79560896 3 1.55874 2.683901 2.12132 2.12132 C 2.683901 1.55874 3 .79560896 3 0 C 3 -.79560896 2.683901 -1.55874 2.12132 -2.12132 C 1.55874 -2.683901 .79560896 -3 0 -3 C -.79560896 -3 -1.55874 -2.683901 -2.12132 -2.12132 C -2.683901 -1.55874 -3 -.79560896 -3 0 C -3 .79560896 -2.683901 1.55874 -2.12132 2.12132 C -1.55874 2.683901 -.79560896 3 0 3 Z "/>
<path transform="matrix(5.5582497,0,0,5.5582497,1186.1997,310.1503)" stroke-width="1" stroke-linecap="butt" stroke-linejoin="round" fill="none" stroke="#000000" d="M 0 3 C .79560896 3 1.55874 2.683901 2.12132 2.12132 C 2.683901 1.55874 3 .79560896 3 0 C 3 -.79560896 2.683901 -1.55874 2.12132 -2.12132 C 1.55874 -2.683901 .79560896 -3 0 -3 C -.79560896 -3 -1.55874 -2.683901 -2.12132 -2.12132 C -2.683901 -1.55874 -3 -.79560896 -3 0 C -3 .79560896 -2.683901 1.55874 -2.12132 2.12132 C -1.55874 2.683901 -.79560896 3 0 3 Z "/>
<path transform="matrix(5.5582497,0,0,5.5582497,449.87745,1710.8291)" d="M 0 3 C .79560896 3 1.55874 2.683901 2.12132 2.12132 C 2.683901 1.55874 3 .79560896 3 0 C 3 -.79560896 2.683901 -1.55874 2.12132 -2.12132 C 1.55874 -2.683901 .79560896 -3 0 -3 C -.79560896 -3 -1.55874 -2.683901 -2.12132 -2.12132 C -2.683901 -1.55874 -3 -.79560896 -3 0 C -3 .79560896 -2.683901 1.55874 -2.12132 2.12132 C -1.55874 2.683901 -.79560896 3 0 3 Z "/>
<path transform="matrix(5.5582497,0,0,5.5582497,449.87745,1710.8291)" stroke-width="1" stroke-linecap="butt" stroke-linejoin="round" fill="none" stroke="#000000" d="M 0 3 C .79560896 3 1.55874 2.683901 2.12132 2.12132 C 2.683901 1.55874 3 .79560896 3 0 C 3 -.79560896 2.683901 -1.55874 2.12132 -2.12132 C 1.55874 -2.683901 .79560896 -3 0 -3 C -.79560896 -3 -1.55874 -2.683901 -2.12132 -2.12132 C -2.683901 -1.55874 -3 -.79560896 -3 0 C -3 .79560896 -2.683901 1.55874 -2.12132 2.12132 C -1.55874 2.683901 -.79560896 3 0 3 Z "/>
<path transform="matrix(5.5582497,0,0,5.5582497,320.60993,946.92678)" d="M 0 3 C .79560896 3 1.55874 2.683901 2.12132 2.12132 C 2.683901 1.55874 3 .79560896 3 0 C 3 -.79560896 2.683901 -1.55874 2.12132 -2.12132 C 1.55874 -2.683901 .79560896 -3 0 -3 C -.79560896 -3 -1.55874 -2.683901 -2.12132 -2.12132 C -2.683901 -1.55874 -3 -.79560896 -3 0 C -3 .79560896 -2.683901 1.55874 -2.12132 2.12132 C -1.55874 2.683901 -.79560896 3 0 3 Z "/>
<path transform="matrix(5.5582497,0,0,5.5582497,320.60993,946.92678)" stroke-width="1" stroke-linecap="butt" stroke-linejoin="round" fill="none" stroke="#000000" d="M 0 3 C .79560896 3 1.55874 2.683901 2.12132 2.12132 C 2.683901 1.55874 3 .79560896 3 0 C 3 -.79560896 2.683901 -1.55874 2.12132 -2.12132 C 1.55874 -2.683901 .79560896 -3 0 -3 C -.79560896 -3 -1.55874 -2.683901 -2.12132 -2.12132 C -2.683901 -1.55874 -3 -.79560896 -3 0 C -3 .79560896 -2.683901 1.55874 -2.12132 2.12132 C -1.55874 2.683901 -.79560896 3 0 3 Z "/>
</g>
</g>
</svg>
