<?xml version="1.0" encoding="UTF-8" standalone="no"?>
<!DOCTYPE svg PUBLIC "-//W3C//DTD SVG 1.1//EN" "http://www.w3.org/Graphics/SVG/1.1/DTD/svg11.dtd">
<svg xmlns="http://www.w3.org/2000/svg" xmlns:xlink="http://www.w3.org/1999/xlink" version="1.1" width="2002.6665pt" height="2002.6665pt" viewBox="0 0 2002.6665 2002.6665">
<g enable-background="new">
<clipPath id="cp0">
<path transform="matrix(.6666666,0,0,.6666666,0,0)" d="M 0 0 L 3005 0 L 3005 3005 L 0 3005 Z " fill-rule="evenodd"/>
</clipPath>
<g clip-path="url(#cp0)">
<path transform="matrix(2.0833333,0,0,2.0833333,0,0)" d="M 0 0 L 962 0 L 962 962 L 0 962 Z " fill="#ffffff"/>
</g>
<clipPath id="cp1">
<path transform="matrix(.6666666,0,0,.6666666,0,0)" d="M 0 0 L 3005 0 L 3005 3005 L 0 3005 Z " fill-rule="evenodd"/>
</clipPath>
<g clip-path="url(#cp1)">
<path transform="matrix(2.0009697,0,0,2.0009697,-1.0004848,-1.0004848)" stroke-width="3" stroke-linecap="butt" stroke-miterlimit="10" stroke-linejoin="miter" fill="none" stroke="#808080" d="M 314 540 L 466 727 "/>
<path transform="matrix(2.0009697,0,0,2.0009697,-1.0004848,-1.0004848)" stroke-width="3" stroke-linecap="butt" stroke-miterlimit="10" stroke-linejoin="miter" fill="none" stroke="#808080" d="M 314 540 L 225 856 "/>
<path transform="matrix(2.0009697,0,0,2.0009697,-1.0004848,-1.0004848)" stroke-width="3" stroke-linecap="butt" stroke-miterlimit="10" stroke-linejoin="miter" fill="none" stroke="#808080" d="M 466 727 L 225 856 "/>
<path transform="matrix(2.0009697,0,0,2.0009697,-1.0004848,-1.0004848)" stroke-width="3" stroke-linecap="butt" stroke-miterlimit="10" stroke-linejoin="miter" fill="none" stroke="#808080" d="M 283 412 L 225 856 "/>
<path transform="matrix(2.0009697,0,0,2.0009697,-1.0004848,-1.0004848)" stroke-width="3" stroke-linecap="butt" stroke-miterlimit="10" stroke-linejoin="miter" fill="none" stroke="#808080" d="M 283 412 L 314 540 "/>
<path transform="matrix(2.0009697,0,0,2.0009697,-1.0004848,-1.0004848)" stroke-width="3" stroke-linecap="butt" stroke-miterlimit="10" stroke-linejoin="miter" fill="none" stroke="#808080" d="M 763 427 L 283 412 "/>
<path transform="matrix(2.0009697,0,0,2.0009697,-1.0004848,-1.0004848)" stroke-width="3" stroke-linecap="butt" stroke-miterlimit="10" stroke-linejoin="miter" fill="none" stroke="#808080" d="M 648 821 L 283 412 "/>
<path transform="matrix(2.0009697,0,0,2.0009697,-1.0004848,-1.0004848)" stroke-width="3" stroke-linecap="butt" stroke-miterlimit="10" stroke-linejoin="miter" fill="none" stroke="#808080" d="M 314 540 L 648 821 "/>
<path transform="matrix(2.0009697,0,0,2.0009697,-1.0004848,-1.0004848)" stroke-width="3" stroke-linecap="butt" stroke-miterlimit="10" stroke-linejoin="miter" fill="none" stroke="#808080" d="M 466 727 L 648 821 "/>
<path transform="matrix(2.0009697,0,0,2.0009697,-1.0004848,-1.0004848)" stroke-width="3" stroke-linecap="butt" stroke-miterlimit="10" stroke-linejoin="miter" fill="none" stroke="#808080" d="M 648 821 L 225 856 "/>
<path transform="matrix(2.0009697,0,0,2.0009697,-1.0004848,-1.0004848)" stroke-width="3" stroke-linecap="butt" stroke-miterlimit="10" stroke-linejoin="miter" fill="none" stroke="#808080" d="M 648 821 L 831 796 "/>
<path transform="matrix(2.0009697,0,0,2.0009697,-1.0004848,-1.0004848)" stroke-width="3" stroke-linecap="butt" stroke-miterlimit="10" stroke-linejoin="miter" fill="none" stroke="#808080" d="M 648 821 L 790 466 "/>
<path transform="matrix(2.0009697,0,0,2.0009697,-1.0004848,-1.0004848)" stroke-width="3" stroke-linecap="butt" stroke-miterlimit="10" stroke-linejoin="miter" fill="none" stroke="#808080" d="M 790 466 L 283 412 "/>
<path transform="matrix(2.0009697,0,0,2.0009697,-1.0004848,-1.0004848)" stroke-width="3" stroke-linecap="butt" stroke-miterlimit="10" stroke-linejoin="miter" fill="none" stroke="#808080" d="M 763 427 L 790 466 "/>
<path transform="matrix(2.0009697,0,0,2.0009697,-1.0004848,-1.0004848)" stroke-width="3" stroke-linecap="butt" stroke-miterlimit="10" stroke-linejoin="miter" fill="none" stroke="#808080" d="M 664 663 L 576 608 "/>
<path transform="matrix(2.0009697,0,0,2.0009697,-1.0004848,-1.0004848)" stroke-width="3" stroke-linecap="butt" stroke-miterlimit="10" stroke-linejoin="miter" fill="none" stroke="#808080" d="M 576 608 L 283 412 "/>
<path transform="matrix(2.0009697,0,0,2.0009697,-1.0004848,-1.0004848)" stroke-width="3" stroke-linecap="butt" stroke-miterlimit="10" stroke-linejoin="miter" fill="none" stroke="#808080" d="M 576 608 L 790 466 "/>
<path transform="matrix(2.0009697,0,0,2.0009697,-1.0004848,-1.0004848)" stroke-width="3" stroke-linecap="butt" stroke-miterlimit="10" stroke-linejoin="miter" fill="none" stroke="#808080" d="M 664 663 L 790 466 "/>
<path transform="matrix(2.0009697,0,0,2.0009697,-1.0004848,-1.0004848)" stroke-width="3" stroke-linecap="butt" stroke-miterlimit="10" stroke-linejoin="miter" fill="none" stroke="#808080" d="M 576 608 L 648 821 "/>
<path transform="matrix(2.0009697,0,0,2.0009697,-1.0004848,-1.0004848)" stroke-width="3" stroke-linecap="butt" stroke-miterlimit="10" stroke-linejoin="miter" fill="none" stroke="#808080" d="M 664 663 L 648 821 "/>
<path transform="matrix(2.0009697,0,0,2.0009697,-1.0004848,-1.0004848)" stroke-width="3" stroke-linecap="butt" stroke-miterlimit="10" stroke-linejoin="miter" fill="none" stroke="#808080" d="M 865 223 L 831 796 "/>
<path transform="matrix(2.0009697,0,0,2.0009697,-1.0004848,-1.0004848)" stroke-width="3" stroke-linecap="butt" stroke-miterlimit="10" stroke-linejoin="miter" fill="none" stroke="#808080" d="M 800 354 L 865 223 "/>
<path transform="matrix(2.0009697,0,0,2.0009697,-1.0004848,-1.0004848)" stroke-width="3" stroke-linecap="butt" stroke-miterlimit="10" stroke-linejoin="miter" fill="none" stroke="#808080" d="M 800 354 L 831 796 "/>
<path transform="matrix(2.0009697,0,0,2.0009697,-1.0004848,-1.0004848)" stroke-width="3" stroke-linecap="butt" stroke-miterlimit="10" stroke-linejoin="miter" fill="none" stroke="#808080" d="M 594 155 L 865 223 "/>
<path transform="matrix(2.0009697,0,0,2.0009697,-1.0004848,-1.0004848)" stroke-width="3" stroke-linecap="butt" stroke-miterlimit="10" stroke-linejoin="miter" fill="none" stroke="#808080" d="M 594 155 L 283 412 "/>
<path transform="matrix(2.0009697,0,0,2.0009697,-1.0004848,-1.0004848)" stroke-width="3" stroke-linecap="butt" stroke-miterlimit="10" stroke-linejoin="miter" fill="none" stroke="#808080" d="M 594 155 L 161 473 "/>
<path transform="matrix(2.0009697,0,0,2.0009697,-1.0004848,-1.0004848)" stroke-width="3" stroke-linecap="butt" stroke-miterlimit="10" stroke-linejoin="miter" fill="none" stroke="#808080" d="M 283 412 L 161 473 "/>
<path transform="matrix(2.0009697,0,0,2.0009697,-1.0004848,-1.0004848)" stroke-width="3" stroke-linecap="butt" stroke-miterlimit="10" stroke-linejoin="miter" fill="none" stroke="#808080" d="M 594 155 L 800 354 "/>
<path transform="matrix(2.0009697,0,0,2.0009697,-1.0004848,-1.0004848)" stroke-width="3" stroke-linecap="butt" stroke-miterlimit="10" stroke-linejoin="miter" fill="none" stroke="#808080" d="M 594 155 L 763 427 "/>
<path transform="matrix(2.0009697,0,0,2.0009697,-1.0004848,-1.0004848)" stroke-width="3" stroke-linecap="butt" stroke-miterlimit="10" stroke-linejoin="miter" fill="none" stroke="#808080" d="M 763 427 L 800 354 "/>
<path transform="matrix(2.0009697,0,0,2.0009697,-1.0004848,-1.0004848)" stroke-width="3" stroke-linecap="butt" stroke-miterlimit="10" stroke-linejoin="miter" fill="none" stroke="#808080" d="M 790 466 L 800 354 "/>
<path transform="matrix(2.0009697,0,0,2.0009697,-1.0004848,-1.0004848)" stroke-width="3" stroke-linecap="butt" stroke-miterlimit="10" stroke-linejoin="miter" fill="none" stroke="#808080" d="M 831 796 L 790 466 "/>
<path transform="matrix(2.0009697,0,0,2.0009697,-1.0004848,-1.0004848)" stroke-width="3" stroke-linecap="butt" stroke-miterlimit="10" stroke-linejoin="miter" fill="none" stroke="#808080" d="M 225 856 L 161 473 "/>
<path transform="matrix(2.0009697,0,0,2.0009697,-1.0004848,-1.0004848)" stroke-width="3" stroke-linecap="butt" stroke-miterlimit="10" stroke-linejoin="miter" fill="none" stroke="#808080" d="M 196 598 L 161 473 "/>
<path transform="matrix(2.0009697,0,0,2.0009697,-1.0004848,-1.0004848)" stroke-width="3" stroke-linecap="butt" stroke-miterlimit="10" stroke-linejoin="miter" fill="none" stroke="#808080" d="M 225 856 L 196 598 "/>
<path transform="matrix(2.0009697,0,0,2.0009697,-1.0004848,-1.0004848)" stroke-width="3" stroke-linecap="butt" stroke-miterlimit="10" stroke-linejoin="miter" fill="none" stroke="#808080" d="M 196 598 L 283 412 "/>
<path transform="matrix(2.0009697,0,0,2.0009697,-2.0009697,-2.0009697)" d="M 324 540 C 324 540.6566 323.93595 541.3069 323.8078 541.95089 C 323.67973 542.59487 323.49003 543.22018 323.23875 543.8268 C 322.98744 544.43338 322.6794 545.00967 322.31465 545.5556 C 321.94987 546.10159 321.5353 546.6067 321.07106 547.071 C 320.60676 547.5353 320.10163 547.94979 319.55567 548.3146 C 319.00975 548.6794 318.43348 548.9874 317.8268 549.2387 C 317.22019 549.49 316.59489 549.6797 315.9509 549.8078 C 315.3069 549.9359 314.6566 550 314 550 C 313.34339 550 312.69309 549.9359 312.04908 549.8078 C 311.4051 549.6797 310.7798 549.49 310.17314 549.2387 C 309.5665 548.9874 308.9902 548.6794 308.4442 548.3146 C 307.8983 547.94979 307.3932 547.5353 306.9289 547.071 C 306.46458 546.6067 306.05003 546.1015 305.68525 545.55557 C 305.32048 545.0096 305.01243 544.43338 304.76115 543.8268 C 304.50987 543.22018 304.3202 542.59487 304.1921 541.95089 C 304.06404 541.3069 303.99998 540.6566 304 540 C 303.99998 539.3434 304.06404 538.69308 304.1921 538.0491 C 304.3202 537.405 304.50987 536.7797 304.76115 536.17318 C 305.01243 535.5665 305.32048 534.99026 305.68525 534.4443 C 306.05003 533.8983 306.46458 533.3932 306.9289 532.9289 C 307.3932 532.4646 307.89833 532.0501 308.44425 531.6853 C 308.9902 531.3205 309.5665 531.01248 310.17314 530.76119 C 310.7798 530.5099 311.4051 530.32028 312.04908 530.19216 C 312.69309 530.064 313.34339 530 314 530 C 314.6566 530 315.3069 530.064 315.9509 530.19216 C 316.59489 530.32028 317.22019 530.5099 317.8268 530.76119 C 318.43348 531.01248 319.00975 531.3205 319.55567 531.6853 C 320.10163 532.0501 320.60676 532.4646 321.07106 532.9289 C 321.5353 533.3932 321.94987 533.8983 322.31465 534.4443 C 322.6794 534.99026 322.98744 535.5665 323.23875 536.17318 C 323.49003 536.7797 323.67973 537.405 323.8078 538.0491 C 323.93595 538.69308 324 539.3434 324 540 Z "/>
<path transform="matrix(2.0009697,0,0,2.0009697,-2.0009697,-2.0009697)" d="M 293 412 C 292.99998 412.6566 292.93589 413.3069 292.8078 413.95088 C 292.6797 414.59486 292.49 415.22016 292.23875 415.82679 C 291.98747 416.43339 291.67945 417.00968 291.31468 417.55567 C 290.94987 418.1016 290.5353 418.60673 290.07106 419.07106 C 289.60676 419.5353 289.10163 419.94987 288.55564 420.31468 C 288.0097 420.67945 287.4334 420.9875 286.82679 421.23875 C 286.22016 421.49 285.59486 421.6797 284.95088 421.8078 C 284.3069 421.9359 283.6566 421.99998 283 422 C 282.34339 421.99998 281.69309 421.9359 281.04908 421.80784 C 280.40507 421.6797 279.77976 421.49 279.17314 421.23875 C 278.5665 420.9875 277.9902 420.67945 277.44429 420.31468 C 276.89833 419.94987 276.3932 419.5353 275.92893 419.07106 C 275.46464 418.60673 275.05009 418.1016 274.6853 417.55564 C 274.3205 417.00968 274.01246 416.43339 273.7612 415.82679 C 273.50993 415.22016 273.32023 414.59486 273.19215 413.95088 C 273.06407 413.3069 273 412.6566 273 412 C 273 411.34336 273.06407 410.69306 273.19215 410.04905 C 273.32023 409.40507 273.50993 408.77976 273.7612 408.17314 C 274.01246 407.5665 274.3205 406.9902 274.6853 406.44429 C 275.05009 405.89833 275.46464 405.3932 275.92893 404.92893 C 276.3932 404.46464 276.89833 404.05009 277.44425 403.6853 C 277.9902 403.3205 278.5665 403.01246 279.17314 402.7612 C 279.77976 402.50993 280.40507 402.32023 281.04908 402.19215 C 281.69309 402.06407 282.34339 402 283 402 C 283.6566 402 284.3069 402.06407 284.95088 402.19215 C 285.59486 402.32023 286.22016 402.50993 286.82679 402.7612 C 287.4334 403.01246 288.0097 403.3205 288.55564 403.6853 C 289.10163 404.05009 289.60676 404.46464 290.07106 404.92893 C 290.5353 405.3932 290.94987 405.89833 291.31468 406.44425 C 291.67945 406.9902 291.98747 407.5665 292.23875 408.17314 C 292.49 408.77976 292.6797 409.40507 292.8078 410.04908 C 292.93589 410.69306 292.99998 411.34336 293 412 Z "/>
<path transform="matrix(2.0009697,0,0,2.0009697,-2.0009697,-2.0009697)" d="M 171 473 C 171 473.6566 170.93595 474.3069 170.80785 474.95088 C 170.67975 475.59489 170.49005 476.22019 170.23877 476.8268 C 169.9875 477.43345 169.67948 478.00975 169.31468 478.5557 C 168.94989 479.10166 168.53536 479.60679 168.07106 480.07106 C 167.60677 480.5353 167.10164 480.94987 166.5557 481.31465 C 166.00974 481.6794 165.43344 481.98747 164.82682 482.2387 C 164.22017 482.49 163.59487 482.6797 162.95087 482.8078 C 162.30689 482.9359 161.6566 482.99998 161 483 C 160.34339 482.99998 159.69309 482.9359 159.0491 482.8078 C 158.40509 482.6797 157.77977 482.49 157.17316 482.2387 C 156.56652 481.98747 155.99022 481.6794 155.44428 481.31465 C 154.89833 480.94987 154.3932 480.5353 153.92893 480.07106 C 153.46463 479.60679 153.0501 479.10166 152.6853 478.5557 C 152.3205 478.00975 152.01245 477.43345 151.76119 476.8268 C 151.50992 476.22019 151.32024 475.59489 151.19214 474.9509 C 151.06404 474.3069 151 473.6566 151 473 C 151 472.3434 151.06404 471.6931 151.19214 471.0491 C 151.32024 470.4051 151.50992 469.77976 151.76119 469.17317 C 152.01245 468.5665 152.3205 467.9902 152.68529 467.44429 C 153.05008 466.8983 153.46463 466.39317 153.92893 465.9289 C 154.3932 465.46458 154.89833 465.05006 155.44428 464.68528 C 155.99022 464.32048 156.56652 464.01243 157.17316 463.76118 C 157.77977 463.50993 158.40509 463.32023 159.0491 463.19215 C 159.69309 463.06407 160.34339 463.00004 161 463 C 161.6566 463.00004 162.30689 463.0641 162.95087 463.19218 C 163.59487 463.32026 164.22017 463.50993 164.82682 463.76118 C 165.43344 464.01243 166.00974 464.32048 166.55568 464.68528 C 167.10164 465.05006 167.60677 465.46458 168.07106 465.9289 C 168.53536 466.39317 168.94989 466.8983 169.31468 467.44425 C 169.67948 467.99018 169.9875 468.56648 170.23877 469.17314 C 170.49005 469.77976 170.67975 470.4051 170.80785 471.0491 C 170.93595 471.6931 171 472.3434 171 473 Z "/>
<path transform="matrix(2.0009697,0,0,2.0009697,-2.0009697,-2.0009697)" d="M 206 598 C 205.99999 598.65658 205.93593 599.3068 205.80783 599.9508 C 205.67974 600.5948 205.49004 601.22018 205.23877 601.8268 C 204.98749 602.4334 204.67946 603.0097 204.31467 603.55569 C 203.94988 604.1016 203.53534 604.60678 203.07106 605.07107 C 202.60675 605.53536 202.10163 605.9498 201.55568 606.31466 C 201.00972 606.67947 200.43343 606.9874 199.82682 607.23867 C 199.22017 607.4899 198.59487 607.6797 197.95088 607.8078 C 197.3069 607.9359 196.6566 607.99996 196 608 C 195.34339 607.99996 194.69307 607.9359 194.04907 607.8078 C 193.40508 607.6797 192.77976 607.4899 192.17313 607.23867 C 191.5665 606.9874 190.9902 606.67947 190.44426 606.31466 C 189.89832 605.9498 189.39319 605.53536 188.92891 605.07107 C 188.46462 604.60678 188.05008 604.1016 187.68529 603.55569 C 187.32048 603.0097 187.01244 602.4334 186.76117 601.8268 C 186.5099 601.22018 186.32024 600.5948 186.19214 599.9508 C 186.06404 599.3068 186 598.65658 186 598 C 186 597.3433 186.06404 596.69308 186.19214 596.0491 C 186.32024 595.405 186.5099 594.7797 186.76117 594.1731 C 187.01244 593.56649 187.32048 592.99026 187.68529 592.4443 C 188.05008 591.8983 188.46462 591.3932 188.92891 590.9289 C 189.39319 590.4646 189.89832 590.05007 190.44426 589.68527 C 190.9902 589.32046 191.5665 589.01248 192.17313 588.76119 C 192.77976 588.5099 193.40508 588.32028 194.04907 588.19216 C 194.69307 588.064 195.34339 588 196 588 C 196.6566 588 197.3069 588.064 197.95088 588.19216 C 198.59487 588.32028 199.22017 588.5099 199.82682 588.76119 C 200.43343 589.01248 201.00972 589.32046 201.55568 589.68527 C 202.10163 590.05007 202.60675 590.4646 203.07106 590.9289 C 203.53534 591.3932 203.94989 591.8983 204.31468 592.4443 C 204.67946 592.99026 204.98749 593.56649 205.23877 594.1731 C 205.49004 594.7797 205.67974 595.405 205.80783 596.0491 C 205.93593 596.69308 205.99999 597.3433 206 598 Z "/>
<path transform="matrix(2.0009697,0,0,2.0009697,-2.0009697,-2.0009697)" d="M 586 608 C 585.99996 608.65658 585.93588 609.3068 585.80776 609.9508 C 585.6796 610.5948 585.49 611.2201 585.2388 611.8267 C 584.9875 612.43338 584.67947 613.00967 584.31466 613.5556 C 583.9498 614.10159 583.53536 614.6067 583.07107 615.071 C 582.60678 615.5353 582.1016 615.9498 581.55569 616.31466 C 581.0097 616.67947 580.4334 616.9874 579.8268 617.2387 C 579.22018 617.49 578.59487 617.6797 577.95089 617.8078 C 577.3069 617.9359 576.65658 617.99996 576 618 C 575.3433 617.99996 574.693 617.9359 574.049 617.8078 C 573.40499 617.6797 572.77969 617.49 572.17306 617.2387 C 571.5664 616.9874 570.9902 616.67947 570.4442 616.31466 C 569.89828 615.9498 569.3932 615.5353 568.9289 615.071 C 568.4646 614.6067 568.05007 614.10159 567.68527 613.5556 C 567.32046 613.00967 567.0124 612.43338 566.7611 611.8267 C 566.5098 611.2201 566.3202 610.5948 566.1921 609.9508 C 566.064 609.3068 566 608.65658 566 608 C 566 607.3433 566.064 606.69308 566.1921 606.0491 C 566.3202 605.405 566.5098 604.7797 566.7611 604.1731 C 567.0124 603.56649 567.3204 602.99026 567.6852 602.4443 C 568.05 601.8983 568.4646 601.3932 568.9289 600.9289 C 569.3932 600.4646 569.89828 600.05007 570.4442 599.68527 C 570.9902 599.32046 571.5664 599.01248 572.17306 598.76119 C 572.77969 598.5099 573.40499 598.32028 574.049 598.19216 C 574.693 598.064 575.3433 598 576 598 C 576.65658 598 577.3069 598.064 577.95089 598.19216 C 578.59487 598.32028 579.22018 598.5099 579.8268 598.76119 C 580.4334 599.01248 581.0097 599.32046 581.55569 599.68527 C 582.1016 600.05007 582.60678 600.4646 583.07107 600.9289 C 583.53536 601.3932 583.9498 601.8983 584.31466 602.4443 C 584.67947 602.99026 584.9875 603.56649 585.2388 604.1731 C 585.49 604.7797 585.6796 605.405 585.80776 606.0491 C 585.93588 606.69308 585.99996 607.3433 586 608 Z "/>
<g id="Layer-1" data-name="P">
</g>
<symbol id="font_2_46">
<path d="M .36523438 .20166016 L .45166017 .19042969 C .44222007 .13085938 .41796876 .08414713 .37890626 .05029297 C .34016929 .016764323 .29248048 0 .23583985 0 C .1648763 0 .1077474 .023111979 .064453128 .06933594 C .021484375 .115885417 0 .18245442 0 .26904298 C 0 .32503257 .009277344 .37402345 .027832032 .41601563 C .04638672 .4580078 .07454427 .48942057 .11230469 .5102539 C .15039063 .5314128 .19173177 .5419922 .23632813 .5419922 C .29264323 .5419922 .33870445 .52766928 .37451173 .49902345 C .410319 .47070313 .43326823 .43033854 .44335938 .3779297 L .35791017 .3647461 C .34977214 .3995768 .33528648 .42578126 .31445313 .44335938 C .2939453 .4609375 .26904298 .46972657 .2397461 .46972657 C .19547527 .46972657 .1595052 .45377604 .13183594 .421875 C .104166667 .39029948 .09033203 .34016929 .09033203 .27148438 C .09033203 .20182292 .10367838 .15120442 .1303711 .119628909 C .1570638 .08805338 .19189453 .072265628 .23486328 .072265628 C .2693685 .072265628 .2981771 .082845058 .32128907 .104003909 C .34440104 .12516277 .35904948 .15771485 .36523438 .20166016 Z "/>
</symbol>
<use xlink:href="#font_2_46" transform="matrix(24,0,0,-24,1145.486,1224.8428)"/>
<path transform="matrix(2.0009697,0,0,2.0009697,-2.0009697,-2.0009697)" d="M 476 727 C 475.99998 727.65658 475.9359 728.3068 475.80784 728.9508 C 475.6797 729.59487 475.49 730.22018 475.2387 730.8268 C 474.98744 731.4334 474.6794 732.0097 474.31465 732.55569 C 473.94987 733.1016 473.5353 733.60678 473.07106 734.07107 C 472.60676 734.5353 472.10163 734.9498 471.55567 735.31466 C 471.00975 735.67947 470.43345 735.9874 469.8268 736.2387 C 469.22016 736.49 468.59486 736.6796 467.95088 736.80776 C 467.3069 736.93588 466.6566 736.99996 466 737 C 465.34336 736.99996 464.69306 736.93588 464.04905 736.80776 C 463.40504 736.6796 462.77973 736.49 462.17308 736.2387 C 461.56645 735.9874 460.99015 735.6794 460.4442 735.3146 C 459.8983 734.94979 459.39317 734.5353 458.9289 734.07107 C 458.4646 733.60678 458.05006 733.10159 457.68528 732.5556 C 457.32048 732.00967 457.01243 731.43338 456.76118 730.8267 C 456.50993 730.2201 456.32023 729.59487 456.1921 728.95089 C 456.06404 728.3069 455.99998 727.65658 456 727 C 455.99998 726.3434 456.06404 725.69308 456.1921 725.0491 C 456.32023 724.405 456.50993 723.7797 456.76118 723.1731 C 457.01243 722.56649 457.32048 721.9902 457.68528 721.4443 C 458.05006 720.8983 458.4646 720.3932 458.9289 719.9289 C 459.39317 719.4646 459.8983 719.05007 460.4442 718.68527 C 460.99015 718.32046 461.56645 718.01248 462.17308 717.76119 C 462.77973 717.5099 463.40504 717.32028 464.04905 717.19216 C 464.69306 717.0641 465.34336 717.00009 466 717 C 466.6566 717.00009 467.3069 717.0641 467.95088 717.1922 C 468.59486 717.32028 469.22016 717.5099 469.8268 717.76119 C 470.43345 718.01248 471.00975 718.32046 471.55567 718.68527 C 472.10163 719.05007 472.60676 719.4646 473.07106 719.9289 C 473.5353 720.3932 473.94987 720.89828 474.31468 721.4442 C 474.6794 721.9902 474.98744 722.56649 475.2387 723.1731 C 475.49 723.7797 475.6797 724.405 475.80784 725.0491 C 475.9359 725.69308 475.99998 726.3434 476 727 Z "/>
<g id="Layer-1" data-name="P">
</g>
<use xlink:href="#font_2_46" transform="matrix(24,0,0,-24,925.3688,1462.9612)"/>
<path transform="matrix(2.0009697,0,0,2.0009697,-2.0009697,-2.0009697)" d="M 235 856 C 234.99999 856.65658 234.93593 857.3069 234.80783 857.95089 C 234.67974 858.59487 234.49004 859.22018 234.23877 859.8268 C 233.98749 860.4334 233.67945 861.0097 233.31465 861.55569 C 232.94988 862.1016 232.53534 862.60678 232.07106 863.07107 C 231.60678 863.53536 231.10166 863.9498 230.5557 864.31466 C 230.00974 864.6794 229.43344 864.9874 228.82682 865.2387 C 228.2202 865.49 227.59488 865.6797 226.95088 865.8078 C 226.30689 865.9359 225.6566 865.99996 225 866 C 224.34339 865.99996 223.69307 865.93588 223.04907 865.80776 C 222.40508 865.6796 221.77976 865.4899 221.17313 865.23867 C 220.56652 864.98739 219.99022 864.6794 219.44426 864.3146 C 218.89832 863.9498 218.39319 863.53536 217.92891 863.07107 C 217.4646 862.60678 217.05007 862.1016 216.68527 861.5556 C 216.32047 861.00967 216.01244 860.4334 215.76117 859.8268 C 215.5099 859.22018 215.32022 858.59487 215.19213 857.95089 C 215.06404 857.3069 215 856.65658 215 856 C 215 855.3434 215.06404 854.69308 215.19214 854.0491 C 215.32024 853.4051 215.5099 852.7797 215.76117 852.1731 C 216.01244 851.5664 216.32047 850.9901 216.68527 850.4443 C 217.05007 849.8983 217.4646 849.3932 217.92891 848.9289 C 218.39319 848.4646 218.89832 848.05007 219.44428 847.68527 C 219.99022 847.32046 220.56652 847.0124 221.17313 846.7611 C 221.77976 846.5099 222.40508 846.32028 223.04907 846.19216 C 223.69307 846.064 224.34339 846 225 846 C 225.6566 846 226.30689 846.064 226.95087 846.19216 C 227.59488 846.32028 228.2202 846.5099 228.82682 846.7611 C 229.43344 847.0124 230.00974 847.32046 230.5557 847.68527 C 231.10166 848.05007 231.60678 848.4646 232.07106 848.9289 C 232.53534 849.3932 232.94988 849.89828 233.31467 850.4442 C 233.67946 850.9901 233.98749 851.5664 234.23877 852.1731 C 234.49004 852.7797 234.67974 853.405 234.80783 854.049 C 234.93593 854.69308 234.99999 855.3434 235 856 Z "/>
<g id="Layer-1" data-name="P">
</g>
<use xlink:href="#font_2_46" transform="matrix(24,0,0,-24,443.14225,1721.0993)"/>
<path transform="matrix(2.0009697,0,0,2.0009697,-2.0009697,-2.0009697)" d="M 674 663 C 674 663.65658 673.9359 664.3068 673.8078 664.9508 C 673.6797 665.5948 673.4899 666.2201 673.23867 666.8267 C 672.98739 667.43338 672.6794 668.00967 672.31466 668.5556 C 671.9499 669.10159 671.53536 669.6067 671.07107 670.071 C 670.60678 670.5353 670.1016 670.94979 669.5557 671.3146 C 669.00979 671.6794 668.4334 671.9874 667.8268 672.2387 C 667.22018 672.49 666.59487 672.6797 665.95089 672.8078 C 665.3069 672.9359 664.6566 673 664 673 C 663.3434 673 662.69308 672.9359 662.049 672.8078 C 661.405 672.6797 660.77969 672.49 660.17306 672.2387 C 659.5664 671.9874 658.9901 671.6794 658.4442 671.3146 C 657.89828 670.94979 657.3931 670.5353 656.92886 670.071 C 656.46456 669.6067 656.05 669.1015 655.6852 668.55557 C 655.3204 668.0096 655.0124 667.43338 654.7611 666.8267 C 654.5098 666.2201 654.3201 665.5948 654.1921 664.9508 C 654.064 664.3068 654 663.65658 654 663 C 654 662.3434 654.064 661.69308 654.1921 661.0491 C 654.3201 660.4051 654.5098 659.7798 654.7611 659.17318 C 655.0124 658.5665 655.3204 657.99026 655.6852 657.4443 C 656.05 656.8983 656.46456 656.3932 656.92886 655.9289 C 657.3931 655.4646 657.89828 655.05007 658.4442 654.68527 C 658.9901 654.32046 659.5664 654.01248 660.17306 653.76119 C 660.77969 653.5099 661.405 653.32028 662.049 653.19216 C 662.69308 653.0641 663.3434 653.00009 664 653 C 664.6566 653.00009 665.3069 653.0641 665.95089 653.19216 C 666.59487 653.32028 667.22018 653.5099 667.8268 653.76119 C 668.4334 654.01248 669.00979 654.32046 669.5557 654.68527 C 670.1016 655.05007 670.60678 655.4646 671.07107 655.9289 C 671.53536 656.3932 671.9499 656.8983 672.31466 657.4443 C 672.6794 657.99026 672.98739 658.5665 673.23867 659.17318 C 673.4899 659.7798 673.6797 660.4051 673.8078 661.0491 C 673.9359 661.69308 674 662.3434 674 663 Z "/>
<g id="Layer-1" data-name="P">
</g>
<use xlink:href="#font_2_46" transform="matrix(24,0,0,-24,1321.5602,1334.9014)"/>
<path transform="matrix(2.0009697,0,0,2.0009697,-2.0009697,-2.0009697)" d="M 658 821 C 658 821.65658 657.9359 822.3068 657.8078 822.9508 C 657.6797 823.5948 657.49 824.2201 657.2387 824.8267 C 656.9874 825.4333 656.67947 826.0096 656.31466 826.55557 C 655.9498 827.1015 655.53536 827.6067 655.07107 828.071 C 654.60678 828.5353 654.1016 828.94979 653.55569 829.3146 C 653.0097 829.6793 652.4334 829.98739 651.8268 830.23867 C 651.22018 830.4899 650.59487 830.6797 649.95089 830.8078 C 649.3069 830.9359 648.6566 830.99996 648 831 C 647.3433 830.99996 646.69308 830.9359 646.0491 830.8078 C 645.405 830.6797 644.7797 830.49 644.1731 830.2387 C 643.56649 829.9874 642.9902 829.6794 642.4442 829.3146 C 641.89828 828.94979 641.3932 828.5353 640.9289 828.071 C 640.4646 827.6067 640.0501 827.1015 639.6853 826.55557 C 639.3205 826.0096 639.01248 825.4333 638.76119 824.8267 C 638.5099 824.2201 638.32028 823.5948 638.19216 822.9508 C 638.064 822.3068 637.99996 821.65658 638 821 C 637.99996 820.3433 638.064 819.693 638.19216 819.049 C 638.32028 818.405 638.5099 817.7797 638.76119 817.1731 C 639.01248 816.56649 639.3205 815.9902 639.6853 815.4442 C 640.0501 814.89828 640.4646 814.3932 640.9289 813.9289 C 641.3932 813.4646 641.89828 813.05 642.4442 812.6852 C 642.9902 812.32046 643.56649 812.0124 644.1731 811.7611 C 644.7797 811.5098 645.405 811.3202 646.0491 811.1921 C 646.69308 811.064 647.3433 811 648 811 C 648.6566 811 649.3069 811.064 649.95089 811.19216 C 650.59487 811.3202 651.22018 811.5099 651.8268 811.76119 C 652.4334 812.01248 653.0097 812.32046 653.55569 812.68527 C 654.1016 813.05007 654.60678 813.4646 655.07107 813.9289 C 655.53536 814.3932 655.9498 814.89828 656.31466 815.4442 C 656.67947 815.9902 656.9874 816.56649 657.2387 817.1731 C 657.49 817.7797 657.6797 818.405 657.8078 819.0491 C 657.9359 819.69308 658 820.3433 658 821 Z "/>
<g id="Layer-1" data-name="P">
</g>
<use xlink:href="#font_2_46" transform="matrix(24,0,0,-24,1289.5289,1651.0797)"/>
<path transform="matrix(2.0009697,0,0,2.0009697,-2.0009697,-2.0009697)" d="M 841 796 C 840.99996 796.65658 840.9359 797.3068 840.8078 797.9508 C 840.6797 798.5948 840.49 799.2201 840.2387 799.8267 C 839.9874 800.43338 839.67947 801.00967 839.31466 801.5556 C 838.9498 802.10159 838.5353 802.6067 838.071 803.071 C 837.6067 803.5352 837.1015 803.94979 836.55557 804.3146 C 836.0096 804.6794 835.43338 804.98739 834.8267 805.23867 C 834.2201 805.4899 833.5948 805.6796 832.9508 805.80776 C 832.3068 805.93588 831.65658 805.99996 831 806 C 830.3433 805.99996 829.693 805.93588 829.049 805.80776 C 828.405 805.6796 827.7797 805.4899 827.1731 805.23867 C 826.56649 804.98739 825.9902 804.6793 825.4442 804.3145 C 824.8983 803.9497 824.3932 803.5352 823.9289 803.071 C 823.4646 802.6067 823.05 802.1015 822.6852 801.55557 C 822.3204 801.0096 822.0124 800.43338 821.7611 799.8267 C 821.5098 799.2201 821.3202 798.5948 821.1921 797.9508 C 821.06399 797.3068 820.99996 796.65658 821 796 C 820.99996 795.3434 821.06399 794.69308 821.1921 794.0491 C 821.3202 793.4051 821.5099 792.7797 821.76119 792.17306 C 822.01248 791.5664 822.32046 790.9901 822.68527 790.44418 C 823.05007 789.8982 823.4646 789.3931 823.9289 788.92886 C 824.3932 788.46456 824.8983 788.05 825.4442 787.68527 C 825.9902 787.32046 826.56649 787.0124 827.1731 786.76119 C 827.7797 786.5099 828.405 786.32028 829.049 786.19216 C 829.693 786.064 830.3433 786 831 786 C 831.65658 786 832.3068 786.064 832.9508 786.19216 C 833.5948 786.32028 834.2201 786.5099 834.8267 786.76119 C 835.43338 787.0124 836.0096 787.32046 836.55557 787.68527 C 837.1015 788.05 837.6067 788.46456 838.071 788.92886 C 838.5353 789.3931 838.9498 789.8982 839.31466 790.44418 C 839.67947 790.9901 839.9874 791.5664 840.2387 792.17306 C 840.49 792.7797 840.6797 793.4051 840.8078 794.0491 C 840.9359 794.69308 840.99996 795.3434 841 796 Z "/>
<g id="Layer-1" data-name="P">
</g>
<use xlink:href="#font_2_46" transform="matrix(24,0,0,-24,1655.7073,1601.0471)"/>
<path transform="matrix(2.0009697,0,0,2.0009697,-2.0009697,-2.0009697)" d="M 800 466 C 799.99996 466.6566 799.9359 467.3069 799.8078 467.95088 C 799.6796 468.59486 799.4899 469.22016 799.23867 469.8268 C 798.98739 470.43345 798.6794 471.00975 798.31466 471.55567 C 797.9498 472.10163 797.53536 472.60676 797.07107 473.07106 C 796.60678 473.5353 796.1016 473.94987 795.55569 474.31468 C 795.0097 474.6794 794.4334 474.98744 793.8268 475.2387 C 793.22018 475.49 792.5948 475.6797 791.9508 475.80784 C 791.3068 475.9359 790.65658 475.99998 790 476 C 789.3433 475.99998 788.693 475.9359 788.049 475.80784 C 787.405 475.6797 786.7797 475.49 786.1731 475.2387 C 785.56649 474.98744 784.9902 474.6794 784.44418 474.31465 C 783.8982 473.94987 783.3931 473.5353 782.92886 473.07106 C 782.46456 472.60676 782.0499 472.10163 781.6851 471.55567 C 781.3203 471.00975 781.0123 470.43345 780.76107 469.8268 C 780.50979 469.22016 780.3201 468.59486 780.192 467.95088 C 780.06399 467.3069 779.99996 466.6566 780 466 C 779.99996 465.34336 780.06399 464.69306 780.192 464.04905 C 780.3201 463.40504 780.50979 462.77973 780.76107 462.17308 C 781.0123 461.56645 781.3204 460.99015 781.6852 460.4442 C 782.05 459.8983 782.46456 459.39317 782.92886 458.9289 C 783.3931 458.46464 783.89828 458.05009 784.4442 457.68528 C 784.9902 457.3205 785.56649 457.01246 786.1731 456.76118 C 786.7797 456.50993 787.405 456.32023 788.0491 456.1921 C 788.69308 456.06404 789.3433 456 790 456 C 790.65658 456 791.3068 456.06404 791.9508 456.1921 C 792.5948 456.32023 793.22018 456.50993 793.8268 456.76118 C 794.4334 457.01246 795.00967 457.3205 795.5556 457.68528 C 796.10159 458.05009 796.60678 458.46464 797.07107 458.9289 C 797.53536 459.39317 797.9498 459.8983 798.31466 460.4442 C 798.67947 460.99015 798.9874 461.56645 799.2387 462.17308 C 799.49 462.77973 799.6796 463.40504 799.80776 464.04905 C 799.93588 464.69306 799.99996 465.34336 800 466 Z "/>
<g id="Layer-1" data-name="P">
</g>
<use xlink:href="#font_2_46" transform="matrix(24,0,0,-24,1573.676,940.72817)"/>
<path transform="matrix(2.0009697,0,0,2.0009697,-2.0009697,-2.0009697)" d="M 773 427 C 772.99996 427.6566 772.9359 428.3069 772.8078 428.95088 C 772.6797 429.59489 772.49008 430.22019 772.2388 430.82679 C 771.9875 431.43339 771.67947 432.00968 771.31466 432.55567 C 770.9498 433.1016 770.5353 433.60673 770.071 434.071 C 769.6067 434.5353 769.10159 434.94984 768.5556 435.3146 C 768.00967 435.67939 767.43338 435.98744 766.8267 436.2387 C 766.2201 436.49 765.5948 436.6797 764.9508 436.80784 C 764.3068 436.9359 763.65658 436.99998 763 437 C 762.3433 436.99998 761.693 436.9359 761.049 436.80784 C 760.405 436.67973 759.7797 436.49003 759.1731 436.23875 C 758.56649 435.98747 757.99026 435.6794 757.4443 435.31465 C 756.8983 434.94987 756.3932 434.5353 755.9289 434.071 C 755.4646 433.60673 755.05 433.1016 754.6852 432.55564 C 754.3204 432.00968 754.0123 431.43339 753.7611 430.82679 C 753.5098 430.22019 753.3202 429.59486 753.1921 428.95085 C 753.06399 428.3069 752.99996 427.6566 753 427 C 752.99996 426.34336 753.06399 425.69306 753.1921 425.04905 C 753.3202 424.40504 753.5098 423.77973 753.7611 423.1731 C 754.0123 422.5665 754.3204 421.9902 754.6852 421.44429 C 755.05 420.8983 755.4646 420.39317 755.9289 419.9289 C 756.3932 419.46458 756.8983 419.05003 757.4443 418.68525 C 757.99026 418.32044 758.56649 418.01243 759.1731 417.76118 C 759.7797 417.50993 760.405 417.32023 761.0491 417.19215 C 761.69308 417.06407 762.3433 417 763 417 C 763.65658 417 764.3068 417.06407 764.9508 417.19218 C 765.5948 417.32026 766.2201 417.50993 766.8267 417.7612 C 767.43338 418.01246 768.00967 418.32048 768.5556 418.68525 C 769.10159 419.05003 769.6067 419.46458 770.071 419.9289 C 770.5353 420.39317 770.94979 420.8983 771.3146 421.44425 C 771.6794 421.9902 771.9874 422.5665 772.2387 423.1731 C 772.49 423.77973 772.6797 424.40504 772.8078 425.04905 C 772.9359 425.69306 772.99996 426.34336 773 427 Z "/>
<g id="Layer-1" data-name="P">
</g>
<use xlink:href="#font_2_46" transform="matrix(24,0,0,-24,1519.6397,862.6683)"/>
<path transform="matrix(2.0009697,0,0,2.0009697,-2.0009697,-2.0009697)" d="M 810 354 C 809.99996 354.6566 809.9359 355.3069 809.8078 355.95088 C 809.6797 356.59483 809.49 357.22013 809.2387 357.82676 C 808.98739 358.43339 808.6793 359.00968 808.3146 359.55564 C 807.94979 360.10163 807.5352 360.60676 807.071 361.07106 C 806.6067 361.5353 806.10159 361.94987 805.5556 362.31465 C 805.00967 362.6794 804.43338 362.98747 803.8267 363.23875 C 803.2201 363.49 802.5948 363.6797 801.9508 363.80784 C 801.3068 363.9359 800.65658 363.99998 800 364 C 799.3433 363.99998 798.693 363.9359 798.049 363.80784 C 797.405 363.6797 796.7797 363.49 796.1731 363.23875 C 795.56649 362.98747 794.9902 362.6794 794.44418 362.31465 C 793.8982 361.94987 793.3931 361.5353 792.92886 361.07106 C 792.46456 360.60676 792.05 360.10163 791.6852 359.55567 C 791.3204 359.00968 791.0123 358.43339 790.76107 357.82676 C 790.50979 357.22013 790.3201 356.59483 790.192 355.95088 C 790.06399 355.3069 789.99996 354.6566 790 354 C 789.99996 353.34339 790.06399 352.69309 790.192 352.04908 C 790.3201 351.40507 790.50979 350.77976 790.76107 350.17314 C 791.0123 349.56654 791.3203 348.99024 791.6851 348.44429 C 792.0499 347.89833 792.46456 347.3932 792.92886 346.92893 C 793.3931 346.46467 793.89828 346.0501 794.4442 345.6853 C 794.9902 345.32054 795.56649 345.01249 796.1731 344.7612 C 796.7797 344.50996 797.405 344.32026 798.049 344.19215 C 798.693 344.06407 799.3433 344 800 344 C 800.65658 344 801.3068 344.06407 801.9508 344.19215 C 802.5948 344.32026 803.2201 344.50996 803.8267 344.7612 C 804.43338 345.01249 805.00967 345.32054 805.5556 345.6853 C 806.10159 346.0501 806.6067 346.46467 807.071 346.92893 C 807.5352 347.3932 807.94979 347.89833 808.3146 348.44429 C 808.6793 348.99024 808.98739 349.56654 809.2387 350.17314 C 809.49 350.77976 809.6797 351.40507 809.8078 352.04908 C 809.9359 352.69309 809.99996 353.34339 810 354 Z "/>
<g id="Layer-1" data-name="P">
</g>
<use xlink:href="#font_2_46" transform="matrix(24,0,0,-24,1593.6956,716.60708)"/>
<path transform="matrix(2.0009697,0,0,2.0009697,-2.0009697,-2.0009697)" d="M 875 223 C 874.99996 223.6566 874.9359 224.3069 874.8078 224.95088 C 874.6797 225.59487 874.49 226.22017 874.2387 226.82678 C 873.9874 227.4334 873.67947 228.00969 873.31466 228.55565 C 872.9498 229.1016 872.5353 229.60674 872.07107 230.07105 C 871.60678 230.53533 871.10159 230.94988 870.5556 231.31467 C 870.00967 231.67946 869.4334 231.98749 868.8268 232.23876 C 868.22018 232.49004 867.59487 232.67974 866.95089 232.80783 C 866.3069 232.93593 865.65658 232.99999 865 233 C 864.3433 232.99999 863.693 232.93593 863.049 232.80783 C 862.405 232.67974 861.77969 232.49004 861.17306 232.23876 C 860.5664 231.98749 859.9902 231.67946 859.4442 231.31467 C 858.89828 230.94988 858.3932 230.53533 857.9289 230.07105 C 857.4646 229.60674 857.05 229.1016 856.6852 228.55565 C 856.32046 228.00969 856.0124 227.4334 855.7611 226.82678 C 855.5098 226.22017 855.3202 225.59487 855.1921 224.95088 C 855.06399 224.3069 854.99996 223.6566 855 223 C 854.99996 222.3434 855.06399 221.69309 855.1921 221.04909 C 855.3202 220.40509 855.5098 219.77977 855.7611 219.17314 C 856.0124 218.5665 856.32046 217.99022 856.68527 217.44428 C 857.05007 216.89833 857.4646 216.3932 857.9289 215.92891 C 858.3932 215.46462 858.89828 215.05008 859.4442 214.68529 C 859.9902 214.3205 860.5664 214.01245 861.17306 213.76119 C 861.77969 213.50992 862.405 213.32024 863.049 213.19214 C 863.693 213.06404 864.3433 213 865 213 C 865.65658 213 866.3068 213.06404 866.9508 213.19214 C 867.59487 213.32024 868.22018 213.50992 868.8268 213.76119 C 869.4334 214.01245 870.0097 214.3205 870.55569 214.68529 C 871.1016 215.05008 871.60678 215.46462 872.07107 215.92891 C 872.5353 216.3932 872.9498 216.89833 873.3147 217.44428 C 873.67947 217.99022 873.9875 218.5665 874.2388 219.17314 C 874.49 219.77977 874.6797 220.40508 874.8078 221.04907 C 874.9359 221.69309 874.99996 222.3434 875 223 Z "/>
<g id="Layer-1" data-name="P">
</g>
<use xlink:href="#font_2_46" transform="matrix(24,0,0,-24,1723.7411,454.4977)"/>
<path transform="matrix(2.0009697,0,0,2.0009697,-2.0009697,-2.0009697)" d="M 604 155 C 604 155.6566 603.9359 156.30689 603.8078 156.95087 C 603.6797 157.59487 603.49008 158.22017 603.2388 158.8268 C 602.9875 159.43343 602.6794 160.00972 602.3146 160.55567 C 601.9498 161.10163 601.53536 161.60675 601.07107 162.07105 C 600.60678 162.53534 600.1016 162.94988 599.55569 163.31467 C 599.0097 163.67946 598.43338 163.9875 597.8267 164.23877 C 597.2201 164.49004 596.59487 164.67974 595.95089 164.80783 C 595.3069 164.93593 594.6566 164.99999 594 165 C 593.3434 164.99999 592.69308 164.93593 592.049 164.80783 C 591.405 164.67974 590.7797 164.49004 590.1731 164.23877 C 589.56649 163.9875 588.9902 163.67946 588.4442 163.31467 C 587.89828 162.94988 587.3932 162.53534 586.9289 162.07105 C 586.4646 161.60675 586.05007 161.10163 585.68527 160.55567 C 585.32046 160.00972 585.0124 159.43343 584.7611 158.8268 C 584.5098 158.22017 584.3202 157.59487 584.19216 156.95087 C 584.064 156.30689 583.99996 155.6566 584 155 C 583.99996 154.34339 584.064 153.69309 584.19216 153.0491 C 584.3202 152.4051 584.5098 151.77979 584.7611 151.17316 C 585.0124 150.56653 585.32046 149.99024 585.68527 149.44428 C 586.05007 148.89833 586.4646 148.3932 586.9289 147.92893 C 587.3932 147.46462 587.89828 147.05008 588.4442 146.68529 C 588.9902 146.3205 589.56649 146.01247 590.1731 145.7612 C 590.7797 145.50994 591.405 145.32025 592.049 145.19216 C 592.69308 145.06406 593.3434 145 594 145 C 594.6566 145 595.3069 145.06406 595.95089 145.19216 C 596.59487 145.32025 597.2201 145.50994 597.8267 145.7612 C 598.43338 146.01247 599.0097 146.3205 599.55569 146.68529 C 600.1016 147.05008 600.60678 147.46462 601.07107 147.92893 C 601.53536 148.3932 601.9498 148.89833 602.3146 149.44428 C 602.6794 149.99024 602.9875 150.56653 603.2388 151.17316 C 603.49008 151.77979 603.6797 152.4051 603.8078 153.0491 C 603.9359 153.69309 604 154.34339 604 155 Z "/>
<g id="Layer-1" data-name="P">
</g>
<use xlink:href="#font_2_46" transform="matrix(24,0,0,-24,1181.4885,318.43)"/>
</g>
</g>
</svg>
