<?xml version="1.0" encoding="utf-8" standalone="no"?>
<!DOCTYPE svg PUBLIC "-//W3C//DTD SVG 1.1//EN"
  "http://www.w3.org/Graphics/SVG/1.1/DTD/svg11.dtd">
<svg xmlns:xlink="http://www.w3.org/1999/xlink" width="460.8pt" height="345.6pt" viewBox="0 0 460.8 345.6" xmlns="http://www.w3.org/2000/svg" version="1.1">
 <metadata>
  <rdf:RDF xmlns:dc="http://purl.org/dc/elements/1.1/" xmlns:cc="http://creativecommons.org/ns#" xmlns:rdf="http://www.w3.org/1999/02/22-rdf-syntax-ns#">
   <cc:Work>
    <dc:type rdf:resource="http://purl.org/dc/dcmitype/StillImage"/>
    <dc:date>2025-03-11T15:22:42.932675</dc:date>
    <dc:format>image/svg+xml</dc:format>
    <dc:creator>
     <cc:Agent>
      <dc:title>Matplotlib v3.10.0, https://matplotlib.org/</dc:title>
     </cc:Agent>
    </dc:creator>
   </cc:Work>
  </rdf:RDF>
 </metadata>
 <defs>
  <style type="text/css">*{stroke-linejoin: round; stroke-linecap: butt}</style>
 </defs>
 <g id="figure_1">
  <g id="patch_1">
   <path d="M 0 345.6 
L 460.8 345.6 
L 460.8 0 
L 0 0 
z
" style="fill: #ffffff"/>
  </g>
  <g id="axes_1">
   <g id="patch_2">
    <path d="M 57.6 307.584 
L 414.72 307.584 
L 414.72 41.472 
L 57.6 41.472 
z
" style="fill: #ffffff"/>
   </g>
   <g id="line2d_1">
    <path d="M 78.905991 261.71861 
L -1 308.904072 
M 140.235245 199.878332 
L 78.905991 261.71861 
M 157.442856 138.045147 
L 140.235245 199.878332 
M 131.025498 76.482692 
L 157.442856 138.045147 
M 60.89235 15.466963 
L 131.025498 76.482692 
M 30.251028 -1 
L 60.89235 15.466963 
M -1 312.112499 
L 78.905991 261.71861 
M 85.269089 262.081358 
L 78.905991 261.71861 
M 85.269089 262.081358 
L 140.235245 199.878332 
M 85.269089 262.081358 
L -1 312.892002 
M 146.981492 199.999351 
L 140.235245 199.878332 
M 146.981492 199.999351 
L 157.442856 138.045147 
M 146.981492 199.999351 
L 85.269089 262.081358 
M 164.271409 137.924327 
L 157.442856 138.045147 
M 164.271409 137.924327 
L 131.025498 76.482692 
M 164.271409 137.924327 
L 146.981492 199.999351 
M 137.629838 76.12202 
L 131.025498 76.482692 
M 137.629838 76.12202 
L 60.89235 15.466963 
M 137.629838 76.12202 
L 164.271409 137.924327 
M 66.977311 14.870864 
L 60.89235 15.466963 
M 66.977311 14.870864 
L 35.530219 -1 
M 66.977311 14.870864 
L 137.629838 76.12202 
M 37.346774 -1 
L 66.977311 14.870864 
M -1 316.317592 
L 85.269089 262.081358 
M 91.615159 262.454281 
L 85.269089 262.081358 
M 91.615159 262.454281 
L 146.981492 199.999351 
M 91.615159 262.454281 
L -1 316.856544 
M 153.7249 200.123778 
L 146.981492 199.999351 
M 153.7249 200.123778 
L 164.271409 137.924327 
M 153.7249 200.123778 
L 91.615159 262.454281 
M 171.094285 137.800099 
L 164.271409 137.924327 
M 171.094285 137.800099 
L 137.629838 76.12202 
M 171.094285 137.800099 
L 153.7249 200.123778 
M 144.217148 75.751204 
L 137.629838 76.12202 
M 144.217148 75.751204 
L 66.977311 14.870864 
M 144.217148 75.751204 
L 171.094285 137.800099 
M 73.031052 14.258054 
L 66.977311 14.870864 
M 73.031052 14.258054 
L 42.709168 -1 
M 73.031052 14.258054 
L 144.217148 75.751204 
M 44.446543 -1 
L 73.031052 14.258054 
M -1 320.49027 
L 91.615159 262.454281 
M 97.938523 262.839062 
L 91.615159 262.454281 
M 97.938523 262.839062 
L 153.7249 200.123778 
M 97.938523 262.839062 
L -1 320.794974 
M 160.456956 200.252166 
L 153.7249 200.123778 
M 160.456956 200.252166 
L 171.094285 137.800099 
M 160.456956 200.252166 
L 97.938523 262.839062 
M 177.908646 137.671906 
L 171.094285 137.800099 
M 177.908646 137.671906 
L 144.217148 75.751204 
M 177.908646 137.671906 
L 160.456956 200.252166 
M 150.790269 75.36858 
L 144.217148 75.751204 
M 150.790269 75.36858 
L 73.031052 14.258054 
M 150.790269 75.36858 
L 177.908646 137.671906 
M 79.04506 13.625789 
L 73.031052 14.258054 
M 79.04506 13.625789 
L 49.891802 -1 
M 79.04506 13.625789 
L 150.790269 75.36858 
M 51.546877 -1 
L 79.04506 13.625789 
M -1 324.626913 
L 97.938523 262.839062 
M 104.233506 263.237289 
L 97.938523 262.839062 
M 104.233506 263.237289 
L 160.456956 200.252166 
M 104.233506 263.237289 
L -1 324.704388 
M 167.180497 200.385055 
L 160.456956 200.252166 
M 167.180497 200.385055 
L 177.908646 137.671906 
M 167.180497 200.385055 
L 104.233506 263.237289 
M 184.717332 137.539225 
L 177.908646 137.671906 
M 184.717332 137.539225 
L 150.790269 75.36858 
M 184.717332 137.539225 
L 167.180497 200.385055 
M 157.34636 74.972573 
L 150.790269 75.36858 
M 157.34636 74.972573 
L 79.04506 13.625789 
M 157.34636 74.972573 
L 184.717332 137.539225 
M 85.016495 12.971448 
L 79.04506 13.625789 
M 85.016495 12.971448 
L 57.079131 -1 
M 85.016495 12.971448 
L 157.34636 74.972573 
M 58.650656 -1 
L 85.016495 12.971448 
M 2.560166 326.510225 
L -1 326.06445 
M 2.560166 326.510225 
L 104.233506 263.237289 
M 2.560166 326.510225 
L -1 327.975053 
M 110.502946 263.650569 
L 104.233506 263.237289 
M 110.502946 263.650569 
L 167.180497 200.385055 
M 110.502946 263.650569 
L 2.560166 326.510225 
M 173.895524 200.522976 
L 167.180497 200.385055 
M 173.895524 200.522976 
L 184.717332 137.539225 
M 173.895524 200.522976 
L 110.502946 263.650569 
M 191.520341 137.401517 
L 184.717332 137.539225 
M 191.520341 137.401517 
L 157.34636 74.972573 
M 191.520341 137.401517 
L 173.895524 200.522976 
M 163.882584 74.561555 
L 157.34636 74.972573 
M 163.882584 74.561555 
L 85.016495 12.971448 
M 163.882584 74.561555 
L 191.520341 137.401517 
M 90.942521 12.292431 
L 85.016495 12.971448 
M 90.942521 12.292431 
L 64.274457 -1 
M 90.942521 12.292431 
L 163.882584 74.561555 
M 65.760287 -1 
L 90.942521 12.292431 
M -1 328.041299 
L 2.560166 326.510225 
M 7.972489 327.224108 
L 2.560166 326.510225 
M 7.972489 327.224108 
L 110.502946 263.650569 
M 7.972489 327.224108 
L -1 330.903916 
M 116.738328 264.080794 
L 110.502946 263.650569 
M 116.738328 264.080794 
L 173.895524 200.522976 
M 116.738328 264.080794 
L 7.972489 327.224108 
M 180.59636 200.666562 
L 173.895524 200.522976 
M 180.59636 200.666562 
L 191.520341 137.401517 
M 180.59636 200.666562 
L 116.738328 264.080794 
M 198.314835 137.258143 
L 191.520341 137.401517 
M 198.314835 137.258143 
L 163.882584 74.561555 
M 198.314835 137.258143 
L 180.59636 200.666562 
M 170.396104 74.133701 
L 163.882584 74.561555 
M 170.396104 74.133701 
L 90.942521 12.292431 
M 170.396104 74.133701 
L 198.314835 137.258143 
M 96.811783 11.585655 
L 90.942521 12.292431 
M 96.811783 11.585655 
L 71.474669 -1 
M 96.811783 11.585655 
L 170.396104 74.133701 
M 72.87207 -1 
L 96.811783 11.585655 
M -1 331.068171 
L 7.972489 327.224108 
M 13.305344 327.969488 
L 7.972489 327.224108 
M 13.305344 327.969488 
L 116.738328 264.080794 
M 13.305344 327.969488 
L -1 333.816442 
M 122.94249 264.530059 
L 116.738328 264.080794 
M 122.94249 264.530059 
L 180.59636 200.666562 
M 122.94249 264.530059 
L 13.305344 327.969488 
M 187.288682 200.816516 
L 180.59636 200.666562 
M 187.288682 200.816516 
L 198.314835 137.258143 
M 187.288682 200.816516 
L 122.94249 264.530059 
M 205.103654 137.108424 
L 198.314835 137.258143 
M 205.103654 137.108424 
L 170.396104 74.133701 
M 205.103654 137.108424 
L 187.288682 200.816516 
M 176.88408 73.686906 
L 170.396104 74.133701 
M 176.88408 73.686906 
L 96.811783 11.585655 
M 176.88408 73.686906 
L 205.103654 137.108424 
M 102.627122 10.847705 
L 96.811783 11.585655 
M 102.627122 10.847705 
L 78.68825 -1 
M 102.627122 10.847705 
L 176.88408 73.686906 
M 79.993983 -1 
L 102.627122 10.847705 
M -1 334.07421 
L 13.305344 327.969488 
M 18.553055 328.749747 
L 13.305344 327.969488 
M 18.553055 328.749747 
L 122.94249 264.530059 
M 18.553055 328.749747 
L -1 336.713175 
M 129.104081 265.000407 
L 122.94249 264.530059 
M 129.104081 265.000407 
L 187.288682 200.816516 
M 129.104081 265.000407 
L 18.553055 328.749747 
M 193.969651 200.973511 
L 187.288682 200.816516 
M 193.969651 200.973511 
L 205.103654 137.108424 
M 193.969651 200.973511 
L 129.104081 265.000407 
M 211.881119 136.951659 
L 205.103654 137.108424 
M 211.881119 136.951659 
L 176.88408 73.686906 
M 211.881119 136.951659 
L 193.969651 200.973511 
M 183.349351 73.219133 
L 176.88408 73.686906 
M 183.349351 73.219133 
L 102.627122 10.847705 
M 183.349351 73.219133 
L 211.881119 136.951659 
M 108.374344 10.075253 
L 102.627122 10.847705 
M 108.374344 10.075253 
L 85.910077 -1 
M 108.374344 10.075253 
L 183.349351 73.219133 
M 87.121215 -1 
L 108.374344 10.075253 
M -1 337.059248 
L 18.553055 328.749747 
M 23.707108 329.568434 
L 18.553055 328.749747 
M 23.707108 329.568434 
L 129.104081 265.000407 
M 23.707108 329.568434 
L -1 339.593076 
M 135.228776 265.493991 
L 129.104081 265.000407 
M 135.228776 265.493991 
L 193.969651 200.973511 
M 135.228776 265.493991 
L 23.707108 329.568434 
M 200.636429 201.138278 
L 193.969651 200.973511 
M 200.636429 201.138278 
L 211.881119 136.951659 
M 200.636429 201.138278 
L 135.228776 265.493991 
M 218.650071 136.787149 
L 211.881119 136.951659 
M 218.650071 136.787149 
L 183.349351 73.219133 
M 218.650071 136.787149 
L 200.636429 201.138278 
M 189.783402 72.728276 
L 183.349351 73.219133 
M 189.783402 72.728276 
L 108.374344 10.075253 
M 189.783402 72.728276 
L 218.650071 136.787149 
M 114.050614 9.264776 
L 108.374344 10.075253 
M 114.050614 9.264776 
L 93.145234 -1 
M 114.050614 9.264776 
L 189.783402 72.728276 
M 94.258773 -1 
L 114.050614 9.264776 
M -1 340.022466 
L 23.707108 329.568434 
M 28.761826 330.429156 
L 23.707108 329.568434 
M 28.761826 330.429156 
L 135.228776 265.493991 
M 28.761826 330.429156 
L -1 342.456585 
M 141.305222 266.012992 
L 135.228776 265.493991 
M 141.305222 266.012992 
L 200.636429 201.138278 
M 141.305222 266.012992 
L 28.761826 330.429156 
M 207.289017 201.311537 
L 200.636429 201.138278 
M 207.289017 201.311537 
L 218.650071 136.787149 
M 207.289017 201.311537 
L 141.305222 266.012992 
M 225.410508 136.614159 
L 218.650071 136.787149 
M 225.410508 136.614159 
L 189.783402 72.728276 
M 225.410508 136.614159 
L 207.289017 201.311537 
M 196.186234 72.212157 
L 189.783402 72.728276 
M 196.186234 72.212157 
L 114.050614 9.264776 
M 196.186234 72.212157 
L 225.410508 136.614159 
M 119.647416 8.412716 
L 114.050614 9.264776 
M 119.647416 8.412716 
L 100.394719 -1 
M 119.647416 8.412716 
L 196.186234 72.212157 
M 101.406996 -1 
L 119.647416 8.412716 
M -1 342.963637 
L 28.761826 330.429156 
M 33.700181 331.33559 
L 28.761826 330.429156 
M 33.700181 331.33559 
L 141.305222 266.012992 
M 33.700181 331.33559 
L -1 345.299973 
M 147.330582 266.559636 
L 141.305222 266.012992 
M 147.330582 266.559636 
L 207.289017 201.311537 
M 147.330582 266.559636 
L 33.700181 331.33559 
M 213.924576 201.494038 
L 207.289017 201.311537 
M 213.924576 201.494038 
L 225.410508 136.614159 
M 213.924576 201.494038 
L 147.330582 266.559636 
M 232.16243 136.431938 
L 225.410508 136.614159 
M 232.16243 136.431938 
L 196.186234 72.212157 
M 232.16243 136.431938 
L 213.924576 201.494038 
M 202.557847 71.668564 
L 196.186234 72.212157 
M 202.557847 71.668564 
L 119.647416 8.412716 
M 202.557847 71.668564 
L 232.16243 136.431938 
M 125.159073 7.515443 
L 119.647416 8.412716 
M 125.159073 7.515443 
L 107.661931 -1 
M 125.159073 7.515443 
L 202.557847 71.668564 
M 108.569287 -1 
L 125.159073 7.515443 
M -1 345.878945 
L 33.700181 331.33559 
M 38.519333 332.291011 
L 33.700181 331.33559 
M 38.519333 332.291011 
L 147.330582 266.559636 
M 38.519333 332.291011 
L 2.804292 346.6 
M 153.304856 267.135971 
L 147.330582 266.559636 
M 153.304856 267.135971 
L 213.924576 201.494038 
M 153.304856 267.135971 
L 38.519333 332.291011 
M 220.545945 201.686474 
L 213.924576 201.494038 
M 220.545945 201.686474 
L 232.16243 136.431938 
M 220.545945 201.686474 
L 153.304856 267.135971 
M 238.903 136.239794 
L 232.16243 136.431938 
M 238.903 136.239794 
L 202.557847 71.668564 
M 238.903 136.239794 
L 220.545945 201.686474 
M 208.889725 71.095425 
L 202.557847 71.668564 
M 208.889725 71.095425 
L 125.159073 7.515443 
M 208.889725 71.095425 
L 238.903 136.239794 
M 130.579911 6.569541 
L 125.159073 7.515443 
M 130.579911 6.569541 
L 114.950567 -1 
M 130.579911 6.569541 
L 208.889725 71.095425 
M 115.74917 -1 
L 130.579911 6.569541 
M 4.202102 346.6 
L 38.519333 332.291011 
M 43.216447 333.296243 
L 38.519333 332.291011 
M 43.216447 333.296243 
L 153.304856 267.135971 
M 43.216447 333.296243 
L 9.853445 346.6 
M 159.225205 267.742478 
L 153.304856 267.135971 
M 159.225205 267.742478 
L 220.545945 201.686474 
M 159.225205 267.742478 
L 43.216447 333.296243 
M 227.150284 201.889009 
L 220.545945 201.686474 
M 227.150284 201.889009 
L 238.903 136.239794 
M 227.150284 201.889009 
L 159.225205 267.742478 
M 245.632218 136.037559 
L 238.903 136.239794 
M 245.632218 136.037559 
L 208.889725 71.095425 
M 245.632218 136.037559 
L 227.150284 201.889009 
M 215.184708 70.492228 
L 208.889725 71.095425 
M 215.184708 70.492228 
L 130.579911 6.569541 
M 215.184708 70.492228 
L 245.632218 136.037559 
M 135.901414 5.574284 
L 130.579911 6.569541 
M 135.901414 5.574284 
L 122.257272 -1 
M 135.901414 5.574284 
L 215.184708 70.492228 
M 122.943694 -1 
L 135.901414 5.574284 
M 11.13647 346.6 
L 43.216447 333.296243 
M 47.780167 334.354689 
L 43.216447 333.296243 
M 47.780167 334.354689 
L 159.225205 267.742478 
M 47.780167 334.354689 
L 16.918611 346.6 
M 165.083115 268.38114 
L 159.225205 267.742478 
M 165.083115 268.38114 
L 227.150284 201.889009 
M 165.083115 268.38114 
L 47.780167 334.354689 
M 233.734757 202.102285 
L 227.150284 201.889009 
M 233.734757 202.102285 
L 245.632218 136.037559 
M 233.734757 202.102285 
L 165.083115 268.38114 
M 252.350083 135.824615 
L 245.632218 136.037559 
M 252.350083 135.824615 
L 215.184708 70.492228 
M 252.350083 135.824615 
L 233.734757 202.102285 
M 221.439957 69.857165 
L 215.184708 70.492228 
M 221.439957 69.857165 
L 135.901414 5.574284 
M 221.439957 69.857165 
L 252.350083 135.824615 
M 141.120743 4.526592 
L 135.901414 5.574284 
M 141.120743 4.526592 
L 129.588468 -1 
M 141.120743 4.526592 
L 221.439957 69.857165 
M 130.159591 -1 
L 141.120743 4.526592 
M 18.083612 346.6 
L 47.780167 334.354689 
M 52.199143 335.470589 
L 47.780167 334.354689 
M 52.199143 335.470589 
L 165.083115 268.38114 
M 52.199143 335.470589 
L 24.002861 346.6 
M 170.881425 269.054539 
L 165.083115 268.38114 
M 170.881425 269.054539 
L 233.734757 202.102285 
M 170.881425 269.054539 
L 52.199143 335.470589 
M 240.305039 202.327165 
L 233.734757 202.102285 
M 240.305039 202.327165 
L 252.350083 135.824615 
M 240.305039 202.327165 
L 170.881425 269.054539 
M 259.053757 135.600093 
L 252.350083 135.824615 
M 259.053757 135.600093 
L 221.439957 69.857165 
M 259.053757 135.600093 
L 240.305039 202.327165 
M 227.652634 69.187654 
L 221.439957 69.857165 
M 227.652634 69.187654 
L 141.120743 4.526592 
M 227.652634 69.187654 
L 259.053757 135.600093 
M 146.232224 3.422288 
L 141.120743 4.526592 
M 146.232224 3.422288 
L 136.951096 -1 
M 146.232224 3.422288 
L 227.652634 69.187654 
M 137.402549 -1 
L 146.232224 3.422288 
M 25.046094 346.6 
L 52.199143 335.470589 
M 56.459183 336.648846 
L 52.199143 335.470589 
M 56.459183 336.648846 
L 170.881425 269.054539 
M 56.459183 336.648846 
L 31.108486 346.6 
M 176.611619 269.765632 
L 170.881425 269.054539 
M 176.611619 269.765632 
L 240.305039 202.327165 
M 176.611619 269.765632 
L 56.459183 336.648846 
M 246.852616 202.564637 
L 240.305039 202.327165 
M 246.852616 202.564637 
L 259.053757 135.600093 
M 246.852616 202.564637 
L 176.611619 269.765632 
M 265.748917 135.363012 
L 259.053757 135.600093 
M 265.748917 135.363012 
L 227.652634 69.187654 
M 265.748917 135.363012 
L 246.852616 202.564637 
M 233.817063 68.480772 
L 227.652634 69.187654 
M 233.817063 68.480772 
L 146.232224 3.422288 
M 233.817063 68.480772 
L 265.748917 135.363012 
M 151.218827 2.256555 
L 146.232224 3.422288 
M 151.218827 2.256555 
L 144.342456 -1 
M 151.218827 2.256555 
L 233.817063 68.480772 
M 144.671041 -1 
L 151.218827 2.256555 
M 32.026969 346.6 
L 56.459183 336.648846 
M 60.551774 337.894595 
L 56.459183 336.648846 
M 60.551774 337.894595 
L 176.611619 269.765632 
M 60.551774 337.894595 
L 38.24466 346.6 
M 182.268021 270.517549 
L 176.611619 269.765632 
M 182.268021 270.517549 
L 246.852616 202.564637 
M 182.268021 270.517549 
L 60.551774 337.894595 
M 253.380326 202.815743 
L 246.852616 202.564637 
M 253.380326 202.815743 
L 265.748917 135.363012 
M 253.380326 202.815743 
L 182.268021 270.517549 
M 272.429886 135.112325 
L 265.748917 135.363012 
M 272.429886 135.112325 
L 233.817063 68.480772 
M 272.429886 135.112325 
L 253.380326 202.815743 
M 239.930405 67.733405 
L 233.817063 68.480772 
M 239.930405 67.733405 
L 151.218827 2.256555 
M 239.930405 67.733405 
L 272.429886 135.112325 
M 156.074875 1.024314 
L 151.218827 2.256555 
M 156.074875 1.024314 
L 151.772811 -1 
M 156.074875 1.024314 
L 239.930405 67.733405 
M 151.97439 -1 
L 156.074875 1.024314 
M 39.034928 346.6 
L 60.551774 337.894595 
M 64.457047 339.213508 
L 60.551774 337.894595 
M 64.457047 339.213508 
L 182.268021 270.517549 
M 64.457047 339.213508 
L 45.412496 346.6 
M 187.844956 271.313722 
L 182.268021 270.517549 
M 187.844956 271.313722 
L 253.380326 202.815743 
M 187.844956 271.313722 
L 64.457047 339.213508 
M 259.888169 203.08164 
L 253.380326 202.815743 
M 259.888169 203.08164 
L 272.429886 135.112325 
M 259.888169 203.08164 
L 187.844956 271.313722 
M 279.099503 134.846893 
L 272.429886 135.112325 
M 279.099503 134.846893 
L 239.930405 67.733405 
M 279.099503 134.846893 
L 259.888169 203.08164 
M 245.989823 66.942188 
L 239.930405 67.733405 
M 245.989823 66.942188 
L 156.074875 1.024314 
M 245.989823 66.942188 
L 279.099503 134.846893 
M 160.789017 -0.279977 
L 156.074875 1.024314 
M 160.789017 -0.279977 
L 159.248302 -1 
M 160.789017 -0.279977 
L 245.989823 66.942188 
M 159.319012 -1 
L 160.789017 -0.279977 
M 46.070875 346.6 
L 64.457047 339.213508 
M 68.160813 340.611781 
L 64.457047 339.213508 
M 68.160813 340.611781 
L 187.844956 271.313722 
M 68.160813 340.611781 
L 52.620023 346.6 
M 193.333909 272.157919 
L 187.844956 271.313722 
M 193.333909 272.157919 
L 259.888169 203.08164 
M 193.333909 272.157919 
L 68.160813 340.611781 
M 266.370469 203.363581 
L 259.888169 203.08164 
M 266.370469 203.363581 
L 279.099503 134.846893 
M 266.370469 203.363581 
L 193.333909 272.157919 
M 285.752091 134.565448 
L 279.099503 134.846893 
M 285.752091 134.565448 
L 245.989823 66.942188 
M 285.752091 134.565448 
L 266.370469 203.363581 
M 251.98964 66.103351 
L 245.989823 66.942188 
M 251.98964 66.103351 
L 160.789017 -0.279977 
M 251.98964 66.103351 
L 285.752091 134.565448 
M 163.161485 -1 
L 160.789017 -0.279977 
M 166.191223 -1 
L 251.98964 66.103351 
M 53.144086 346.6 
L 68.160813 340.611781 
M 71.646042 342.093753 
L 68.160813 340.611781 
M 71.646042 342.093753 
L 193.333909 272.157919 
M 71.646042 342.093753 
L 59.870549 346.6 
M 198.734879 273.052914 
L 193.333909 272.157919 
M 198.734879 273.052914 
L 266.370469 203.363581 
M 198.734879 273.052914 
L 71.646042 342.093753 
M 272.832902 203.662528 
L 266.370469 203.363581 
M 272.832902 203.662528 
L 285.752091 134.565448 
M 272.832902 203.662528 
L 198.734879 273.052914 
M 292.393326 134.267027 
L 285.752091 134.565448 
M 292.393326 134.267027 
L 251.98964 66.103351 
M 292.393326 134.267027 
L 272.832902 203.662528 
M 257.927018 65.214027 
L 251.98964 66.103351 
M 257.927018 65.214027 
L 166.261299 -1 
M 257.927018 65.214027 
L 292.393326 134.267027 
M 172.477825 -1 
L 257.927018 65.214027 
M 60.257131 346.6 
L 71.646042 342.093753 
M 74.907059 343.662732 
L 71.646042 342.093753 
M 74.907059 343.662732 
L 198.734879 273.052914 
M 74.907059 343.662732 
L 67.175474 346.6 
M 204.039353 274.000588 
L 198.734879 273.052914 
M 204.039353 274.000588 
L 272.832902 203.662528 
M 204.039353 274.000588 
L 74.907059 343.662732 
M 279.269791 203.979082 
L 272.832902 203.662528 
M 279.269791 203.979082 
L 292.393326 134.267027 
M 279.269791 203.979082 
L 204.039353 274.000588 
M 299.020371 133.951045 
L 292.393326 134.267027 
M 299.020371 133.951045 
L 257.927018 65.214027 
M 299.020371 133.951045 
L 279.269791 203.979082 
M 263.799119 64.272515 
L 257.927018 65.214027 
M 263.799119 64.272515 
L 172.701556 -1 
M 263.799119 64.272515 
L 299.020371 133.951045 
M 178.737683 -1 
L 263.799119 64.272515 
M 67.422065 346.6 
L 74.907059 343.662732 
M 77.91832 345.327545 
L 74.907059 343.662732 
M 77.91832 345.327545 
L 204.039353 274.000588 
M 77.91832 345.327545 
L 74.543015 346.6 
M 209.238816 275.006273 
L 204.039353 274.000588 
M 209.238816 275.006273 
L 279.269791 203.979082 
M 209.238816 275.006273 
L 77.91832 345.327545 
M 285.681138 204.315019 
L 279.269791 203.979082 
M 285.681138 204.315019 
L 299.020371 133.951045 
M 285.681138 204.315019 
L 209.238816 275.006273 
M 305.636063 133.615732 
L 299.020371 133.951045 
M 305.636063 133.615732 
L 263.799119 64.272515 
M 305.636063 133.615732 
L 285.681138 204.315019 
M 269.600266 63.273576 
L 263.799119 64.272515 
M 269.600266 63.273576 
L 179.122206 -1 
M 269.600266 63.273576 
L 305.636063 133.615732 
M 184.969575 -1 
L 269.600266 63.273576 
M 74.647425 346.6 
L 77.91832 345.327545 
M 79.876362 346.6 
L 77.91832 345.327545 
M 81.537626 346.6 
L 209.238816 275.006273 
M 214.321915 276.077148 
L 209.238816 275.006273 
M 214.321915 276.077148 
L 285.681138 204.315019 
M 214.321915 276.077148 
L 81.586859 346.6 
M 292.066941 204.672735 
L 285.681138 204.315019 
M 292.066941 204.672735 
L 305.636063 133.615732 
M 292.066941 204.672735 
L 214.321915 276.077148 
M 312.234727 133.258706 
L 305.636063 133.615732 
M 312.234727 133.258706 
L 269.600266 63.273576 
M 312.234727 133.258706 
L 292.066941 204.672735 
M 275.319108 62.210129 
L 269.600266 63.273576 
M 275.319108 62.210129 
L 185.522585 -1 
M 275.319108 62.210129 
L 312.234727 133.258706 
M 191.172118 -1 
L 275.319108 62.210129 
M 87.362666 346.6 
L 214.321915 276.077148 
M 219.27446 277.221765 
L 214.321915 276.077148 
M 219.27446 277.221765 
L 292.066941 204.672735 
M 219.27446 277.221765 
L 87.596611 346.6 
M 298.424363 205.055089 
L 292.066941 204.672735 
M 298.424363 205.055089 
L 312.234727 133.258706 
M 298.424363 205.055089 
L 219.27446 277.221765 
M 318.822037 132.877118 
L 312.234727 133.258706 
M 318.822037 132.877118 
L 275.319108 62.210129 
M 318.822037 132.877118 
L 298.424363 205.055089 
M 280.949967 61.073694 
L 275.319108 62.210129 
M 280.949967 61.073694 
L 191.902988 -1 
M 280.949967 61.073694 
L 318.822037 132.877118 
M 197.349073 -1 
L 280.949967 61.073694 
M 93.141262 346.6 
L 219.27446 277.221765 
M 224.079423 278.450263 
L 219.27446 277.221765 
M 224.079423 278.450263 
L 298.424363 205.055089 
M 224.079423 278.450263 
L 93.57057 346.6 
M 304.753403 205.465483 
L 298.424363 205.055089 
M 304.753403 205.465483 
L 318.822037 132.877118 
M 304.753403 205.465483 
L 224.079423 278.450263 
M 325.392319 132.467569 
L 318.822037 132.877118 
M 325.392319 132.467569 
L 280.949967 61.073694 
M 325.392319 132.467569 
L 304.753403 205.465483 
M 286.481492 59.854234 
L 280.949967 61.073694 
M 286.481492 59.854234 
L 198.268428 -1 
M 286.481492 59.854234 
L 325.392319 132.467569 
M 203.494621 -1 
L 286.481492 59.854234 
M 98.86957 346.6 
L 224.079423 278.450263 
M 228.711259 279.775734 
L 224.079423 278.450263 
M 228.711259 279.775734 
L 304.753403 205.465483 
M 228.711259 279.775734 
L 99.506514 346.6 
M 311.045548 205.908291 
L 304.753403 205.465483 
M 311.045548 205.908291 
L 325.392319 132.467569 
M 311.045548 205.908291 
L 228.711259 279.775734 
M 331.948411 132.025704 
L 325.392319 132.467569 
M 331.948411 132.025704 
L 286.481492 59.854234 
M 331.948411 132.025704 
L 311.045548 205.908291 
M 291.893815 58.538826 
L 286.481492 59.854234 
M 291.893815 58.538826 
L 204.614174 -1 
M 291.893815 58.538826 
L 331.948411 132.025704 
M 209.613592 -1 
L 291.893815 58.538826 
M 104.541483 346.6 
L 228.711259 279.775734 
M 233.138749 281.218195 
L 228.711259 279.775734 
M 233.138749 281.218195 
L 311.045548 205.908291 
M 233.138749 281.218195 
L 105.401909 346.6 
M 317.303635 206.390213 
L 311.045548 205.908291 
M 317.303635 206.390213 
L 331.948411 132.025704 
M 317.303635 206.390213 
L 233.138749 281.218195 
M 338.490311 131.54484 
L 331.948411 132.025704 
M 338.490311 131.54484 
L 291.893815 58.538826 
M 338.490311 131.54484 
L 317.303635 206.390213 
M 297.167069 57.107608 
L 291.893815 58.538826 
M 297.167069 57.107608 
L 210.948828 -1 
M 297.167069 57.107608 
L 338.490311 131.54484 
M 215.701276 -1 
L 297.167069 57.107608 
M 110.146542 346.6 
L 233.138749 281.218195 
M 237.310807 282.807075 
L 233.138749 281.218195 
M 237.310807 282.807075 
L 317.303635 206.390213 
M 237.310807 282.807075 
L 111.250859 346.6 
M 323.513474 206.921109 
L 317.303635 206.390213 
M 323.513474 206.921109 
L 338.490311 131.54484 
M 323.513474 206.921109 
L 237.310807 282.807075 
M 345.015183 131.015134 
L 338.490311 131.54484 
M 345.015183 131.015134 
L 297.167069 57.107608 
M 345.015183 131.015134 
L 323.513474 206.921109 
M 302.267197 55.531441 
L 297.167069 57.107608 
M 302.267197 55.531441 
L 217.271716 -1 
M 302.267197 55.531441 
L 345.015183 131.015134 
M 221.755111 -1 
L 302.267197 55.531441 
M 115.666097 346.6 
L 237.310807 282.807075 
M 241.145127 284.591535 
L 237.310807 282.807075 
M 241.145127 284.591535 
L 323.513474 206.921109 
M 241.145127 284.591535 
L 117.043833 346.6 
M 329.669388 207.517416 
L 323.513474 206.921109 
M 329.669388 207.517416 
L 345.015183 131.015134 
M 329.669388 207.517416 
L 241.145127 284.591535 
M 351.523026 130.420212 
L 345.015183 131.015134 
M 351.523026 130.420212 
L 302.267197 55.531441 
M 351.523026 130.420212 
L 329.669388 207.517416 
M 307.140275 53.761679 
L 302.267197 55.531441 
M 307.140275 53.761679 
L 223.588646 -1 
M 307.140275 53.761679 
L 351.523026 130.420212 
M 227.771184 -1 
L 307.140275 53.761679 
M 121.069576 346.6 
L 241.145127 284.591535 
M 244.499802 286.653509 
L 241.145127 284.591535 
M 244.499802 286.653509 
L 329.669388 207.517416 
M 244.499802 286.653509 
L 122.765356 346.6 
M 335.745835 208.206555 
L 329.669388 207.517416 
M 335.745835 208.206555 
L 351.523026 130.420212 
M 335.745835 208.206555 
L 244.499802 286.653509 
M 358.005326 129.732733 
L 351.523026 130.420212 
M 358.005326 129.732733 
L 307.140275 53.761679 
M 358.005326 129.732733 
L 335.745835 208.206555 
M 311.686967 51.717226 
L 307.140275 53.761679 
M 311.686967 51.717226 
L 229.908053 -1 
M 311.686967 51.717226 
L 358.005326 129.732733 
M 233.739323 -1 
L 311.686967 51.717226 
M 126.302817 346.6 
L 244.499802 286.653509 
M 247.125077 289.134238 
L 244.499802 286.653509 
M 247.125077 289.134238 
L 335.745835 208.206555 
M 247.125077 289.134238 
L 128.389386 346.6 
M 341.711594 209.035806 
L 335.745835 208.206555 
M 341.711594 209.035806 
L 358.005326 129.732733 
M 341.711594 209.035806 
L 247.125077 289.134238 
M 364.453568 128.905553 
L 358.005326 129.732733 
M 364.453568 128.905553 
L 311.686967 51.717226 
M 364.453568 128.905553 
L 341.711594 209.035806 
M 315.742661 49.258249 
L 311.686967 51.717226 
M 315.742661 49.258249 
L 236.247734 -1 
M 315.742661 49.258249 
L 364.453568 128.905553 
M 239.645514 -1 
L 315.742661 49.258249 
L 315.742661 49.258249 
" clip-path="url(#pb068ebe652)" style="fill: none; stroke: #4c4c4c; stroke-width: 0.25; stroke-linecap: square"/>
   </g>
   <g id="PathCollection_1">
    <defs>
     <path id="mb98d44fd33" d="M 0 1.767767 
C 0.468817 1.767767 0.918496 1.581504 1.25 1.25 
C 1.581504 0.918496 1.767767 0.468817 1.767767 0 
C 1.767767 -0.468817 1.581504 -0.918496 1.25 -1.25 
C 0.918496 -1.581504 0.468817 -1.767767 0 -1.767767 
C -0.468817 -1.767767 -0.918496 -1.581504 -1.25 -1.25 
C -1.581504 -0.918496 -1.767767 -0.468817 -1.767767 0 
C -1.767767 0.468817 -1.581504 0.918496 -1.25 1.25 
C -0.918496 1.581504 -0.468817 1.767767 0 1.767767 
z
"/>
    </defs>
    <g clip-path="url(#pb068ebe652)">
     <use xlink:href="#mb98d44fd33" x="-1" y="308.904072" style="fill: #ff0000"/>
     <use xlink:href="#mb98d44fd33" x="78.905991" y="261.71861" style="fill: #ff0000"/>
     <use xlink:href="#mb98d44fd33" x="140.235245" y="199.878332" style="fill: #ff0000"/>
     <use xlink:href="#mb98d44fd33" x="157.442856" y="138.045147" style="fill: #ff0000"/>
     <use xlink:href="#mb98d44fd33" x="131.025498" y="76.482692" style="fill: #ff0000"/>
     <use xlink:href="#mb98d44fd33" x="60.89235" y="15.466963" style="fill: #ff0000"/>
     <use xlink:href="#mb98d44fd33" x="30.251028" y="-1" style="fill: #ff0000"/>
     <use xlink:href="#mb98d44fd33" x="-1" y="312.892002" style="fill: #ff0000"/>
     <use xlink:href="#mb98d44fd33" x="85.269089" y="262.081358" style="fill: #ff0000"/>
     <use xlink:href="#mb98d44fd33" x="146.981492" y="199.999351" style="fill: #ff0000"/>
     <use xlink:href="#mb98d44fd33" x="164.271409" y="137.924327" style="fill: #ff0000"/>
     <use xlink:href="#mb98d44fd33" x="137.629838" y="76.12202" style="fill: #ff0000"/>
     <use xlink:href="#mb98d44fd33" x="66.977311" y="14.870864" style="fill: #ff0000"/>
     <use xlink:href="#mb98d44fd33" x="37.346774" y="-1" style="fill: #ff0000"/>
     <use xlink:href="#mb98d44fd33" x="-1" y="316.856544" style="fill: #ff0000"/>
     <use xlink:href="#mb98d44fd33" x="91.615159" y="262.454281" style="fill: #ff0000"/>
     <use xlink:href="#mb98d44fd33" x="153.7249" y="200.123778" style="fill: #ff0000"/>
     <use xlink:href="#mb98d44fd33" x="171.094285" y="137.800099" style="fill: #ff0000"/>
     <use xlink:href="#mb98d44fd33" x="144.217148" y="75.751204" style="fill: #ff0000"/>
     <use xlink:href="#mb98d44fd33" x="73.031052" y="14.258054" style="fill: #ff0000"/>
     <use xlink:href="#mb98d44fd33" x="44.446543" y="-1" style="fill: #ff0000"/>
     <use xlink:href="#mb98d44fd33" x="-1" y="320.794974" style="fill: #ff0000"/>
     <use xlink:href="#mb98d44fd33" x="97.938523" y="262.839062" style="fill: #ff0000"/>
     <use xlink:href="#mb98d44fd33" x="160.456956" y="200.252166" style="fill: #ff0000"/>
     <use xlink:href="#mb98d44fd33" x="177.908646" y="137.671906" style="fill: #ff0000"/>
     <use xlink:href="#mb98d44fd33" x="150.790269" y="75.36858" style="fill: #ff0000"/>
     <use xlink:href="#mb98d44fd33" x="79.04506" y="13.625789" style="fill: #ff0000"/>
     <use xlink:href="#mb98d44fd33" x="51.546877" y="-1" style="fill: #ff0000"/>
     <use xlink:href="#mb98d44fd33" x="-1" y="324.704388" style="fill: #ff0000"/>
     <use xlink:href="#mb98d44fd33" x="104.233506" y="263.237289" style="fill: #ff0000"/>
     <use xlink:href="#mb98d44fd33" x="167.180497" y="200.385055" style="fill: #ff0000"/>
     <use xlink:href="#mb98d44fd33" x="184.717332" y="137.539225" style="fill: #ff0000"/>
     <use xlink:href="#mb98d44fd33" x="157.34636" y="74.972573" style="fill: #ff0000"/>
     <use xlink:href="#mb98d44fd33" x="85.016495" y="12.971448" style="fill: #ff0000"/>
     <use xlink:href="#mb98d44fd33" x="58.650656" y="-1" style="fill: #ff0000"/>
     <use xlink:href="#mb98d44fd33" x="-1" y="327.975053" style="fill: #ff0000"/>
     <use xlink:href="#mb98d44fd33" x="2.560166" y="326.510225" style="fill: #ff0000"/>
     <use xlink:href="#mb98d44fd33" x="110.502946" y="263.650569" style="fill: #ff0000"/>
     <use xlink:href="#mb98d44fd33" x="173.895524" y="200.522976" style="fill: #ff0000"/>
     <use xlink:href="#mb98d44fd33" x="191.520341" y="137.401517" style="fill: #ff0000"/>
     <use xlink:href="#mb98d44fd33" x="163.882584" y="74.561555" style="fill: #ff0000"/>
     <use xlink:href="#mb98d44fd33" x="90.942521" y="12.292431" style="fill: #ff0000"/>
     <use xlink:href="#mb98d44fd33" x="65.760287" y="-1" style="fill: #ff0000"/>
     <use xlink:href="#mb98d44fd33" x="-1" y="330.903916" style="fill: #ff0000"/>
     <use xlink:href="#mb98d44fd33" x="7.972489" y="327.224108" style="fill: #ff0000"/>
     <use xlink:href="#mb98d44fd33" x="116.738328" y="264.080794" style="fill: #ff0000"/>
     <use xlink:href="#mb98d44fd33" x="180.59636" y="200.666562" style="fill: #ff0000"/>
     <use xlink:href="#mb98d44fd33" x="198.314835" y="137.258143" style="fill: #ff0000"/>
     <use xlink:href="#mb98d44fd33" x="170.396104" y="74.133701" style="fill: #ff0000"/>
     <use xlink:href="#mb98d44fd33" x="96.811783" y="11.585655" style="fill: #ff0000"/>
     <use xlink:href="#mb98d44fd33" x="72.87207" y="-1" style="fill: #ff0000"/>
     <use xlink:href="#mb98d44fd33" x="-1" y="333.816442" style="fill: #ff0000"/>
     <use xlink:href="#mb98d44fd33" x="13.305344" y="327.969488" style="fill: #ff0000"/>
     <use xlink:href="#mb98d44fd33" x="122.94249" y="264.530059" style="fill: #ff0000"/>
     <use xlink:href="#mb98d44fd33" x="187.288682" y="200.816516" style="fill: #ff0000"/>
     <use xlink:href="#mb98d44fd33" x="205.103654" y="137.108424" style="fill: #ff0000"/>
     <use xlink:href="#mb98d44fd33" x="176.88408" y="73.686906" style="fill: #ff0000"/>
     <use xlink:href="#mb98d44fd33" x="102.627122" y="10.847705" style="fill: #ff0000"/>
     <use xlink:href="#mb98d44fd33" x="79.993983" y="-1" style="fill: #ff0000"/>
     <use xlink:href="#mb98d44fd33" x="-1" y="336.713175" style="fill: #ff0000"/>
     <use xlink:href="#mb98d44fd33" x="18.553055" y="328.749747" style="fill: #ff0000"/>
     <use xlink:href="#mb98d44fd33" x="129.104081" y="265.000407" style="fill: #ff0000"/>
     <use xlink:href="#mb98d44fd33" x="193.969651" y="200.973511" style="fill: #ff0000"/>
     <use xlink:href="#mb98d44fd33" x="211.881119" y="136.951659" style="fill: #ff0000"/>
     <use xlink:href="#mb98d44fd33" x="183.349351" y="73.219133" style="fill: #ff0000"/>
     <use xlink:href="#mb98d44fd33" x="108.374344" y="10.075253" style="fill: #ff0000"/>
     <use xlink:href="#mb98d44fd33" x="87.121215" y="-1" style="fill: #ff0000"/>
     <use xlink:href="#mb98d44fd33" x="-1" y="339.593076" style="fill: #ff0000"/>
     <use xlink:href="#mb98d44fd33" x="23.707108" y="329.568434" style="fill: #ff0000"/>
     <use xlink:href="#mb98d44fd33" x="135.228776" y="265.493991" style="fill: #ff0000"/>
     <use xlink:href="#mb98d44fd33" x="200.636429" y="201.138278" style="fill: #ff0000"/>
     <use xlink:href="#mb98d44fd33" x="218.650071" y="136.787149" style="fill: #ff0000"/>
     <use xlink:href="#mb98d44fd33" x="189.783402" y="72.728276" style="fill: #ff0000"/>
     <use xlink:href="#mb98d44fd33" x="114.050614" y="9.264776" style="fill: #ff0000"/>
     <use xlink:href="#mb98d44fd33" x="94.258773" y="-1" style="fill: #ff0000"/>
     <use xlink:href="#mb98d44fd33" x="-1" y="342.456585" style="fill: #ff0000"/>
     <use xlink:href="#mb98d44fd33" x="28.761826" y="330.429156" style="fill: #ff0000"/>
     <use xlink:href="#mb98d44fd33" x="141.305222" y="266.012992" style="fill: #ff0000"/>
     <use xlink:href="#mb98d44fd33" x="207.289017" y="201.311537" style="fill: #ff0000"/>
     <use xlink:href="#mb98d44fd33" x="225.410508" y="136.614159" style="fill: #ff0000"/>
     <use xlink:href="#mb98d44fd33" x="196.186234" y="72.212157" style="fill: #ff0000"/>
     <use xlink:href="#mb98d44fd33" x="119.647416" y="8.412716" style="fill: #ff0000"/>
     <use xlink:href="#mb98d44fd33" x="101.406996" y="-1" style="fill: #ff0000"/>
     <use xlink:href="#mb98d44fd33" x="-1" y="345.299973" style="fill: #ff0000"/>
     <use xlink:href="#mb98d44fd33" x="33.700181" y="331.33559" style="fill: #ff0000"/>
     <use xlink:href="#mb98d44fd33" x="147.330582" y="266.559636" style="fill: #ff0000"/>
     <use xlink:href="#mb98d44fd33" x="213.924576" y="201.494038" style="fill: #ff0000"/>
     <use xlink:href="#mb98d44fd33" x="232.16243" y="136.431938" style="fill: #ff0000"/>
     <use xlink:href="#mb98d44fd33" x="202.557847" y="71.668564" style="fill: #ff0000"/>
     <use xlink:href="#mb98d44fd33" x="125.159073" y="7.515443" style="fill: #ff0000"/>
     <use xlink:href="#mb98d44fd33" x="108.569287" y="-1" style="fill: #ff0000"/>
     <use xlink:href="#mb98d44fd33" x="-1" y="348.124164" style="fill: #ff0000"/>
     <use xlink:href="#mb98d44fd33" x="38.519333" y="332.291011" style="fill: #ff0000"/>
     <use xlink:href="#mb98d44fd33" x="153.304856" y="267.135971" style="fill: #ff0000"/>
     <use xlink:href="#mb98d44fd33" x="220.545945" y="201.686474" style="fill: #ff0000"/>
     <use xlink:href="#mb98d44fd33" x="238.903" y="136.239794" style="fill: #ff0000"/>
     <use xlink:href="#mb98d44fd33" x="208.889725" y="71.095425" style="fill: #ff0000"/>
     <use xlink:href="#mb98d44fd33" x="130.579911" y="6.569541" style="fill: #ff0000"/>
     <use xlink:href="#mb98d44fd33" x="115.74917" y="-1" style="fill: #ff0000"/>
     <use xlink:href="#mb98d44fd33" x="-1" y="350.927896" style="fill: #ff0000"/>
     <use xlink:href="#mb98d44fd33" x="43.216447" y="333.296243" style="fill: #ff0000"/>
     <use xlink:href="#mb98d44fd33" x="159.225205" y="267.742478" style="fill: #ff0000"/>
     <use xlink:href="#mb98d44fd33" x="227.150284" y="201.889009" style="fill: #ff0000"/>
     <use xlink:href="#mb98d44fd33" x="245.632218" y="136.037559" style="fill: #ff0000"/>
     <use xlink:href="#mb98d44fd33" x="215.184708" y="70.492228" style="fill: #ff0000"/>
     <use xlink:href="#mb98d44fd33" x="135.901414" y="5.574284" style="fill: #ff0000"/>
     <use xlink:href="#mb98d44fd33" x="122.943694" y="-1" style="fill: #ff0000"/>
     <use xlink:href="#mb98d44fd33" x="-1" y="353.709782" style="fill: #ff0000"/>
     <use xlink:href="#mb98d44fd33" x="47.780167" y="334.354689" style="fill: #ff0000"/>
     <use xlink:href="#mb98d44fd33" x="165.083115" y="268.38114" style="fill: #ff0000"/>
     <use xlink:href="#mb98d44fd33" x="233.734757" y="202.102285" style="fill: #ff0000"/>
     <use xlink:href="#mb98d44fd33" x="252.350083" y="135.824615" style="fill: #ff0000"/>
     <use xlink:href="#mb98d44fd33" x="221.439957" y="69.857165" style="fill: #ff0000"/>
     <use xlink:href="#mb98d44fd33" x="141.120743" y="4.526592" style="fill: #ff0000"/>
     <use xlink:href="#mb98d44fd33" x="130.159591" y="-1" style="fill: #ff0000"/>
     <use xlink:href="#mb98d44fd33" x="-1" y="356.468929" style="fill: #ff0000"/>
     <use xlink:href="#mb98d44fd33" x="52.199143" y="335.470589" style="fill: #ff0000"/>
     <use xlink:href="#mb98d44fd33" x="170.881425" y="269.054539" style="fill: #ff0000"/>
     <use xlink:href="#mb98d44fd33" x="240.305039" y="202.327165" style="fill: #ff0000"/>
     <use xlink:href="#mb98d44fd33" x="259.053757" y="135.600093" style="fill: #ff0000"/>
     <use xlink:href="#mb98d44fd33" x="227.652634" y="69.187654" style="fill: #ff0000"/>
     <use xlink:href="#mb98d44fd33" x="146.232224" y="3.422288" style="fill: #ff0000"/>
     <use xlink:href="#mb98d44fd33" x="137.402549" y="-1" style="fill: #ff0000"/>
     <use xlink:href="#mb98d44fd33" x="-1" y="359.203854" style="fill: #ff0000"/>
     <use xlink:href="#mb98d44fd33" x="56.459183" y="336.648846" style="fill: #ff0000"/>
     <use xlink:href="#mb98d44fd33" x="176.611619" y="269.765632" style="fill: #ff0000"/>
     <use xlink:href="#mb98d44fd33" x="246.852616" y="202.564637" style="fill: #ff0000"/>
     <use xlink:href="#mb98d44fd33" x="265.748917" y="135.363012" style="fill: #ff0000"/>
     <use xlink:href="#mb98d44fd33" x="233.817063" y="68.480772" style="fill: #ff0000"/>
     <use xlink:href="#mb98d44fd33" x="151.218827" y="2.256555" style="fill: #ff0000"/>
     <use xlink:href="#mb98d44fd33" x="144.671041" y="-1" style="fill: #ff0000"/>
     <use xlink:href="#mb98d44fd33" x="-1" y="361.915324" style="fill: #ff0000"/>
     <use xlink:href="#mb98d44fd33" x="60.551774" y="337.894595" style="fill: #ff0000"/>
     <use xlink:href="#mb98d44fd33" x="182.268021" y="270.517549" style="fill: #ff0000"/>
     <use xlink:href="#mb98d44fd33" x="253.380326" y="202.815743" style="fill: #ff0000"/>
     <use xlink:href="#mb98d44fd33" x="272.429886" y="135.112325" style="fill: #ff0000"/>
     <use xlink:href="#mb98d44fd33" x="239.930405" y="67.733405" style="fill: #ff0000"/>
     <use xlink:href="#mb98d44fd33" x="156.074875" y="1.024314" style="fill: #ff0000"/>
     <use xlink:href="#mb98d44fd33" x="151.97439" y="-1" style="fill: #ff0000"/>
     <use xlink:href="#mb98d44fd33" x="-1" y="364.601241" style="fill: #ff0000"/>
     <use xlink:href="#mb98d44fd33" x="64.457047" y="339.213508" style="fill: #ff0000"/>
     <use xlink:href="#mb98d44fd33" x="187.844956" y="271.313722" style="fill: #ff0000"/>
     <use xlink:href="#mb98d44fd33" x="259.888169" y="203.08164" style="fill: #ff0000"/>
     <use xlink:href="#mb98d44fd33" x="279.099503" y="134.846893" style="fill: #ff0000"/>
     <use xlink:href="#mb98d44fd33" x="245.989823" y="66.942188" style="fill: #ff0000"/>
     <use xlink:href="#mb98d44fd33" x="160.789017" y="-0.279977" style="fill: #ff0000"/>
     <use xlink:href="#mb98d44fd33" x="159.319012" y="-1" style="fill: #ff0000"/>
     <use xlink:href="#mb98d44fd33" x="-1" y="367.26101" style="fill: #ff0000"/>
     <use xlink:href="#mb98d44fd33" x="68.160813" y="340.611781" style="fill: #ff0000"/>
     <use xlink:href="#mb98d44fd33" x="193.333909" y="272.157919" style="fill: #ff0000"/>
     <use xlink:href="#mb98d44fd33" x="266.370469" y="203.363581" style="fill: #ff0000"/>
     <use xlink:href="#mb98d44fd33" x="285.752091" y="134.565448" style="fill: #ff0000"/>
     <use xlink:href="#mb98d44fd33" x="251.98964" y="66.103351" style="fill: #ff0000"/>
     <use xlink:href="#mb98d44fd33" x="166.191223" y="-1" style="fill: #ff0000"/>
     <use xlink:href="#mb98d44fd33" x="-1" y="369.89395" style="fill: #ff0000"/>
     <use xlink:href="#mb98d44fd33" x="71.646042" y="342.093753" style="fill: #ff0000"/>
     <use xlink:href="#mb98d44fd33" x="198.734879" y="273.052914" style="fill: #ff0000"/>
     <use xlink:href="#mb98d44fd33" x="272.832902" y="203.662528" style="fill: #ff0000"/>
     <use xlink:href="#mb98d44fd33" x="292.393326" y="134.267027" style="fill: #ff0000"/>
     <use xlink:href="#mb98d44fd33" x="257.927018" y="65.214027" style="fill: #ff0000"/>
     <use xlink:href="#mb98d44fd33" x="172.477825" y="-1" style="fill: #ff0000"/>
     <use xlink:href="#mb98d44fd33" x="-1" y="372.500203" style="fill: #ff0000"/>
     <use xlink:href="#mb98d44fd33" x="74.907059" y="343.662732" style="fill: #ff0000"/>
     <use xlink:href="#mb98d44fd33" x="204.039353" y="274.000588" style="fill: #ff0000"/>
     <use xlink:href="#mb98d44fd33" x="279.269791" y="203.979082" style="fill: #ff0000"/>
     <use xlink:href="#mb98d44fd33" x="299.020371" y="133.951045" style="fill: #ff0000"/>
     <use xlink:href="#mb98d44fd33" x="263.799119" y="64.272515" style="fill: #ff0000"/>
     <use xlink:href="#mb98d44fd33" x="178.737683" y="-1" style="fill: #ff0000"/>
     <use xlink:href="#mb98d44fd33" x="-1" y="375.07894" style="fill: #ff0000"/>
     <use xlink:href="#mb98d44fd33" x="77.91832" y="345.327545" style="fill: #ff0000"/>
     <use xlink:href="#mb98d44fd33" x="209.238816" y="275.006273" style="fill: #ff0000"/>
     <use xlink:href="#mb98d44fd33" x="285.681138" y="204.315019" style="fill: #ff0000"/>
     <use xlink:href="#mb98d44fd33" x="305.636063" y="133.615732" style="fill: #ff0000"/>
     <use xlink:href="#mb98d44fd33" x="269.600266" y="63.273576" style="fill: #ff0000"/>
     <use xlink:href="#mb98d44fd33" x="184.969575" y="-1" style="fill: #ff0000"/>
     <use xlink:href="#mb98d44fd33" x="-1" y="377.630173" style="fill: #ff0000"/>
     <use xlink:href="#mb98d44fd33" x="80.645768" y="347.100007" style="fill: #ff0000"/>
     <use xlink:href="#mb98d44fd33" x="214.321915" y="276.077148" style="fill: #ff0000"/>
     <use xlink:href="#mb98d44fd33" x="292.066941" y="204.672735" style="fill: #ff0000"/>
     <use xlink:href="#mb98d44fd33" x="312.234727" y="133.258706" style="fill: #ff0000"/>
     <use xlink:href="#mb98d44fd33" x="275.319108" y="62.210129" style="fill: #ff0000"/>
     <use xlink:href="#mb98d44fd33" x="191.172118" y="-1" style="fill: #ff0000"/>
     <use xlink:href="#mb98d44fd33" x="-1" y="380.153118" style="fill: #ff0000"/>
     <use xlink:href="#mb98d44fd33" x="83.052506" y="348.994192" style="fill: #ff0000"/>
     <use xlink:href="#mb98d44fd33" x="219.27446" y="277.221765" style="fill: #ff0000"/>
     <use xlink:href="#mb98d44fd33" x="298.424363" y="205.055089" style="fill: #ff0000"/>
     <use xlink:href="#mb98d44fd33" x="318.822037" y="132.877118" style="fill: #ff0000"/>
     <use xlink:href="#mb98d44fd33" x="280.949967" y="61.073694" style="fill: #ff0000"/>
     <use xlink:href="#mb98d44fd33" x="197.349073" y="-1" style="fill: #ff0000"/>
     <use xlink:href="#mb98d44fd33" x="-1" y="382.6488" style="fill: #ff0000"/>
     <use xlink:href="#mb98d44fd33" x="85.093125" y="351.026793" style="fill: #ff0000"/>
     <use xlink:href="#mb98d44fd33" x="224.079423" y="278.450263" style="fill: #ff0000"/>
     <use xlink:href="#mb98d44fd33" x="304.753403" y="205.465483" style="fill: #ff0000"/>
     <use xlink:href="#mb98d44fd33" x="325.392319" y="132.467569" style="fill: #ff0000"/>
     <use xlink:href="#mb98d44fd33" x="286.481492" y="59.854234" style="fill: #ff0000"/>
     <use xlink:href="#mb98d44fd33" x="203.494621" y="-1" style="fill: #ff0000"/>
     <use xlink:href="#mb98d44fd33" x="-1" y="385.116864" style="fill: #ff0000"/>
     <use xlink:href="#mb98d44fd33" x="86.708024" y="353.219337" style="fill: #ff0000"/>
     <use xlink:href="#mb98d44fd33" x="228.711259" y="279.775734" style="fill: #ff0000"/>
     <use xlink:href="#mb98d44fd33" x="311.045548" y="205.908291" style="fill: #ff0000"/>
     <use xlink:href="#mb98d44fd33" x="331.948411" y="132.025704" style="fill: #ff0000"/>
     <use xlink:href="#mb98d44fd33" x="291.893815" y="58.538826" style="fill: #ff0000"/>
     <use xlink:href="#mb98d44fd33" x="209.613592" y="-1" style="fill: #ff0000"/>
     <use xlink:href="#mb98d44fd33" x="-1" y="387.55836" style="fill: #ff0000"/>
     <use xlink:href="#mb98d44fd33" x="87.80922" y="355.604777" style="fill: #ff0000"/>
     <use xlink:href="#mb98d44fd33" x="233.138749" y="281.218195" style="fill: #ff0000"/>
     <use xlink:href="#mb98d44fd33" x="317.303635" y="206.390213" style="fill: #ff0000"/>
     <use xlink:href="#mb98d44fd33" x="338.490311" y="131.54484" style="fill: #ff0000"/>
     <use xlink:href="#mb98d44fd33" x="297.167069" y="57.107608" style="fill: #ff0000"/>
     <use xlink:href="#mb98d44fd33" x="215.701276" y="-1" style="fill: #ff0000"/>
     <use xlink:href="#mb98d44fd33" x="-1" y="389.975659" style="fill: #ff0000"/>
     <use xlink:href="#mb98d44fd33" x="88.26616" y="358.231459" style="fill: #ff0000"/>
     <use xlink:href="#mb98d44fd33" x="237.310807" y="282.807075" style="fill: #ff0000"/>
     <use xlink:href="#mb98d44fd33" x="323.513474" y="206.921109" style="fill: #ff0000"/>
     <use xlink:href="#mb98d44fd33" x="345.015183" y="131.015134" style="fill: #ff0000"/>
     <use xlink:href="#mb98d44fd33" x="302.267197" y="55.531441" style="fill: #ff0000"/>
     <use xlink:href="#mb98d44fd33" x="221.755111" y="-1" style="fill: #ff0000"/>
     <use xlink:href="#mb98d44fd33" x="-1" y="392.371032" style="fill: #ff0000"/>
     <use xlink:href="#mb98d44fd33" x="87.863145" y="361.180426" style="fill: #ff0000"/>
     <use xlink:href="#mb98d44fd33" x="241.145127" y="284.591535" style="fill: #ff0000"/>
     <use xlink:href="#mb98d44fd33" x="329.669388" y="207.517416" style="fill: #ff0000"/>
     <use xlink:href="#mb98d44fd33" x="351.523026" y="130.420212" style="fill: #ff0000"/>
     <use xlink:href="#mb98d44fd33" x="307.140275" y="53.761679" style="fill: #ff0000"/>
     <use xlink:href="#mb98d44fd33" x="227.771184" y="-1" style="fill: #ff0000"/>
     <use xlink:href="#mb98d44fd33" x="-1" y="394.753254" style="fill: #ff0000"/>
     <use xlink:href="#mb98d44fd33" x="86.239731" y="364.586553" style="fill: #ff0000"/>
     <use xlink:href="#mb98d44fd33" x="244.499802" y="286.653509" style="fill: #ff0000"/>
     <use xlink:href="#mb98d44fd33" x="335.745835" y="208.206555" style="fill: #ff0000"/>
     <use xlink:href="#mb98d44fd33" x="358.005326" y="129.732733" style="fill: #ff0000"/>
     <use xlink:href="#mb98d44fd33" x="311.686967" y="51.717226" style="fill: #ff0000"/>
     <use xlink:href="#mb98d44fd33" x="233.739323" y="-1" style="fill: #ff0000"/>
     <use xlink:href="#mb98d44fd33" x="-1" y="397.136489" style="fill: #ff0000"/>
     <use xlink:href="#mb98d44fd33" x="82.763016" y="368.682275" style="fill: #ff0000"/>
     <use xlink:href="#mb98d44fd33" x="247.125077" y="289.134238" style="fill: #ff0000"/>
     <use xlink:href="#mb98d44fd33" x="341.711594" y="209.035806" style="fill: #ff0000"/>
     <use xlink:href="#mb98d44fd33" x="364.453568" y="128.905553" style="fill: #ff0000"/>
     <use xlink:href="#mb98d44fd33" x="315.742661" y="49.258249" style="fill: #ff0000"/>
     <use xlink:href="#mb98d44fd33" x="239.645514" y="-1" style="fill: #ff0000"/>
    </g>
   </g>
   <g id="matplotlib.axis_1"/>
   <g id="matplotlib.axis_2"/>
   <g id="line2d_2"/>
   <g id="patch_3">
    <path d="M 57.6 307.584 
L 57.6 41.472 
" style="fill: none; stroke: #000000; stroke-width: 0.8; stroke-linejoin: miter; stroke-linecap: square"/>
   </g>
   <g id="patch_4">
    <path d="M 414.72 307.584 
L 414.72 41.472 
" style="fill: none; stroke: #000000; stroke-width: 0.8; stroke-linejoin: miter; stroke-linecap: square"/>
   </g>
   <g id="patch_5">
    <path d="M 57.6 307.584 
L 414.72 307.584 
" style="fill: none; stroke: #000000; stroke-width: 0.8; stroke-linejoin: miter; stroke-linecap: square"/>
   </g>
   <g id="patch_6">
    <path d="M 57.6 41.472 
L 414.72 41.472 
" style="fill: none; stroke: #000000; stroke-width: 0.8; stroke-linejoin: miter; stroke-linecap: square"/>
   </g>
  </g>
 </g>
 <defs>
  <clipPath id="pb068ebe652">
   <rect x="57.6" y="41.472" width="357.12" height="266.112"/>
  </clipPath>
 </defs>
</svg>
